<?xml version="1.0" encoding="UTF-8"?>
<svg xmlns:xlink="http://www.w3.org/1999/xlink" xmlns="http://www.w3.org/2000/svg" fill-opacity="1" color-rendering="auto" color-interpolation="auto" stroke="black" text-rendering="auto" stroke-linecap="square" width="1145" stroke-miterlimit="10" stroke-opacity="1" shape-rendering="auto" fill="black" stroke-dasharray="none" font-weight="normal" stroke-width="1" height="1056" font-family="'Dialog'" font-style="normal" stroke-linejoin="miter" font-size="12" stroke-dashoffset="0" image-rendering="auto">
<!--Generated by ySVG-->
<defs id="genericDefs"/>
<g>
<defs id="defs1">
<clipPath clipPathUnits="userSpaceOnUse" id="clipPath1">
<path d="M0 0 L1145 0 L1145 1056 L0 1056 L0 0 Z"/>
</clipPath>
<clipPath clipPathUnits="userSpaceOnUse" id="clipPath2">
<path d="M-423 -331 L722 -331 L722 725 L-423 725 L-423 -331 Z"/>
</clipPath>
<clipPath clipPathUnits="userSpaceOnUse" id="clipPath3">
<path d="M0 1 L1145 1 L1145 1057 L0 1057 L0 1 Z"/>
</clipPath>
<clipPath clipPathUnits="userSpaceOnUse" id="clipPath4">
<path d="M0 -1031 L1145 -1031 L1145 25 L0 25 L0 -1031 Z"/>
</clipPath>
</defs>
<g fill="white" transform="translate(423,331)" stroke="white">
<rect x="-423" width="1145" height="1056" y="-331" clip-path="url(#clipPath2)" stroke="none"/>
</g>
<g stroke-linecap="butt" transform="matrix(1,0,0,1,423,331)" fill="rgb(110,110,110)" stroke-dasharray="12,4" stroke="rgb(110,110,110)" stroke-width="2" stroke-miterlimit="1.45">
<path fill="none" d="M426.1093 239.935 L603.6113 488.4243" clip-path="url(#clipPath2)"/>
<path d="M610.8043 498.4941 L608.45 483.5854 L597.4647 491.4324 Z" clip-path="url(#clipPath2)" stroke="none"/>
<path fill="none" d="M125.3203 182.2804 L118.0934 31.7701" clip-path="url(#clipPath2)"/>
<path d="M117.4998 19.4093 L111.4051 33.2175 L124.8895 32.57 Z" clip-path="url(#clipPath2)" stroke="none"/>
<path fill="none" d="M430.3944 238.0477 L624.3789 407.6252" clip-path="url(#clipPath2)"/>
<path d="M633.6958 415.7698 L627.9744 401.8028 L619.0894 411.9667 Z" clip-path="url(#clipPath2)" stroke="none"/>
<path fill="none" d="M166.6757 -252.7004 L172.3694 -256.6264 L174.8116 -259.5863 L176.6556 -262.9836 L177.821 -266.7378 L178.2273 -270.7685 L177.821 -274.7992 L176.6556 -278.5534 L174.8116 -281.9507 L172.3694 -284.9106 L169.4095 -287.3528 L166.0122 -289.1968 L162.258 -290.3622 L158.2273 -290.7685 L154.1966 -290.3622 L150.4424 -289.1968 L147.0451 -287.3528 L144.0851 -284.9107 L141.643 -281.9507 L139.799 -278.5534 L138.6336 -274.7992 L138.2273 -270.7685 L138.6336 -266.7378 L139.799 -262.9836 L140.7735 -261.1883 L140.8498 -261.1237" clip-path="url(#clipPath2)"/>
<path d="M150.2953 -253.1284 L144.3521 -267.0026 L135.6301 -256.6984 Z" clip-path="url(#clipPath2)" stroke="none"/>
<path fill="none" d="M400.3944 223.5014 L153.3594 199.8914" clip-path="url(#clipPath2)"/>
<path d="M141.0406 198.714 L153.8371 206.7178 L155.1215 193.279 Z" clip-path="url(#clipPath2)" stroke="none"/>
<path fill="none" d="M422.4749 209.935 L520.4623 2.3471" clip-path="url(#clipPath2)"/>
<path d="M525.7448 -8.8438 L513.878 0.4832 L526.0862 6.2458 Z" clip-path="url(#clipPath2)" stroke="none"/>
<path fill="none" d="M112.712 182.2804 L-8.7153 45.6258" clip-path="url(#clipPath2)"/>
<path d="M-16.9351 36.3751 L-13.0138 50.9503 L-2.9222 41.9832 Z" clip-path="url(#clipPath2)" stroke="none"/>
<path fill="none" d="M-43.4762 -60.1652 L-223.419 93.8536" clip-path="url(#clipPath2)"/>
<path d="M-232.8204 101.9006 L-218.1751 98.2502 L-226.9536 87.9941 Z" clip-path="url(#clipPath2)" stroke="none"/>
<path fill="none" d="M-28.2352 -58.0042 L-27.3385 -2.2092" clip-path="url(#clipPath2)"/>
<path d="M-27.1396 10.1642 L-20.6074 -3.4425 L-34.1057 -3.2256 Z" clip-path="url(#clipPath2)" stroke="none"/>
<path fill="none" d="M-164.0526 -29.4594 L-138.8929 -155.5561" clip-path="url(#clipPath2)"/>
<path d="M-136.4715 -167.6919 L-145.7325 -155.7736 L-132.4935 -153.132 Z" clip-path="url(#clipPath2)" stroke="none"/>
<path fill="none" d="M135.0972 505.7168 L576.1226 512.0915" clip-path="url(#clipPath2)"/>
<path d="M588.4963 512.2703 L575.0953 505.3259 L574.9002 518.8245 Z" clip-path="url(#clipPath2)" stroke="none"/>
<path fill="none" d="M430.3944 219.509 L602.5024 157.2518" clip-path="url(#clipPath2)"/>
<path d="M614.1394 153.0423 L599.1484 151.287 L603.7405 163.982 Z" clip-path="url(#clipPath2)" stroke="none"/>
<path fill="none" stroke-dasharray="none" d="M227.1419 436.281 L602.7524 165.6853" clip-path="url(#clipPath2)"/>
<path stroke-dasharray="none" d="M612.7932 158.4518 L597.894 160.8661 L605.7852 171.8197 Z" clip-path="url(#clipPath2)" stroke="none"/>
<path fill="none" d="M-167.3131 0.5406 L-171.427 231.0869" clip-path="url(#clipPath2)"/>
<path d="M-171.6477 243.4599 L-164.658 230.0825 L-178.1558 229.8417 Z" clip-path="url(#clipPath2)" stroke="none"/>
<path fill="none" d="M-43.4762 -75.6136 L-213.6575 -105.2187" clip-path="url(#clipPath2)"/>
<path d="M-225.8494 -107.3396 L-213.706 -98.3758 L-211.3922 -111.676 Z" clip-path="url(#clipPath2)" stroke="none"/>
<path fill="none" d="M-13.4762 -72.5623 L221.1124 -65.6516" clip-path="url(#clipPath2)"/>
<path d="M233.482 -65.2872 L220.1866 -72.4318 L219.7891 -58.9376 Z" clip-path="url(#clipPath2)" stroke="none"/>
<path fill="none" d="M-25.0898 -88.0042 L8.2479 -235.6726" clip-path="url(#clipPath2)"/>
<path d="M10.9731 -247.7438 L1.4159 -236.0617 L14.5845 -233.0887 Z" clip-path="url(#clipPath2)" stroke="none"/>
<path fill="none" d="M-13.4762 -87.286 L144.1716 -237.3859" clip-path="url(#clipPath2)"/>
<path d="M153.134 -245.9191 L138.7024 -241.4987 L148.0114 -231.7216 Z" clip-path="url(#clipPath2)" stroke="none"/>
<path fill="none" stroke-dasharray="none" d="M407.2401 -190.744 L514.608 -47.5752" clip-path="url(#clipPath2)"/>
<path stroke-dasharray="none" d="M522.0326 -37.6749 L519.3332 -52.525 L508.5329 -44.4254 Z" clip-path="url(#clipPath2)" stroke="none"/>
<path fill="none" stroke-dasharray="none" d="M-180.6771 -29.4594 L-235.3674 -89.6394" clip-path="url(#clipPath2)"/>
<path stroke-dasharray="none" d="M-243.6901 -98.7976 L-239.6061 -84.2671 L-229.6154 -93.3465 Z" clip-path="url(#clipPath2)" stroke="none"/>
<path fill="none" d="M430.3944 227.261 L569.4636 248.8264" clip-path="url(#clipPath2)"/>
<path d="M581.6924 250.7227 L569.3862 241.9837 L567.3174 255.3242 Z" clip-path="url(#clipPath2)" stroke="none"/>
<path fill="none" d="M412.1749 209.935 L383.9518 78.4427" clip-path="url(#clipPath2)"/>
<path d="M381.3548 66.3432 L377.5882 80.9591 L390.7876 78.1261 Z" clip-path="url(#clipPath2)" stroke="none"/>
<path fill="none" d="M400.3944 234.4677 L252.1758 328.6633" clip-path="url(#clipPath2)"/>
<path d="M241.7315 335.3008 L256.7458 333.7567 L249.5048 322.3629 Z" clip-path="url(#clipPath2)" stroke="none"/>
<path fill="none" d="M400.3944 230.2729 L26.7028 363.2571" clip-path="url(#clipPath2)"/>
<path d="M15.0441 367.4061 L30.0258 369.2393 L25.4996 356.5206 Z" clip-path="url(#clipPath2)" stroke="none"/>
<path fill="none" d="M115.2694 212.2804 L18.0333 347.6922" clip-path="url(#clipPath2)"/>
<path d="M10.8152 357.744 L24.1723 350.7155 L13.2066 342.8412 Z" clip-path="url(#clipPath2)" stroke="none"/>
<path fill="none" d="M111.0406 186.4437 L-142.0144 3.6242" clip-path="url(#clipPath2)"/>
<path d="M-152.0455 -3.6227 L-145.0553 9.7546 L-137.1496 -1.1884 Z" clip-path="url(#clipPath2)" stroke="none"/>
<path fill="none" d="M131.4245 212.2804 L205.7234 419.2834" clip-path="url(#clipPath2)"/>
<path d="M209.904 430.9308 L211.6965 415.9442 L198.9902 420.5048 Z" clip-path="url(#clipPath2)" stroke="none"/>
<path fill="none" d="M120.5869 212.2804 L18.1462 494.037" clip-path="url(#clipPath2)"/>
<path d="M13.9177 505.6672 L24.8743 495.2862 L12.1869 490.6733 Z" clip-path="url(#clipPath2)" stroke="none"/>
<path fill="none" d="M111.0406 204.7242 L-169.9485 344.1655" clip-path="url(#clipPath2)"/>
<path d="M-181.0336 349.6665 L-165.9402 349.7119 L-171.9413 337.619 Z" clip-path="url(#clipPath2)" stroke="none"/>
<path fill="none" d="M111.0406 210.6712 L-119.2498 416.256" clip-path="url(#clipPath2)"/>
<path d="M-128.4814 424.4973 L-113.9154 420.5423 L-122.9058 410.4714 Z" clip-path="url(#clipPath2)" stroke="none"/>
<path fill="none" d="M141.0406 203.9273 L622.3818 417.2221" clip-path="url(#clipPath2)"/>
<path d="M633.6958 422.2357 L624.088 410.5951 L618.6187 422.9376 Z" clip-path="url(#clipPath2)" stroke="none"/>
<path fill="none" d="M117.4653 182.2804 L-13.7592 -47.2609" clip-path="url(#clipPath2)"/>
<path d="M-19.901 -58.0042 L-19.0609 -42.9341 L-7.3409 -49.6342 Z" clip-path="url(#clipPath2)" stroke="none"/>
<path fill="none" d="M111.0406 200.3604 L-130.0992 249.8734" clip-path="url(#clipPath2)"/>
<path d="M-142.2213 252.3624 L-127.6395 256.2592 L-130.3548 243.035 Z" clip-path="url(#clipPath2)" stroke="none"/>
<path fill="none" d="M111.0406 197.7036 L-248.7869 207.854" clip-path="url(#clipPath2)"/>
<path d="M-261.157 208.2029 L-247.472 214.5695 L-247.8527 201.0749 Z" clip-path="url(#clipPath2)" stroke="none"/>
<path fill="none" d="M111.0406 193.8115 L-217.545 117.8225" clip-path="url(#clipPath2)"/>
<path d="M-229.6018 115.0343 L-217.9698 124.6524 L-214.9281 111.4996 Z" clip-path="url(#clipPath2)" stroke="none"/>
<path fill="none" d="M133.0468 182.2804 L236.8905 -40.0427" clip-path="url(#clipPath2)"/>
<path d="M242.1276 -51.2549 L230.2987 -41.8799 L242.5302 -36.1668 Z" clip-path="url(#clipPath2)" stroke="none"/>
<path fill="none" d="M141.0413 190.382 L144.4689 185.0653 L145.6342 181.3111 L146.0406 177.2804 L145.6342 173.2497 L144.4689 169.4955 L142.6249 166.0982 L140.1827 163.1383 L137.2227 160.6961 L133.8255 158.8521 L130.0713 157.6868 L126.0406 157.2804 L122.0099 157.6868 L118.2557 158.8521 L114.8584 160.6961 L111.8984 163.1383 L109.4562 166.0982 L107.6123 169.4955 L106.4469 173.2497 L106.0406 177.2804 L106.2126 178.9873 L106.2578 179.0765" clip-path="url(#clipPath2)"/>
<path d="M111.8479 190.117 L111.7717 175.0237 L99.7275 181.122 Z" clip-path="url(#clipPath2)" stroke="none"/>
<path fill="none" d="M141.0406 188.5969 L352.4254 66.2266" clip-path="url(#clipPath2)"/>
<path d="M363.1353 60.0267 L348.07 60.9485 L354.8336 72.632 Z" clip-path="url(#clipPath2)" stroke="none"/>
<path fill="none" d="M408.9923 605.2905 L236.0784 462.4812" clip-path="url(#clipPath2)"/>
<path d="M226.5368 454.6009 L232.6474 468.4021 L241.2442 457.9931 Z" clip-path="url(#clipPath2)" stroke="none"/>
<path fill="none" d="M408.9923 614.1417 L35.4364 526.0477" clip-path="url(#clipPath2)"/>
<path d="M23.3918 523.2072 L34.9821 532.8757 L38.0807 519.7361 Z" clip-path="url(#clipPath2)" stroke="none"/>
<path fill="none" d="M120.3864 490.5 L125.5127 224.6531" clip-path="url(#clipPath2)"/>
<path d="M125.7513 212.2804 L118.7423 225.6478 L132.2398 225.9081 Z" clip-path="url(#clipPath2)" stroke="none"/>
<path fill="none" d="M131.8206 520.5 L212.4517 623.6667" clip-path="url(#clipPath2)"/>
<path d="M220.0721 633.4171 L217.0773 618.6237 L206.4405 626.937 Z" clip-path="url(#clipPath2)" stroke="none"/>
<path fill="none" d="M105.0972 516.3857 L-7.0479 597.7711" clip-path="url(#clipPath2)"/>
<path d="M-17.0635 605.0395 L-2.1728 602.5733 L-10.102 591.6473 Z" clip-path="url(#clipPath2)" stroke="none"/>
<path fill="none" d="M135.0972 495.9424 L191.8845 459.7592" clip-path="url(#clipPath2)"/>
<path d="M202.321 453.1093 L187.3086 454.6711 L194.5629 466.0563 Z" clip-path="url(#clipPath2)" stroke="none"/>
<path fill="none" d="M-13.4762 -77.6591 L357.8204 -192.8816" clip-path="url(#clipPath2)"/>
<path d="M369.6394 -196.5493 L354.7454 -198.9949 L358.7465 -186.1014 Z" clip-path="url(#clipPath2)" stroke="none"/>
<path fill="none" d="M-13.4755 -79.9027 L-10.0479 -85.2193 L-8.8826 -88.9735 L-8.4762 -93.0042 L-8.8826 -97.0349 L-10.0479 -100.7891 L-11.8919 -104.1864 L-14.3341 -107.1463 L-17.294 -109.5885 L-20.6913 -111.4325 L-24.4455 -112.5979 L-28.4762 -113.0042 L-32.5069 -112.5979 L-36.2611 -111.4325 L-39.6584 -109.5885 L-42.6184 -107.1463 L-45.0605 -104.1864 L-46.9045 -100.7891 L-48.0699 -97.0349 L-48.4762 -93.0042 L-48.3042 -91.2973 L-48.259 -91.2081" clip-path="url(#clipPath2)"/>
<path d="M-42.6689 -80.1677 L-42.7451 -95.2609 L-54.7892 -89.1627 Z" clip-path="url(#clipPath2)" stroke="none"/>
<path fill="none" d="M229.9609 444.4902 L621.3294 429.9026" clip-path="url(#clipPath2)"/>
<path d="M633.6958 429.4416 L619.9537 423.1992 L620.4566 436.6898 Z" clip-path="url(#clipPath2)" stroke="none"/>
<path fill="none" d="M199.9753 444.7061 L-114.9794 437.5042" clip-path="url(#clipPath2)"/>
<path d="M-127.3512 437.2213 L-114.009 444.2781 L-113.7004 430.7817 Z" clip-path="url(#clipPath2)" stroke="none"/>
<path fill="none" d="M200.7543 440.2661 L26.7731 381.7361" clip-path="url(#clipPath2)"/>
<path d="M15.0441 377.7903 L25.6871 388.4925 L29.9917 375.6972 Z" clip-path="url(#clipPath2)" stroke="none"/>
<path fill="none" d="M263.3192 -62.6859 L489.4204 -29.7912" clip-path="url(#clipPath2)"/>
<path d="M501.6664 -28.0096 L489.2789 -36.6329 L487.3353 -23.2735 Z" clip-path="url(#clipPath2)" stroke="none"/>
<path fill="none" d="M419.5699 408.4309 L422.9975 403.1143 L424.1629 399.3601 L424.5692 395.3294 L424.1629 391.2987 L422.9976 387.5445 L421.1536 384.1472 L418.7114 381.1873 L415.7514 378.7451 L412.3542 376.9011 L408.5999 375.7357 L404.5692 375.3294 L400.5386 375.7357 L396.7844 376.9011 L393.3871 378.7451 L390.4271 381.1872 L387.9849 384.1472 L386.141 387.5445 L384.9756 391.2987 L384.5692 395.3294 L384.7413 397.0362 L384.7865 397.1254" clip-path="url(#clipPath2)"/>
<path d="M390.3766 408.1659 L390.3003 393.0726 L378.2562 399.1709 Z" clip-path="url(#clipPath2)" stroke="none"/>
<path fill="none" d="M419.5692 416.1621 L621.3398 427.3638" clip-path="url(#clipPath2)"/>
<path d="M633.6958 428.0498 L620.5907 420.5618 L619.8424 434.0411 Z" clip-path="url(#clipPath2)" stroke="none"/>
<path fill="none" d="M389.5692 417.6806 L242.0161 440.8097" clip-path="url(#clipPath2)"/>
<path d="M229.7904 442.726 L244.1728 447.304 L242.0822 433.9669 Z" clip-path="url(#clipPath2)" stroke="none"/>
<path fill="none" d="M389.5692 403.5865 L150.7847 216.6517" clip-path="url(#clipPath2)"/>
<path d="M141.0406 209.0233 L147.5097 222.6602 L155.8315 212.0301 Z" clip-path="url(#clipPath2)" stroke="none"/>
<path fill="none" d="M405.4221 400.3294 L413.8391 252.29" clip-path="url(#clipPath2)"/>
<path d="M414.5415 239.935 L407.0361 253.03 L420.5143 253.7964 Z" clip-path="url(#clipPath2)" stroke="none"/>
<path fill="none" d="M224.9712 359.8336 L218.1618 417.8605" clip-path="url(#clipPath2)"/>
<path d="M216.7196 430.1512 L224.997 417.5299 L211.589 415.9565 Z" clip-path="url(#clipPath2)" stroke="none"/>
<path fill="none" d="M241.7315 347.8214 L621.5592 423.4773" clip-path="url(#clipPath2)"/>
<path d="M633.6958 425.8947 L621.7745 416.6376 L619.1373 429.8775 Z" clip-path="url(#clipPath2)" stroke="none"/>
<path fill="none" d="M216.4954 329.8336 L143.252 222.5022" clip-path="url(#clipPath2)"/>
<path d="M136.2766 212.2804 L138.3106 227.2362 L149.4617 219.6267 Z" clip-path="url(#clipPath2)" stroke="none"/>
<path fill="none" d="M332.8195 162.4337 L390.5272 206.1129" clip-path="url(#clipPath2)"/>
<path d="M400.3944 213.5814 L393.7039 200.0518 L385.5565 210.816 Z" clip-path="url(#clipPath2)" stroke="none"/>
<path fill="none" d="M303.7473 155.2428 L153.0832 190.8833" clip-path="url(#clipPath2)"/>
<path d="M141.0406 193.7321 L155.7319 197.193 L152.6241 184.0556 Z" clip-path="url(#clipPath2)" stroke="none"/>
<path fill="none" d="M330.4926 131.7446 L362.9384 76.9895" clip-path="url(#clipPath2)"/>
<path d="M369.2469 66.3432 L356.5578 74.5163 L368.1719 81.3984 Z" clip-path="url(#clipPath2)" stroke="none"/>
<path fill="none" d="M401.7363 239.935 L233.4018 424.8077" clip-path="url(#clipPath2)"/>
<path d="M225.0702 433.9579 L239.1502 428.5204 L229.1683 419.4314 Z" clip-path="url(#clipPath2)" stroke="none"/>
<path fill="none" stroke-dasharray="none" d="M273.1899 35.4171 L148.0014 173.1237" clip-path="url(#clipPath2)"/>
<path stroke-dasharray="none" d="M139.677 182.2804 L153.7527 176.8318 L143.7635 167.7507 Z" clip-path="url(#clipPath2)" stroke="none"/>
<path fill="none" stroke-dasharray="none" d="M279.4175 6.8741 L259.3197 -39.7099" clip-path="url(#clipPath2)"/>
<path stroke-dasharray="none" d="M254.4176 -51.0726 L253.5676 -36.0031 L265.9632 -41.3509 Z" clip-path="url(#clipPath2)" stroke="none"/>
<path fill="none" stroke-dasharray="none" d="M-153.3773 270.7799 L-25.2624 355.9254" clip-path="url(#clipPath2)"/>
<path stroke-dasharray="none" d="M-14.9559 362.775 L-22.4631 349.681 L-29.9355 360.9243 Z" clip-path="url(#clipPath2)" stroke="none"/>
<path fill="none" stroke-dasharray="none" d="M-176.4576 273.3122 L-195.0059 333.9636" clip-path="url(#clipPath2)"/>
<path stroke-dasharray="none" d="M-198.6249 345.7976 L-188.222 334.8618 L-201.1318 330.9138 Z" clip-path="url(#clipPath2)" stroke="none"/>
<path fill="none" stroke-dasharray="none" d="M415.0836 -217.2806 L416.6098 -224.9189 L416.2035 -228.9496 L415.0381 -232.7038 L413.1941 -236.1011 L410.752 -239.061 L407.792 -241.5032 L404.3947 -243.3472 L400.6405 -244.5126 L396.6098 -244.9189 L392.5791 -244.5126 L388.8249 -243.3472 L385.4276 -241.5032 L382.4677 -239.061 L380.0255 -236.1011 L378.1815 -232.7038 L377.2249 -229.6221 L377.2344 -229.5225" clip-path="url(#clipPath2)"/>
<path stroke-dasharray="none" d="M378.4164 -217.2041 L383.8461 -231.2871 L370.4079 -229.9976 Z" clip-path="url(#clipPath2)" stroke="none"/>
<path fill="none" stroke-dasharray="none" d="M382.3541 -191.4389 L268.3662 -83.6538" clip-path="url(#clipPath2)"/>
<path stroke-dasharray="none" d="M259.3745 -75.1514 L273.8213 -79.5222 L264.546 -89.3312 Z" clip-path="url(#clipPath2)" stroke="none"/>
<path fill="none" stroke-dasharray="none" d="M590.4136 507.6437 L241.9736 449.5508" clip-path="url(#clipPath2)"/>
<path stroke-dasharray="none" d="M229.7671 447.5157 L241.9733 456.394 L244.1934 443.0778 Z" clip-path="url(#clipPath2)" stroke="none"/>
<path fill="none" stroke-dasharray="none" d="M-331.7401 52.7561 L-266.9275 96.3711" clip-path="url(#clipPath2)"/>
<path stroke-dasharray="none" d="M-256.6607 103.2801 L-264.0923 90.143 L-271.6293 101.3431 Z" clip-path="url(#clipPath2)" stroke="none"/>
<path fill="none" stroke-dasharray="none" d="M261.5379 -57.4715 L616.6483 142.9941" clip-path="url(#clipPath2)"/>
<path fill="none" stroke-dasharray="none" d="M234.1285 -69.2229 L-114.1913 -175.4996" clip-path="url(#clipPath2)"/>
<path fill="none" stroke-dasharray="none" d="M163.9636 -247.2868 L512.9911 -35.4401" clip-path="url(#clipPath2)"/>
<path fill="none" stroke-dasharray="none" d="M130.0559 -2.5564 L235.2 -57.8625" clip-path="url(#clipPath2)"/>
<path fill="none" stroke-dasharray="none" d="M161.9178 -243.1655 L241.9253 -78.3397" clip-path="url(#clipPath2)"/>
</g>
<g fill="white" transform="matrix(1,0,0,1,423,331)" stroke="white">
<circle r="15" clip-path="url(#clipPath2)" cx="-26.8986" cy="25.1622" stroke="none"/>
</g>
<g fill="rgb(110,110,110)" stroke-miterlimit="1.45" transform="matrix(1,0,0,1,423,331)" stroke-linecap="butt" stroke="rgb(110,110,110)">
<circle fill="none" r="15" clip-path="url(#clipPath2)" cx="-26.8986" cy="25.1622"/>
</g>
<g font-family="'Arial'" font-size="16" transform="matrix(1,0,0,1,423,331)">
<text x="-49.3986" xml:space="preserve" y="30.9708" clip-path="url(#clipPath2)" stroke="none">TIMP1</text>
</g>
<g fill="white" transform="matrix(1,0,0,1,423,331)" stroke="white">
<rect x="211.7315" width="30" height="30" y="329.8336" clip-path="url(#clipPath2)" stroke="none"/>
</g>
<g fill="rgb(110,110,110)" stroke-miterlimit="1.45" transform="matrix(1,0,0,1,423,331)" stroke-linecap="butt" stroke="rgb(110,110,110)">
<rect fill="none" x="211.7315" width="30" height="30" y="329.8336" clip-path="url(#clipPath2)"/>
</g>
<g font-family="'Arial'" font-size="16" transform="matrix(1,0,0,1,423,331)">
<text x="211.7315" xml:space="preserve" y="350.6422" clip-path="url(#clipPath2)" stroke="none">IL27</text>
</g>
<g fill="white" transform="matrix(1,0,0,1,423,331)" stroke="white">
<rect x="400.3944" width="30" height="30" y="209.935" clip-path="url(#clipPath2)" stroke="none"/>
</g>
<g fill="rgb(110,110,110)" stroke-miterlimit="1.45" transform="matrix(1,0,0,1,423,331)" stroke-linecap="butt" stroke="rgb(110,110,110)">
<rect fill="none" x="400.3944" width="30" height="30" y="209.935" clip-path="url(#clipPath2)"/>
</g>
<g font-family="'Arial'" font-size="16" transform="matrix(1,0,0,1,423,331)">
<text x="397.3944" xml:space="preserve" y="230.7436" clip-path="url(#clipPath2)" stroke="none">IFNG</text>
</g>
<g fill="white" transform="matrix(1,0,0,1,423,331)" stroke="white">
<rect x="363.1353" width="30" height="30" y="36.3432" clip-path="url(#clipPath2)" stroke="none"/>
</g>
<g fill="rgb(110,110,110)" stroke-miterlimit="1.45" transform="matrix(1,0,0,1,423,331)" stroke-linecap="butt" stroke="rgb(110,110,110)">
<rect fill="none" x="363.1353" width="30" height="30" y="36.3432" clip-path="url(#clipPath2)"/>
</g>
<g font-family="'Arial'" font-size="16" transform="matrix(1,0,0,1,423,331)">
<text x="357.1353" xml:space="preserve" y="57.1518" clip-path="url(#clipPath2)" stroke="none">CCL4</text>
</g>
<g fill="rgb(255,210,210)" transform="matrix(1,0,0,1,423,331)" stroke="rgb(255,210,210)">
<circle r="15" clip-path="url(#clipPath2)" cx="229.3091" cy="645.2357" stroke="none"/>
</g>
<g fill="rgb(110,110,110)" stroke-miterlimit="1.45" transform="matrix(1,0,0,1,423,331)" stroke-linecap="butt" stroke="rgb(110,110,110)">
<circle fill="none" r="15" clip-path="url(#clipPath2)" cx="229.3091" cy="645.2357"/>
</g>
<g font-family="'Arial'" font-size="16" transform="matrix(1,0,0,1,423,331)">
<text x="202.8091" xml:space="preserve" y="651.0443" clip-path="url(#clipPath2)" stroke="none">MTSS1</text>
</g>
<g fill="white" transform="matrix(1,0,0,1,423,331)" stroke="white">
<circle r="15" clip-path="url(#clipPath2)" cx="-244.2161" cy="111.6545" stroke="none"/>
</g>
<g fill="rgb(110,110,110)" stroke-miterlimit="1.45" transform="matrix(1,0,0,1,423,331)" stroke-linecap="butt" stroke="rgb(110,110,110)">
<circle fill="none" r="15" clip-path="url(#clipPath2)" cx="-244.2161" cy="111.6545"/>
</g>
<g font-family="'Arial'" font-size="16" transform="matrix(1,0,0,1,423,331)">
<text x="-272.2161" xml:space="preserve" y="117.4631" clip-path="url(#clipPath2)" stroke="none">CCND2</text>
</g>
<g fill="rgb(255,105,105)" transform="matrix(1,0,0,1,423,331)" stroke="rgb(255,105,105)">
<ellipse rx="32.5" ry="15" clip-path="url(#clipPath2)" cx="612.5" cy="255.5" stroke="none"/>
</g>
<g fill="rgb(110,110,110)" stroke-miterlimit="1.45" transform="matrix(1,0,0,1,423,331)" stroke-linecap="butt" stroke="rgb(110,110,110)">
<ellipse rx="32.5" fill="none" ry="15" clip-path="url(#clipPath2)" cx="612.5" cy="255.5"/>
</g>
<g font-family="'Arial'" font-size="16" transform="matrix(1,0,0,1,423,331)">
<text x="578" xml:space="preserve" y="261.3086" clip-path="url(#clipPath2)" stroke="none">SREBF2*</text>
</g>
<g fill="rgb(156,255,156)" transform="matrix(1,0,0,1,423,331)" stroke="rgb(156,255,156)">
<circle r="15" clip-path="url(#clipPath2)" cx="214.9713" cy="445.049" stroke="none"/>
</g>
<g fill="rgb(110,110,110)" stroke-miterlimit="1.45" transform="matrix(1,0,0,1,423,331)" stroke-linecap="butt" stroke="rgb(110,110,110)">
<circle fill="none" r="15" clip-path="url(#clipPath2)" cx="214.9713" cy="445.049"/>
</g>
<g font-family="'Arial'" font-size="16" transform="matrix(1,0,0,1,423,331)">
<text x="187.4713" xml:space="preserve" y="450.8575" clip-path="url(#clipPath2)" stroke="none">SOCS1</text>
</g>
<g fill="white" transform="matrix(1,0,0,1,423,331)" stroke="white">
<path d="M611.5167 163.565 L619.0168 133.565 L634.0167 133.565 L641.5168 163.565 Z" clip-path="url(#clipPath2)" fill-rule="evenodd" stroke="none"/>
</g>
<g fill="rgb(110,110,110)" stroke-miterlimit="1.45" transform="matrix(1,0,0,1,423,331)" stroke-linecap="butt" stroke="rgb(110,110,110)">
<path fill="none" d="M611.5167 163.565 L619.0168 133.565 L634.0167 133.565 L641.5168 163.565 Z" fill-rule="evenodd" clip-path="url(#clipPath2)"/>
</g>
<g font-family="'Arial'" font-size="16" transform="matrix(1,0,0,1,423,331)">
<text x="600.0168" xml:space="preserve" y="154.3736" clip-path="url(#clipPath2)" stroke="none">RASA1</text>
</g>
<g fill="rgb(128,255,128)" transform="matrix(1,0,0,1,423,331)" stroke="rgb(128,255,128)">
<ellipse rx="32.5" ry="15" clip-path="url(#clipPath2)" cx="-350.1224" cy="40.386" stroke="none"/>
</g>
<g fill="rgb(110,110,110)" stroke-miterlimit="1.45" transform="matrix(1,0,0,1,423,331)" stroke-linecap="butt" stroke="rgb(110,110,110)">
<ellipse rx="32.5" fill="none" ry="15" clip-path="url(#clipPath2)" cx="-350.1224" cy="40.386"/>
</g>
<g font-family="'Arial'" font-size="16" transform="matrix(1,0,0,1,423,331)">
<text x="-378.1224" xml:space="preserve" y="46.1946" clip-path="url(#clipPath2)" stroke="none">PSMC5</text>
</g>
<g fill="white" transform="matrix(1,0,0,1,423,331)" stroke="white">
<ellipse rx="32.5" ry="15" clip-path="url(#clipPath2)" cx="285.7643" cy="21.5853" stroke="none"/>
</g>
<g fill="rgb(110,110,110)" stroke-miterlimit="1.45" transform="matrix(1,0,0,1,423,331)" stroke-linecap="butt" stroke="rgb(110,110,110)">
<ellipse rx="32.5" fill="none" ry="15" clip-path="url(#clipPath2)" cx="285.7643" cy="21.5853"/>
</g>
<g font-family="'Arial'" font-size="16" transform="matrix(1,0,0,1,423,331)">
<text x="252.2643" xml:space="preserve" y="27.3939" clip-path="url(#clipPath2)" stroke="none">CREBBP</text>
</g>
<g fill="white" transform="matrix(1,0,0,1,423,331)" stroke="white">
<ellipse rx="32.5" ry="15" clip-path="url(#clipPath2)" cx="-256.2608" cy="-112.6301" stroke="none"/>
</g>
<g fill="rgb(110,110,110)" stroke-miterlimit="1.45" transform="matrix(1,0,0,1,423,331)" stroke-linecap="butt" stroke="rgb(110,110,110)">
<ellipse rx="32.5" fill="none" ry="15" clip-path="url(#clipPath2)" cx="-256.2608" cy="-112.6301"/>
</g>
<g font-family="'Arial'" font-size="16" transform="matrix(1,0,0,1,423,331)">
<text x="-268.2608" xml:space="preserve" y="-106.8215" clip-path="url(#clipPath2)" stroke="none">ID1</text>
</g>
<g fill="rgb(255,104,104)" transform="matrix(1,0,0,1,423,331)" stroke="rgb(255,104,104)">
<rect x="-182.0455" width="30" height="30" y="-29.4594" clip-path="url(#clipPath2)" stroke="none"/>
</g>
<g fill="rgb(110,110,110)" stroke-dasharray="6,2" stroke-miterlimit="1.45" transform="matrix(1,0,0,1,423,331)" stroke-linecap="butt" stroke="rgb(110,110,110)">
<rect fill="none" x="-182.0455" width="30" height="30" y="-29.4594" clip-path="url(#clipPath2)"/>
</g>
<g font-family="'Arial'" font-size="16" transform="matrix(1,0,0,1,423,331)">
<text x="-189.0455" xml:space="preserve" y="-8.6508" clip-path="url(#clipPath2)" stroke="none">BMP2</text>
</g>
<g fill="white" transform="matrix(1,0,0,1,423,331)" stroke="white">
<ellipse rx="32.5" ry="15" clip-path="url(#clipPath2)" cx="-171.9154" cy="258.4594" stroke="none"/>
</g>
<g fill="rgb(110,110,110)" stroke-miterlimit="1.45" transform="matrix(1,0,0,1,423,331)" stroke-linecap="butt" stroke="rgb(110,110,110)">
<ellipse rx="32.5" fill="none" ry="15" clip-path="url(#clipPath2)" cx="-171.9154" cy="258.4594"/>
</g>
<g font-family="'Arial'" font-size="16" transform="matrix(1,0,0,1,423,331)">
<text x="-199.9154" xml:space="preserve" y="264.268" clip-path="url(#clipPath2)" stroke="none">SMAD1</text>
</g>
<g fill="rgb(221,255,221)" transform="matrix(1,0,0,1,423,331)" stroke="rgb(221,255,221)">
<circle r="15" clip-path="url(#clipPath2)" cx="-276.151" cy="208.6259" stroke="none"/>
</g>
<g fill="rgb(110,110,110)" stroke-miterlimit="1.45" transform="matrix(1,0,0,1,423,331)" stroke-linecap="butt" stroke="rgb(110,110,110)">
<circle fill="none" r="15" clip-path="url(#clipPath2)" cx="-276.151" cy="208.6259"/>
</g>
<g font-family="'Arial'" font-size="16" transform="matrix(1,0,0,1,423,331)">
<text x="-302.6511" xml:space="preserve" y="214.4345" clip-path="url(#clipPath2)" stroke="none">SEPP1</text>
</g>
<g fill="white" transform="matrix(1,0,0,1,423,331)" stroke="white">
<rect x="-43.4762" width="30" height="30" y="-88.0042" clip-path="url(#clipPath2)" stroke="none"/>
</g>
<g fill="rgb(110,110,110)" stroke-dasharray="6,2" stroke-miterlimit="1.45" transform="matrix(1,0,0,1,423,331)" stroke-linecap="butt" stroke="rgb(110,110,110)">
<rect fill="none" x="-43.4762" width="30" height="30" y="-88.0042" clip-path="url(#clipPath2)"/>
</g>
<g font-family="'Arial'" font-size="16" transform="matrix(1,0,0,1,423,331)">
<text x="-53.9762" xml:space="preserve" y="-67.1956" clip-path="url(#clipPath2)" stroke="none">TGFB1</text>
</g>
<g fill="white" transform="matrix(1,0,0,1,423,331)" stroke="white">
<rect x="633.6958" width="30" height="30" y="413.8825" clip-path="url(#clipPath2)" stroke="none"/>
</g>
<g fill="rgb(110,110,110)" stroke-miterlimit="1.45" transform="matrix(1,0,0,1,423,331)" stroke-linecap="butt" stroke="rgb(110,110,110)">
<rect fill="none" x="633.6958" width="30" height="30" y="413.8825" clip-path="url(#clipPath2)"/>
</g>
<g font-family="'Arial'" font-size="16" transform="matrix(1,0,0,1,423,331)">
<text x="617.6958" xml:space="preserve" y="434.6911" clip-path="url(#clipPath2)" stroke="none">CXCL10</text>
</g>
<g fill="rgb(255,155,155)" transform="matrix(1,0,0,1,423,331)" stroke="rgb(255,155,155)">
<ellipse rx="15" ry="32.5" clip-path="url(#clipPath2)" cx="318.6587" cy="151.7154" stroke="none"/>
</g>
<g fill="rgb(110,110,110)" stroke-miterlimit="1.45" transform="matrix(1,0,0,1,423,331)" stroke-linecap="butt" stroke="rgb(110,110,110)">
<ellipse rx="15" fill="none" ry="32.5" clip-path="url(#clipPath2)" cx="318.6587" cy="151.7154"/>
</g>
<g font-family="'Arial'" font-size="16" transform="matrix(1,0,0,1,423,331)">
<text x="293.1588" xml:space="preserve" y="157.524" clip-path="url(#clipPath2)" stroke="none">ULBP2</text>
</g>
<g fill="white" transform="matrix(1,0,0,1,423,331)" stroke="white">
<path d="M-166.2245 -181.4595 L-133.7245 -196.4595 L-101.2245 -181.4595 L-133.7245 -166.4595 Z" clip-path="url(#clipPath2)" fill-rule="evenodd" stroke="none"/>
</g>
<g fill="rgb(110,110,110)" stroke-miterlimit="1.45" transform="matrix(1,0,0,1,423,331)" stroke-linecap="butt" stroke="rgb(110,110,110)">
<path fill="none" d="M-166.2245 -181.4595 L-133.7245 -196.4595 L-101.2245 -181.4595 L-133.7245 -166.4595 Z" fill-rule="evenodd" clip-path="url(#clipPath2)"/>
</g>
<g font-family="'Arial'" font-size="16" transform="matrix(1,0,0,1,423,331)">
<text x="-160.7245" xml:space="preserve" y="-175.6508" clip-path="url(#clipPath2)" stroke="none">CASP9</text>
</g>
<g fill="rgb(255,224,224)" transform="matrix(1,0,0,1,423,331)" stroke="rgb(255,224,224)">
<ellipse rx="32.5" ry="15" clip-path="url(#clipPath2)" cx="-203.1671" cy="360.6503" stroke="none"/>
</g>
<g fill="rgb(110,110,110)" stroke-miterlimit="1.45" transform="matrix(1,0,0,1,423,331)" stroke-linecap="butt" stroke="rgb(110,110,110)">
<ellipse rx="32.5" fill="none" ry="15" clip-path="url(#clipPath2)" cx="-203.1671" cy="360.6503"/>
</g>
<g font-family="'Arial'" font-size="16" transform="matrix(1,0,0,1,423,331)">
<text x="-223.6671" xml:space="preserve" y="366.459" clip-path="url(#clipPath2)" stroke="none">BTG2</text>
</g>
<g fill="white" transform="matrix(1,0,0,1,423,331)" stroke="white">
<ellipse rx="15" ry="32.5" clip-path="url(#clipPath2)" cx="-142.3503" cy="436.8783" stroke="none"/>
</g>
<g fill="rgb(110,110,110)" stroke-miterlimit="1.45" transform="matrix(1,0,0,1,423,331)" stroke-linecap="butt" stroke="rgb(110,110,110)">
<ellipse rx="15" fill="none" ry="32.5" clip-path="url(#clipPath2)" cx="-142.3503" cy="436.8783"/>
</g>
<g font-family="'Arial'" font-size="16" transform="matrix(1,0,0,1,423,331)">
<text x="-161.3504" xml:space="preserve" y="442.6869" clip-path="url(#clipPath2)" stroke="none">TLR3</text>
</g>
<g fill="white" transform="matrix(1,0,0,1,423,331)" stroke="white">
<rect x="-14.9559" width="30" height="30" y="357.7441" clip-path="url(#clipPath2)" stroke="none"/>
</g>
<g fill="rgb(110,110,110)" stroke-miterlimit="1.45" transform="matrix(1,0,0,1,423,331)" stroke-linecap="butt" stroke="rgb(110,110,110)">
<rect fill="none" x="-14.9559" width="30" height="30" y="357.7441" clip-path="url(#clipPath2)"/>
</g>
<g font-family="'Arial'" font-size="16" transform="matrix(1,0,0,1,423,331)">
<text x="-26.4559" xml:space="preserve" y="378.5526" clip-path="url(#clipPath2)" stroke="none">CXCL2</text>
</g>
<g fill="white" transform="matrix(1,0,0,1,423,331)" stroke="white">
<ellipse rx="32.5" ry="15" clip-path="url(#clipPath2)" cx="620.9804" cy="512.7399" stroke="none"/>
</g>
<g fill="rgb(110,110,110)" stroke-miterlimit="1.45" transform="matrix(1,0,0,1,423,331)" stroke-linecap="butt" stroke="rgb(110,110,110)">
<ellipse rx="32.5" fill="none" ry="15" clip-path="url(#clipPath2)" cx="620.9804" cy="512.7399"/>
</g>
<g font-family="'Arial'" font-size="16" transform="matrix(1,0,0,1,423,331)">
<text x="596.4804" xml:space="preserve" y="518.5485" clip-path="url(#clipPath2)" stroke="none">STAT6</text>
</g>
<g fill="white" transform="matrix(1,0,0,1,423,331)" stroke="white">
<ellipse rx="32.5" ry="15" clip-path="url(#clipPath2)" cx="396.6098" cy="-204.9189" stroke="none"/>
</g>
<g fill="rgb(110,110,110)" stroke-miterlimit="1.45" transform="matrix(1,0,0,1,423,331)" stroke-linecap="butt" stroke="rgb(110,110,110)">
<ellipse rx="32.5" fill="none" ry="15" clip-path="url(#clipPath2)" cx="396.6098" cy="-204.9189"/>
</g>
<g font-family="'Arial'" font-size="16" transform="matrix(1,0,0,1,423,331)">
<text x="377.1098" xml:space="preserve" y="-199.1103" clip-path="url(#clipPath2)" stroke="none">E2F1</text>
</g>
<g fill="white" transform="matrix(1,0,0,1,423,331)" stroke="white">
<rect x="111.0406" width="30" height="30" y="182.2804" clip-path="url(#clipPath2)" stroke="none"/>
</g>
<g fill="rgb(110,110,110)" stroke-miterlimit="1.45" transform="matrix(1,0,0,1,423,331)" stroke-linecap="butt" stroke="rgb(110,110,110)">
<rect fill="none" x="111.0406" width="30" height="30" y="182.2804" clip-path="url(#clipPath2)"/>
</g>
<g font-family="'Arial'" font-size="16" transform="matrix(1,0,0,1,423,331)">
<text x="111.0406" xml:space="preserve" y="203.089" clip-path="url(#clipPath2)" stroke="none">TNF</text>
</g>
<g fill="white" transform="matrix(1,0,0,1,423,331)" stroke="white">
<ellipse rx="32.5" ry="15" clip-path="url(#clipPath2)" cx="532.6629" cy="-23.5" stroke="none"/>
</g>
<g fill="rgb(110,110,110)" stroke-miterlimit="1.45" transform="matrix(1,0,0,1,423,331)" stroke-linecap="butt" stroke="rgb(110,110,110)">
<ellipse rx="32.5" fill="none" ry="15" clip-path="url(#clipPath2)" cx="532.6629" cy="-23.5"/>
</g>
<g font-family="'Arial'" font-size="16" transform="matrix(1,0,0,1,423,331)">
<text x="513.663" xml:space="preserve" y="-17.6914" clip-path="url(#clipPath2)" stroke="none">TP73</text>
</g>
<g fill="white" transform="matrix(1,0,0,1,423,331)" stroke="white">
<rect x="408.9923" width="30" height="30" y="602.679" clip-path="url(#clipPath2)" stroke="none"/>
</g>
<g fill="rgb(110,110,110)" stroke-miterlimit="1.45" transform="matrix(1,0,0,1,423,331)" stroke-linecap="butt" stroke="rgb(110,110,110)">
<rect fill="none" x="408.9923" width="30" height="30" y="602.679" clip-path="url(#clipPath2)"/>
</g>
<g font-family="'Arial'" font-size="16" transform="matrix(1,0,0,1,423,331)">
<text x="401.9923" xml:space="preserve" y="623.4876" clip-path="url(#clipPath2)" stroke="none">IFNA2</text>
</g>
<g fill="rgb(221,255,221)" transform="matrix(1,0,0,1,423,331)" stroke="rgb(221,255,221)">
<circle r="15" clip-path="url(#clipPath2)" cx="-29.2035" cy="613.8497" stroke="none"/>
</g>
<g fill="rgb(110,110,110)" stroke-miterlimit="1.45" transform="matrix(1,0,0,1,423,331)" stroke-linecap="butt" stroke="rgb(110,110,110)">
<circle fill="none" r="15" clip-path="url(#clipPath2)" cx="-29.2035" cy="613.8497"/>
</g>
<g font-family="'Arial'" font-size="16" transform="matrix(1,0,0,1,423,331)">
<text x="-46.2035" xml:space="preserve" y="619.6583" clip-path="url(#clipPath2)" stroke="none">GSN</text>
</g>
<g fill="rgb(255,51,51)" transform="matrix(1,0,0,1,423,331)" stroke="rgb(255,51,51)">
<circle r="15" clip-path="url(#clipPath2)" cx="8.7923" cy="519.7643" stroke="none"/>
</g>
<g fill="rgb(110,110,110)" stroke-miterlimit="1.45" transform="matrix(1,0,0,1,423,331)" stroke-linecap="butt" stroke="rgb(110,110,110)">
<circle fill="none" r="15" clip-path="url(#clipPath2)" cx="8.7923" cy="519.7643"/>
</g>
<g font-family="'Arial'" font-size="16" transform="matrix(1,0,0,1,423,331)">
<text x="-23.2077" xml:space="preserve" y="525.5729" clip-path="url(#clipPath2)" stroke="none">PMAIP1*</text>
</g>
<g fill="rgb(72,255,72)" transform="matrix(1,0,0,1,423,331)" stroke="rgb(72,255,72)">
<circle r="15" clip-path="url(#clipPath2)" cx="248.4755" cy="-64.8455" stroke="none"/>
</g>
<g fill="rgb(110,110,110)" stroke-miterlimit="1.45" transform="matrix(1,0,0,1,423,331)" stroke-linecap="butt" stroke="rgb(110,110,110)">
<circle fill="none" r="15" clip-path="url(#clipPath2)" cx="248.4755" cy="-64.8455"/>
</g>
<g font-family="'Arial'" font-size="16" transform="matrix(1,0,0,1,423,331)">
<text x="225.4755" xml:space="preserve" y="-59.0369" clip-path="url(#clipPath2)" stroke="none">BIRC5</text>
</g>
<g fill="white" transform="matrix(1,0,0,1,423,331)" stroke="white">
<rect x="105.0972" width="30" height="30" y="490.5" clip-path="url(#clipPath2)" stroke="none"/>
</g>
<g fill="rgb(110,110,110)" stroke-miterlimit="1.45" transform="matrix(1,0,0,1,423,331)" stroke-linecap="butt" stroke="rgb(110,110,110)">
<rect fill="none" x="105.0972" width="30" height="30" y="490.5" clip-path="url(#clipPath2)"/>
</g>
<g font-family="'Arial'" font-size="16" transform="matrix(1,0,0,1,423,331)">
<text x="105.0972" xml:space="preserve" y="511.3086" clip-path="url(#clipPath2)" stroke="none">IL13</text>
</g>
<g fill="white" transform="matrix(1,0,0,1,423,331)" stroke="white">
<rect x="389.5692" width="30" height="30" y="400.3294" clip-path="url(#clipPath2)" stroke="none"/>
</g>
<g fill="rgb(110,110,110)" stroke-miterlimit="1.45" transform="matrix(1,0,0,1,423,331)" stroke-linecap="butt" stroke="rgb(110,110,110)">
<rect fill="none" x="389.5692" width="30" height="30" y="400.3294" clip-path="url(#clipPath2)"/>
</g>
<g font-family="'Arial'" font-size="16" transform="matrix(1,0,0,1,423,331)">
<text x="389.5692" xml:space="preserve" y="421.138" clip-path="url(#clipPath2)" stroke="none">IL21</text>
</g>
<g fill="white" transform="matrix(1,0,0,1,423,331)" stroke="white">
<path d="M143.2273 -265.7686 L173.2272 -265.7686 L158.2273 -235.7685 Z" clip-path="url(#clipPath2)" fill-rule="evenodd" stroke="none"/>
</g>
<g fill="rgb(110,110,110)" stroke-miterlimit="1.45" transform="matrix(1,0,0,1,423,331)" stroke-linecap="butt" stroke="rgb(110,110,110)">
<path fill="none" d="M143.2273 -265.7686 L173.2272 -265.7686 L158.2273 -235.7685 Z" fill-rule="evenodd" clip-path="url(#clipPath2)"/>
</g>
<g font-family="'Arial'" font-size="16" transform="matrix(1,0,0,1,423,331)">
<text x="135.7273" xml:space="preserve" y="-244.9599" clip-path="url(#clipPath2)" stroke="none">CDC2</text>
</g>
<g fill="white" transform="matrix(1,0,0,1,423,331)" stroke="white">
<circle r="15" clip-path="url(#clipPath2)" cx="116.7804" cy="4.4266" stroke="none"/>
</g>
<g fill="rgb(110,110,110)" stroke-miterlimit="1.45" transform="matrix(1,0,0,1,423,331)" stroke-linecap="butt" stroke="rgb(110,110,110)">
<circle fill="none" r="15" clip-path="url(#clipPath2)" cx="116.7804" cy="4.4266"/>
</g>
<g font-family="'Arial'" font-size="16" transform="matrix(1,0,0,1,423,331)">
<text x="93.7804" xml:space="preserve" y="10.2352" clip-path="url(#clipPath2)" stroke="none">BIRC2</text>
</g>
<g fill="rgb(204,255,204)" transform="matrix(1,0,0,1,423,331)" stroke="rgb(204,255,204)">
<path d="M14.3532 -277.7154 L29.3532 -247.7154 L-0.6468 -247.7154 Z" clip-path="url(#clipPath2)" fill-rule="evenodd" stroke="none"/>
</g>
<g fill="rgb(110,110,110)" stroke-miterlimit="1.45" transform="matrix(1,0,0,1,423,331)" stroke-linecap="butt" stroke="rgb(110,110,110)">
<path fill="none" d="M14.3532 -277.7154 L29.3532 -247.7154 L-0.6468 -247.7154 Z" fill-rule="evenodd" clip-path="url(#clipPath2)"/>
</g>
<g font-family="'Arial'" font-size="16" transform="matrix(1,0,0,1,423,331)">
<text x="-13.1469" xml:space="preserve" y="-256.9068" clip-path="url(#clipPath2)" stroke="none">CDKN3</text>
</g>
<g fill="white" font-family="'新細明體'" transform="matrix(1,0,0,1,423,331) translate(-423,-332)" stroke="white">
<rect x="0" width="1153" height="30" y="0" clip-path="url(#clipPath3)" stroke="none"/>
</g>
<g fill="blue" font-size="16" font-family="'Arial'" transform="matrix(1,0,0,1,423,331) translate(-423,-332)" stroke="blue">
<text x="2" xml:space="preserve" y="17" clip-path="url(#clipPath3)" stroke="none">Network 2 : Observation 1 : lung_cord.txt : Observation 1</text>
</g>
<g fill="white" font-family="'Arial'" transform="matrix(1,0,0,1,423,331) translate(-423,700)" stroke="white">
<rect x="0" width="1145" height="27" y="0" clip-path="url(#clipPath4)" stroke="none"/>
<text fill="blue" x="3" xml:space="preserve" y="21" clip-path="url(#clipPath4)" stroke="none"> © 2000-2009 Ingenuity Systems, Inc. All rights reserved.</text>
</g>
<g fill="white" font-family="'Arial'" transform="matrix(1,0,0,1,423,331) translate(-423,700)" stroke="white">
<rect fill="none" x="0" width="1144" height="26" y="0" clip-path="url(#clipPath4)"/>
<rect fill="none" x="1" width="1142" height="24" y="1" clip-path="url(#clipPath4)"/>
<rect fill="none" x="2" width="1140" height="22" y="2" clip-path="url(#clipPath4)"/>
</g>
</g>
</svg>
