<?xml version="1.0" encoding="UTF-8"?>
<svg xmlns:xlink="http://www.w3.org/1999/xlink" xmlns="http://www.w3.org/2000/svg" fill-opacity="1" color-rendering="auto" color-interpolation="auto" stroke="black" text-rendering="auto" stroke-linecap="square" width="1370" stroke-miterlimit="10" stroke-opacity="1" shape-rendering="auto" fill="black" stroke-dasharray="none" font-weight="normal" stroke-width="1" height="1234" font-family="'Dialog'" font-style="normal" stroke-linejoin="miter" font-size="12" stroke-dashoffset="0" image-rendering="auto">
<!--Generated by ySVG-->
<defs id="genericDefs"/>
<g>
<defs id="defs1">
<clipPath clipPathUnits="userSpaceOnUse" id="clipPath1">
<path d="M0 0 L1370 0 L1370 1234 L0 1234 L0 0 Z"/>
</clipPath>
<clipPath clipPathUnits="userSpaceOnUse" id="clipPath2">
<path d="M-397 -396 L973 -396 L973 838 L-397 838 L-397 -396 Z"/>
</clipPath>
<clipPath clipPathUnits="userSpaceOnUse" id="clipPath3">
<path d="M0 1 L1370 1 L1370 1235 L0 1235 L0 1 Z"/>
</clipPath>
<clipPath clipPathUnits="userSpaceOnUse" id="clipPath4">
<path d="M0 -1209 L1370 -1209 L1370 25 L0 25 L0 -1209 Z"/>
</clipPath>
</defs>
<g fill="white" transform="translate(397,396)" stroke="white">
<rect x="-397" width="1370" height="1234" y="-396" clip-path="url(#clipPath2)" stroke="none"/>
</g>
<g stroke-linecap="butt" transform="matrix(1,0,0,1,397,396)" fill="rgb(110,110,110)" stroke-dasharray="12,4" stroke="rgb(110,110,110)" stroke-width="2" stroke-miterlimit="1.45">
<path fill="none" d="M286.446 605.8395 L284.203 681.4587" clip-path="url(#clipPath2)"/>
<path d="M283.8362 693.8283 L290.9834 680.5344 L277.4893 680.1341 Z" clip-path="url(#clipPath2)" stroke="none"/>
<path fill="none" stroke-dasharray="none" d="M-33.1511 40.5925 L53.3775 19.8744" clip-path="url(#clipPath2)"/>
<path stroke-dasharray="none" d="M65.4123 16.9928 L50.7117 13.5719 L53.8552 26.7008 Z" clip-path="url(#clipPath2)" stroke="none"/>
<path fill="none" stroke-dasharray="none" d="M-269.0931 -58.2374 L-322.6233 -163.4682" clip-path="url(#clipPath2)"/>
<path fill="none" stroke-dasharray="none" d="M-257.2155 -58.4514 L-223.8322 -173.7468" clip-path="url(#clipPath2)"/>
<path fill="none" stroke-dasharray="none" d="M-196.4087 -291.5588 L-216.3696 -202.7896" clip-path="url(#clipPath2)"/>
<path fill="none" stroke-dasharray="none" d="M-317.7118 -173.2218 L-130.4932 -94.9122" clip-path="url(#clipPath2)"/>
<path fill="none" stroke-dasharray="none" d="M-251.1268 -46.7259 L-130.9608 -84.6135" clip-path="url(#clipPath2)"/>
<path fill="none" stroke-dasharray="none" d="M-321.1077 -187.0052 L-207.6996 -292.8725" clip-path="url(#clipPath2)"/>
<path fill="none" stroke-dasharray="none" d="M-187.7671 -291.5654 L-121.6263 -103.2762" clip-path="url(#clipPath2)"/>
<path fill="none" stroke-dasharray="none" d="M-234.6032 -186.8461 L-319.2779 -179.429" clip-path="url(#clipPath2)"/>
<path fill="none" stroke-dasharray="none" d="M197.5333 -83.591 L124.814 -84.0328" clip-path="url(#clipPath2)"/>
<path fill="none" stroke-dasharray="none" d="M-26.7046 -87.242 L94.814 -84.4666" clip-path="url(#clipPath2)"/>
<path fill="none" stroke-dasharray="none" d="M94.814 -104.7128 L17.8327 -210.3763" clip-path="url(#clipPath2)"/>
<path fill="none" stroke-dasharray="none" d="M90.7588 -327.6837 L124.7787 -236.0619" clip-path="url(#clipPath2)"/>
</g>
<g fill="rgb(250,146,23)" stroke-width="3" stroke-miterlimit="1.45" transform="matrix(1,0,0,1,397,396)" stroke-linecap="butt" stroke="rgb(250,146,23)">
<path fill="none" d="M114.5722 -116.624 L127.8271 -207.1582" clip-path="url(#clipPath2)"/>
<path fill="none" d="M84.3812 -0.8459 L99.8886 -51.624" clip-path="url(#clipPath2)"/>
<path fill="none" d="M-101.6582 -88.8144 L-49.221 -87.7317" clip-path="url(#clipPath2)"/>
</g>
<g stroke-linecap="butt" transform="matrix(1,0,0,1,397,396)" fill="rgb(110,110,110)" stroke-dasharray="12,4" stroke="rgb(110,110,110)" stroke-width="2" stroke-miterlimit="1.45">
<path fill="none" d="M603.8103 447.7534 L652.4031 370.6586" clip-path="url(#clipPath2)"/>
<path d="M659.0017 360.1897 L646.0929 368.0111 L657.5136 375.2096 Z" clip-path="url(#clipPath2)" stroke="none"/>
</g>
<g stroke-linecap="butt" transform="matrix(1,0,0,1,397,396)" fill="rgb(250,146,23)" stroke-dasharray="18,6" stroke="rgb(250,146,23)" stroke-width="3" stroke-miterlimit="1.45">
<path fill="none" d="M674.7814 360.3238 L714.3917 425.6015" clip-path="url(#clipPath2)"/>
<path d="M721.5247 437.3566 L720.1552 420.6421 L707.3314 428.4236 Z" clip-path="url(#clipPath2)" stroke="none"/>
</g>
<g stroke-linecap="butt" transform="matrix(1,0,0,1,397,396)" fill="rgb(110,110,110)" stroke-dasharray="12,4" stroke="rgb(110,110,110)" stroke-width="2" stroke-miterlimit="1.45">
<path fill="none" d="M660.3774 334.0411 L618.2106 248.3472" clip-path="url(#clipPath2)"/>
<path d="M612.7469 237.2437 L612.6508 252.3368 L624.7638 246.3765 Z" clip-path="url(#clipPath2)" stroke="none"/>
</g>
<g stroke-linecap="butt" transform="matrix(1,0,0,1,397,396)" fill="rgb(250,146,23)" stroke-dasharray="18,6" stroke="rgb(250,146,23)" stroke-width="3" stroke-miterlimit="1.45">
<path fill="none" d="M681.845 345.3495 L826.954 324.3288" clip-path="url(#clipPath2)"/>
<path d="M840.562 322.3575 L824.6417 317.0855 L826.7922 331.9305 Z" clip-path="url(#clipPath2)" stroke="none"/>
</g>
<g stroke-linecap="butt" transform="matrix(1,0,0,1,397,396)" fill="rgb(110,110,110)" stroke-dasharray="12,4" stroke="rgb(110,110,110)" stroke-width="2" stroke-miterlimit="1.45">
<path fill="none" d="M835.1855 434 L850.6957 347.366" clip-path="url(#clipPath2)"/>
<path d="M852.8765 335.1846 L843.8531 347.2838 L857.1418 349.6629 Z" clip-path="url(#clipPath2)" stroke="none"/>
<path fill="none" d="M783.515 247.4205 L736.67 423.5429" clip-path="url(#clipPath2)"/>
<path d="M733.4891 435.5021 L743.4824 424.1907 L730.436 420.7206 Z" clip-path="url(#clipPath2)" stroke="none"/>
</g>
<g stroke-linecap="butt" transform="matrix(1,0,0,1,397,396)" fill="rgb(250,146,23)" stroke-dasharray="18,6" stroke="rgb(250,146,23)" stroke-width="3" stroke-miterlimit="1.45">
<path fill="none" d="M609.3558 461.3933 L704.2787 452.7868" clip-path="url(#clipPath2)"/>
<path d="M717.9725 451.5452 L702.3566 445.4303 L703.7111 460.369 Z" clip-path="url(#clipPath2)" stroke="none"/>
<path fill="none" d="M772.4 231.9867 L633.3134 223.2737" clip-path="url(#clipPath2)"/>
<path d="M619.5903 222.414 L634.092 230.8372 L635.0298 215.8665 Z" clip-path="url(#clipPath2)" stroke="none"/>
<path fill="none" d="M817.5 449.2184 L754.4634 450.1364" clip-path="url(#clipPath2)"/>
<path d="M740.7148 450.3367 L755.8224 457.6175 L755.6041 442.619 Z" clip-path="url(#clipPath2)" stroke="none"/>
</g>
<g fill="rgb(110,110,110)" stroke-width="2" stroke-miterlimit="1.45" transform="matrix(1,0,0,1,397,396)" stroke-linecap="butt" stroke="rgb(110,110,110)">
<path fill="none" d="M725.2515 673.8351 L726.733 612.2081" clip-path="url(#clipPath2)"/>
<path d="M727.0304 599.8367 L719.9579 613.1705 L733.454 613.495 Z" clip-path="url(#clipPath2)" stroke="none"/>
<path fill="none" d="M889.7513 673.8453 L891.5304 599.8344" clip-path="url(#clipPath2)"/>
<path fill="none" d="M525.2722 680.842 L527.2138 604.4702" clip-path="url(#clipPath2)"/>
<path d="M527.5283 592.0991 L520.4374 605.4232 L533.933 605.7663 Z" clip-path="url(#clipPath2)" stroke="none"/>
<path fill="none" d="M86.3421 654.1172 L84.9401 734.0322" clip-path="url(#clipPath2)"/>
<path fill="none" d="M-135.4017 493.7098 L-173.7022 404.2157" clip-path="url(#clipPath2)"/>
<path fill="none" d="M-48.5288 290.8319 L-49.7464 362.9754" clip-path="url(#clipPath2)"/>
<path fill="none" d="M55.1168 354.6896 L-35.6542 374.8187" clip-path="url(#clipPath2)"/>
<path fill="none" d="M-42.7069 393.0029 L-4.0579 472.5095" clip-path="url(#clipPath2)"/>
<path fill="none" d="M-148.081 386.6764 L-64.7026 379.3006" clip-path="url(#clipPath2)"/>
<path fill="none" d="M-59.2194 393.0177 L-121.6523 494.7166" clip-path="url(#clipPath2)"/>
<path fill="none" d="M-220.2918 258.0836 L-182.2082 181.9164" clip-path="url(#clipPath2)"/>
<path fill="none" stroke-width="3" d="M-185.8761 374.7472 L-221.4495 285.4353" clip-path="url(#clipPath2)" stroke="rgb(250,146,23)"/>
<path fill="none" stroke-dasharray="12,4" d="M365.2808 324.0093 L372.9723 388.8378" clip-path="url(#clipPath2)"/>
<path stroke-dasharray="12,4" d="M374.4303 401.1266 L379.5428 386.9254 L366.1368 388.5159 Z" clip-path="url(#clipPath2)" stroke="none"/>
<path fill="none" d="M352.0277 309.9301 L284.4209 315.4115" clip-path="url(#clipPath2)"/>
<path fill="none" d="M374.6021 308.4763 L454.5167 304.7068" clip-path="url(#clipPath2)"/>
<path fill="none" d="M361.0637 294.024 L348.9085 219.3054" clip-path="url(#clipPath2)"/>
<path fill="none" d="M426.0245 31.8605 L545.6358 -88.7675" clip-path="url(#clipPath2)"/>
<path fill="none" d="M398.3157 -105.5081 L671.9713 -13.9595" clip-path="url(#clipPath2)"/>
<path fill="none" d="M404.1971 -112.2635 L526.9647 -104.4548" clip-path="url(#clipPath2)"/>
<path fill="none" d="M541.9752 -234.7812 L485.1515 -291.1245" clip-path="url(#clipPath2)"/>
<path fill="none" d="M408.7245 30.6016 L375.7769 -99.4129" clip-path="url(#clipPath2)"/>
<path fill="none" d="M667.9462 0.2214 L442.8395 40.1222" clip-path="url(#clipPath2)"/>
<path fill="none" d="M577.0679 -89.8894 L680.3782 -17.6739" clip-path="url(#clipPath2)"/>
<path fill="none" d="M560.9321 -211.7289 L688.7509 -19.4963" clip-path="url(#clipPath2)"/>
<path fill="none" d="M558.3561 -117.4024 L553.4301 -209.2412" clip-path="url(#clipPath2)"/>
<path fill="none" d="M539.8125 -216.4224 L391.6419 -126.2624" clip-path="url(#clipPath2)"/>
<path fill="none" d="M420.0781 30.9135 L545.7114 -210.9088" clip-path="url(#clipPath2)"/>
<path fill="none" d="M639.0271 -211.544 L567.4678 -222.0424" clip-path="url(#clipPath2)"/>
</g>
<g fill="rgb(255,224,224)" transform="matrix(1,0,0,1,397,396)" stroke="rgb(255,224,224)">
<ellipse rx="32.5" ry="15" clip-path="url(#clipPath2)" cx="286.8908" cy="590.841" stroke="none"/>
</g>
<g fill="rgb(110,110,110)" stroke-miterlimit="1.45" transform="matrix(1,0,0,1,397,396)" stroke-linecap="butt" stroke="rgb(110,110,110)">
<ellipse rx="32.5" fill="none" ry="15" clip-path="url(#clipPath2)" cx="286.8908" cy="590.841"/>
</g>
<g font-family="'Arial'" font-size="16" transform="matrix(1,0,0,1,397,396)">
<text x="251.3908" xml:space="preserve" y="596.6495" clip-path="url(#clipPath2)" stroke="none">RUNX1T1</text>
</g>
<g fill="white" transform="matrix(1,0,0,1,397,396)" stroke="white">
<path d="M268.3908 693.8409 L298.3908 693.8409 L283.3908 723.8409 Z" clip-path="url(#clipPath2)" fill-rule="evenodd" stroke="none"/>
</g>
<g fill="rgb(110,110,110)" stroke-miterlimit="1.45" transform="matrix(1,0,0,1,397,396)" stroke-linecap="butt" stroke="rgb(110,110,110)">
<path fill="none" d="M268.3908 693.8409 L298.3908 693.8409 L283.3908 723.8409 Z" fill-rule="evenodd" clip-path="url(#clipPath2)"/>
</g>
<g font-family="'Arial'" font-size="16" transform="matrix(1,0,0,1,397,396)">
<text x="257.8908" xml:space="preserve" y="714.6495" clip-path="url(#clipPath2)" stroke="none">NTRK1</text>
</g>
<g fill="rgb(216,255,216)" transform="matrix(1,0,0,1,397,396)" stroke="rgb(216,255,216)">
<path d="M53.5 -340.5 L86 -355.5 L118.5 -340.5 L86 -325.5 Z" clip-path="url(#clipPath2)" fill-rule="evenodd" stroke="none"/>
</g>
<g fill="rgb(110,110,110)" stroke-miterlimit="1.45" transform="matrix(1,0,0,1,397,396)" stroke-linecap="butt" stroke="rgb(110,110,110)">
<path fill="none" d="M53.5 -340.5 L86 -355.5 L118.5 -340.5 L86 -325.5 Z" fill-rule="evenodd" clip-path="url(#clipPath2)"/>
</g>
<g font-family="'Arial'" font-size="16" transform="matrix(1,0,0,1,397,396)">
<text x="58.5" xml:space="preserve" y="-334.6914" clip-path="url(#clipPath2)" stroke="none">PSMA6</text>
</g>
<g fill="white" transform="matrix(1,0,0,1,397,396)" stroke="white">
<circle r="15" clip-path="url(#clipPath2)" cx="130" cy="-222" stroke="none"/>
</g>
<g fill="rgb(110,110,110)" stroke-miterlimit="1.45" transform="matrix(1,0,0,1,397,396)" stroke-linecap="butt" stroke="rgb(110,110,110)">
<circle fill="none" r="15" clip-path="url(#clipPath2)" cx="130" cy="-222"/>
</g>
<g font-family="'Arial'" font-size="16" transform="matrix(1,0,0,1,397,396)">
<text x="98.5" xml:space="preserve" y="-216.1914" clip-path="url(#clipPath2)" stroke="none">UBQLN1</text>
</g>
<g fill="rgb(255,120,120)" transform="matrix(1,0,0,1,397,396)" stroke="rgb(255,120,120)">
<ellipse rx="32.5" ry="15" clip-path="url(#clipPath2)" cx="-62" cy="47.5" stroke="none"/>
</g>
<g fill="rgb(110,110,110)" stroke-miterlimit="1.45" transform="matrix(1,0,0,1,397,396)" stroke-linecap="butt" stroke="rgb(110,110,110)">
<ellipse rx="32.5" fill="none" ry="15" clip-path="url(#clipPath2)" cx="-62" cy="47.5"/>
</g>
<g font-family="'Arial'" font-size="16" transform="matrix(1,0,0,1,397,396)">
<text x="-81.5" xml:space="preserve" y="53.3086" clip-path="url(#clipPath2)" stroke="none">ATF6</text>
</g>
<g fill="white" transform="matrix(1,0,0,1,397,396)" stroke="white">
<circle r="15" clip-path="url(#clipPath2)" cx="80" cy="13.5" stroke="none"/>
</g>
<g fill="rgb(110,110,110)" stroke-miterlimit="1.45" transform="matrix(1,0,0,1,397,396)" stroke-linecap="butt" stroke="rgb(110,110,110)">
<circle fill="none" r="15" clip-path="url(#clipPath2)" cx="80" cy="13.5"/>
</g>
<g font-family="'Arial'" font-size="16" transform="matrix(1,0,0,1,397,396)">
<text x="53.5" xml:space="preserve" y="19.3086" clip-path="url(#clipPath2)" stroke="none">HSPA5</text>
</g>
<g fill="white" transform="matrix(1,0,0,1,397,396)" stroke="white">
<path d="M197.5 -83.5 L212.5 -116 L227.5 -83.5 L212.5 -51 Z" clip-path="url(#clipPath2)" fill-rule="evenodd" stroke="none"/>
</g>
<g fill="rgb(110,110,110)" stroke-miterlimit="1.45" transform="matrix(1,0,0,1,397,396)" stroke-linecap="butt" stroke="rgb(110,110,110)">
<path fill="none" d="M197.5 -83.5 L212.5 -116 L227.5 -83.5 L212.5 -51 Z" fill-rule="evenodd" clip-path="url(#clipPath2)"/>
</g>
<g font-family="'Arial'" font-size="16" transform="matrix(1,0,0,1,397,396)">
<text x="195.5" xml:space="preserve" y="-77.6914" clip-path="url(#clipPath2)" stroke="none">VCP</text>
</g>
<g fill="white" transform="matrix(1,0,0,1,397,396)" stroke="white">
<path d="M-53 -72.5 L-45.5 -102.5 L-30.5 -102.5 L-23 -72.5 Z" clip-path="url(#clipPath2)" fill-rule="evenodd" stroke="none"/>
</g>
<g fill="rgb(110,110,110)" stroke-miterlimit="1.45" transform="matrix(1,0,0,1,397,396)" stroke-linecap="butt" stroke="rgb(110,110,110)">
<path fill="none" d="M-53 -72.5 L-45.5 -102.5 L-30.5 -102.5 L-23 -72.5 Z" fill-rule="evenodd" clip-path="url(#clipPath2)"/>
</g>
<g font-family="'Arial'" font-size="16" transform="matrix(1,0,0,1,397,396)">
<text x="-63.5" xml:space="preserve" y="-81.6914" clip-path="url(#clipPath2)" stroke="none">STX1A</text>
</g>
<g fill="rgb(117,255,117)" transform="matrix(1,0,0,1,397,396)" stroke="rgb(117,255,117)">
<rect x="94.814" width="30" height="65" y="-116.624" clip-path="url(#clipPath2)" stroke="none"/>
</g>
<g fill="rgb(110,110,110)" stroke-dasharray="6,2" stroke-miterlimit="1.45" transform="matrix(1,0,0,1,397,396)" stroke-linecap="butt" stroke="rgb(110,110,110)">
<rect fill="none" x="94.814" width="30" height="65" y="-116.624" clip-path="url(#clipPath2)"/>
</g>
<g font-family="'Arial'" font-size="16" transform="matrix(1,0,0,1,397,396)">
<text x="88.814" xml:space="preserve" y="-78.3154" clip-path="url(#clipPath2)" stroke="none">CFTR</text>
</g>
<g fill="white" transform="matrix(1,0,0,1,397,396)" stroke="white">
<circle r="15" clip-path="url(#clipPath2)" cx="9" cy="-222.5" stroke="none"/>
</g>
<g fill="rgb(110,110,110)" stroke-miterlimit="1.45" transform="matrix(1,0,0,1,397,396)" stroke-linecap="butt" stroke="rgb(110,110,110)">
<circle fill="none" r="15" clip-path="url(#clipPath2)" cx="9" cy="-222.5"/>
</g>
<g font-family="'Arial'" font-size="16" transform="matrix(1,0,0,1,397,396)">
<text x="-31.5" xml:space="preserve" y="-216.6914" clip-path="url(#clipPath2)" stroke="none">SLC9A3R1</text>
</g>
<g fill="white" transform="matrix(1,0,0,1,397,396)" stroke="white">
<circle r="15" clip-path="url(#clipPath2)" cx="-116.655" cy="-89.124" stroke="none"/>
</g>
<g fill="rgb(110,110,110)" stroke-miterlimit="1.45" transform="matrix(1,0,0,1,397,396)" stroke-linecap="butt" stroke="rgb(110,110,110)">
<circle fill="none" r="15" clip-path="url(#clipPath2)" cx="-116.655" cy="-89.124"/>
</g>
<g font-family="'Arial'" font-size="16" transform="matrix(1,0,0,1,397,396)">
<text x="-144.155" xml:space="preserve" y="-83.3154" clip-path="url(#clipPath2)" stroke="none">VAMP3</text>
</g>
<g fill="rgb(255,107,107)" transform="matrix(1,0,0,1,397,396)" stroke="rgb(255,107,107)">
<path d="M-345.2534 -163.4677 L-337.7534 -193.4677 L-322.7534 -193.4677 L-315.2534 -163.4677 Z" clip-path="url(#clipPath2)" fill-rule="evenodd" stroke="none"/>
</g>
<g fill="rgb(110,110,110)" stroke-miterlimit="1.45" transform="matrix(1,0,0,1,397,396)" stroke-linecap="butt" stroke="rgb(110,110,110)">
<path fill="none" d="M-345.2534 -163.4677 L-337.7534 -193.4677 L-322.7534 -193.4677 L-315.2534 -163.4677 Z" fill-rule="evenodd" clip-path="url(#clipPath2)"/>
</g>
<g font-family="'Arial'" font-size="16" transform="matrix(1,0,0,1,397,396)">
<text x="-354.7534" xml:space="preserve" y="-172.6591" clip-path="url(#clipPath2)" stroke="none">STX16</text>
</g>
<g fill="white" transform="matrix(1,0,0,1,397,396)" stroke="white">
<path d="M-276.5634 -28.4353 L-269.0634 -58.4353 L-254.0634 -58.4353 L-246.5634 -28.4353 Z" clip-path="url(#clipPath2)" fill-rule="evenodd" stroke="none"/>
</g>
<g fill="rgb(110,110,110)" stroke-miterlimit="1.45" transform="matrix(1,0,0,1,397,396)" stroke-linecap="butt" stroke="rgb(110,110,110)">
<path fill="none" d="M-276.5634 -28.4353 L-269.0634 -58.4353 L-254.0634 -58.4353 L-246.5634 -28.4353 Z" fill-rule="evenodd" clip-path="url(#clipPath2)"/>
</g>
<g font-family="'Arial'" font-size="16" transform="matrix(1,0,0,1,397,396)">
<text x="-283.0634" xml:space="preserve" y="-37.6267" clip-path="url(#clipPath2)" stroke="none">VTI1A</text>
</g>
<g fill="white" transform="matrix(1,0,0,1,397,396)" stroke="white">
<path d="M-208.035 -291.562 L-200.535 -321.562 L-185.535 -321.562 L-178.035 -291.562 Z" clip-path="url(#clipPath2)" fill-rule="evenodd" stroke="none"/>
</g>
<g fill="rgb(110,110,110)" stroke-miterlimit="1.45" transform="matrix(1,0,0,1,397,396)" stroke-linecap="butt" stroke="rgb(110,110,110)">
<path fill="none" d="M-208.035 -291.562 L-200.535 -321.562 L-185.535 -321.562 L-178.035 -291.562 Z" fill-rule="evenodd" clip-path="url(#clipPath2)"/>
</g>
<g font-family="'Arial'" font-size="16" transform="matrix(1,0,0,1,397,396)">
<text x="-213.035" xml:space="preserve" y="-300.7534" clip-path="url(#clipPath2)" stroke="none">STX6</text>
</g>
<g fill="white" transform="matrix(1,0,0,1,397,396)" stroke="white">
<circle r="15" clip-path="url(#clipPath2)" cx="-219.6604" cy="-188.155" stroke="none"/>
</g>
<g fill="rgb(110,110,110)" stroke-miterlimit="1.45" transform="matrix(1,0,0,1,397,396)" stroke-linecap="butt" stroke="rgb(110,110,110)">
<circle fill="none" r="15" clip-path="url(#clipPath2)" cx="-219.6604" cy="-188.155"/>
</g>
<g font-family="'Arial'" font-size="16" transform="matrix(1,0,0,1,397,396)">
<text x="-247.1604" xml:space="preserve" y="-182.3464" clip-path="url(#clipPath2)" stroke="none">VAMP4</text>
</g>
<g fill="rgb(221,255,221)" transform="matrix(1,0,0,1,397,396)" stroke="rgb(221,255,221)">
<rect x="840.562" width="30" height="30" y="305.1846" clip-path="url(#clipPath2)" stroke="none"/>
</g>
<g fill="rgb(110,110,110)" stroke-dasharray="6,2" stroke-miterlimit="1.45" transform="matrix(1,0,0,1,397,396)" stroke-linecap="butt" stroke="rgb(110,110,110)">
<rect fill="none" x="840.562" width="30" height="30" y="305.1846" clip-path="url(#clipPath2)"/>
</g>
<g font-family="'Arial'" font-size="16" transform="matrix(1,0,0,1,397,396)">
<text x="827.062" xml:space="preserve" y="325.9932" clip-path="url(#clipPath2)" stroke="none">LEFTY2</text>
</g>
<g fill="white" transform="matrix(1,0,0,1,397,396)" stroke="white">
<rect x="817.5" width="30" height="30" y="434" clip-path="url(#clipPath2)" stroke="none"/>
</g>
<g fill="rgb(110,110,110)" stroke-dasharray="6,2" stroke-miterlimit="1.45" transform="matrix(1,0,0,1,397,396)" stroke-linecap="butt" stroke="rgb(110,110,110)">
<rect fill="none" x="817.5" width="30" height="30" y="434" clip-path="url(#clipPath2)"/>
</g>
<g font-family="'Arial'" font-size="16" transform="matrix(1,0,0,1,397,396)">
<text x="809" xml:space="preserve" y="454.8086" clip-path="url(#clipPath2)" stroke="none">INHBA</text>
</g>
<g fill="white" transform="matrix(1,0,0,1,397,396)" stroke="white">
<circle r="15" clip-path="url(#clipPath2)" cx="787.3706" cy="232.9245" stroke="none"/>
</g>
<g fill="rgb(110,110,110)" stroke-miterlimit="1.45" transform="matrix(1,0,0,1,397,396)" stroke-linecap="butt" stroke="rgb(110,110,110)">
<circle fill="none" r="15" clip-path="url(#clipPath2)" cx="787.3706" cy="232.9245"/>
</g>
<g font-family="'Arial'" font-size="16" transform="matrix(1,0,0,1,397,396)">
<text x="765.3706" xml:space="preserve" y="238.7331" clip-path="url(#clipPath2)" stroke="none">NPPB</text>
</g>
<g fill="rgb(221,255,221)" transform="matrix(1,0,0,1,397,396)" stroke="rgb(221,255,221)">
<path d="M714.5 465.5 L722 435.5 L737 435.5 L744.5 465.5 Z" clip-path="url(#clipPath2)" fill-rule="evenodd" stroke="none"/>
</g>
<g fill="rgb(110,110,110)" stroke-miterlimit="1.45" transform="matrix(1,0,0,1,397,396)" stroke-linecap="butt" stroke="rgb(110,110,110)">
<path fill="none" d="M714.5 465.5 L722 435.5 L737 435.5 L744.5 465.5 Z" fill-rule="evenodd" clip-path="url(#clipPath2)"/>
</g>
<g font-family="'Arial'" font-size="16" transform="matrix(1,0,0,1,397,396)">
<text x="708.5" xml:space="preserve" y="456.3086" clip-path="url(#clipPath2)" stroke="none">STAR</text>
</g>
<g fill="white" transform="matrix(1,0,0,1,397,396)" stroke="white">
<rect x="579.3558" width="30" height="30" y="447.7534" clip-path="url(#clipPath2)" stroke="none"/>
</g>
<g fill="rgb(110,110,110)" stroke-dasharray="6,2" stroke-miterlimit="1.45" transform="matrix(1,0,0,1,397,396)" stroke-linecap="butt" stroke="rgb(110,110,110)">
<rect fill="none" x="579.3558" width="30" height="30" y="447.7534" clip-path="url(#clipPath2)"/>
</g>
<g font-family="'Arial'" font-size="16" transform="matrix(1,0,0,1,397,396)">
<text x="572.8558" xml:space="preserve" y="468.562" clip-path="url(#clipPath2)" stroke="none">GHRL</text>
</g>
<g fill="rgb(192,255,192)" transform="matrix(1,0,0,1,397,396)" stroke="rgb(192,255,192)">
<circle r="15" clip-path="url(#clipPath2)" cx="667" cy="347.5" stroke="none"/>
</g>
<g fill="rgb(110,110,110)" stroke-miterlimit="1.45" transform="matrix(1,0,0,1,397,396)" stroke-linecap="butt" stroke="rgb(110,110,110)">
<circle fill="none" r="15" clip-path="url(#clipPath2)" cx="667" cy="347.5"/>
</g>
<g font-family="'Arial'" font-size="16" transform="matrix(1,0,0,1,397,396)">
<text x="643" xml:space="preserve" y="353.3086" clip-path="url(#clipPath2)" stroke="none">POMC</text>
</g>
<g fill="white" transform="matrix(1,0,0,1,397,396)" stroke="white">
<path d="M590 221.5 L605 189 L620 221.5 L605 254 Z" clip-path="url(#clipPath2)" fill-rule="evenodd" stroke="none"/>
</g>
<g fill="rgb(110,110,110)" stroke-miterlimit="1.45" transform="matrix(1,0,0,1,397,396)" stroke-linecap="butt" stroke="rgb(110,110,110)">
<path fill="none" d="M590 221.5 L605 189 L620 221.5 L605 254 Z" fill-rule="evenodd" clip-path="url(#clipPath2)"/>
</g>
<g font-family="'Arial'" font-size="16" transform="matrix(1,0,0,1,397,396)">
<text x="570" xml:space="preserve" y="227.3086" clip-path="url(#clipPath2)" stroke="none">CYP11B2</text>
</g>
<g fill="white" transform="matrix(1,0,0,1,397,396)" stroke="white">
<circle r="15" clip-path="url(#clipPath2)" cx="727.3908" cy="584.841" stroke="none"/>
</g>
<g fill="rgb(110,110,110)" stroke-miterlimit="1.45" transform="matrix(1,0,0,1,397,396)" stroke-linecap="butt" stroke="rgb(110,110,110)">
<circle fill="none" r="15" clip-path="url(#clipPath2)" cx="727.3908" cy="584.841"/>
</g>
<g font-family="'Arial'" font-size="16" transform="matrix(1,0,0,1,397,396)">
<text x="707.3908" xml:space="preserve" y="590.6495" clip-path="url(#clipPath2)" stroke="none">MYL2</text>
</g>
<g fill="rgb(255,216,216)" transform="matrix(1,0,0,1,397,396)" stroke="rgb(255,216,216)">
<path d="M709.8909 673.8409 L739.8909 673.8409 L724.8909 703.8409 Z" clip-path="url(#clipPath2)" fill-rule="evenodd" stroke="none"/>
</g>
<g fill="rgb(110,110,110)" stroke-miterlimit="1.45" transform="matrix(1,0,0,1,397,396)" stroke-linecap="butt" stroke="rgb(110,110,110)">
<path fill="none" d="M709.8909 673.8409 L739.8909 673.8409 L724.8909 703.8409 Z" fill-rule="evenodd" clip-path="url(#clipPath2)"/>
</g>
<g font-family="'Arial'" font-size="16" transform="matrix(1,0,0,1,397,396)">
<text x="697.8908" xml:space="preserve" y="694.6495" clip-path="url(#clipPath2)" stroke="none">DAPK3</text>
</g>
<g fill="white" transform="matrix(1,0,0,1,397,396)" stroke="white">
<path d="M876.8909 599.8409 L884.3909 569.8409 L899.3909 569.8409 L906.8909 599.8409 Z" clip-path="url(#clipPath2)" fill-rule="evenodd" stroke="none"/>
</g>
<g fill="rgb(110,110,110)" stroke-miterlimit="1.45" transform="matrix(1,0,0,1,397,396)" stroke-linecap="butt" stroke="rgb(110,110,110)">
<path fill="none" d="M876.8909 599.8409 L884.3909 569.8409 L899.3909 569.8409 L906.8909 599.8409 Z" fill-rule="evenodd" clip-path="url(#clipPath2)"/>
</g>
<g font-family="'Arial'" font-size="16" transform="matrix(1,0,0,1,397,396)">
<text x="853.3908" xml:space="preserve" y="590.6495" clip-path="url(#clipPath2)" stroke="none">RACGAP1</text>
</g>
<g fill="rgb(255,214,214)" transform="matrix(1,0,0,1,397,396)" stroke="rgb(255,214,214)">
<circle r="15" clip-path="url(#clipPath2)" cx="889.3908" cy="688.841" stroke="none"/>
</g>
<g fill="rgb(110,110,110)" stroke-miterlimit="1.45" transform="matrix(1,0,0,1,397,396)" stroke-linecap="butt" stroke="rgb(110,110,110)">
<circle fill="none" r="15" clip-path="url(#clipPath2)" cx="889.3908" cy="688.841"/>
</g>
<g font-family="'Arial'" font-size="16" transform="matrix(1,0,0,1,397,396)">
<text x="868.8908" xml:space="preserve" y="694.6495" clip-path="url(#clipPath2)" stroke="none">ECT2</text>
</g>
<g fill="white" transform="matrix(1,0,0,1,397,396)" stroke="white">
<path d="M512.8909 562.8409 L542.8909 562.8409 L527.8909 592.8409 Z" clip-path="url(#clipPath2)" fill-rule="evenodd" stroke="none"/>
</g>
<g fill="rgb(110,110,110)" stroke-miterlimit="1.45" transform="matrix(1,0,0,1,397,396)" stroke-linecap="butt" stroke="rgb(110,110,110)">
<path fill="none" d="M512.8909 562.8409 L542.8909 562.8409 L527.8909 592.8409 Z" fill-rule="evenodd" clip-path="url(#clipPath2)"/>
</g>
<g font-family="'Arial'" font-size="16" transform="matrix(1,0,0,1,397,396)">
<text x="507.8908" xml:space="preserve" y="583.6495" clip-path="url(#clipPath2)" stroke="none">AKT2</text>
</g>
<g fill="rgb(255,181,181)" transform="matrix(1,0,0,1,397,396)" stroke="rgb(255,181,181)">
<ellipse rx="32.5" ry="15" clip-path="url(#clipPath2)" cx="524.8908" cy="695.841" stroke="none"/>
</g>
<g fill="rgb(110,110,110)" stroke-miterlimit="1.45" transform="matrix(1,0,0,1,397,396)" stroke-linecap="butt" stroke="rgb(110,110,110)">
<ellipse rx="32.5" fill="none" ry="15" clip-path="url(#clipPath2)" cx="524.8908" cy="695.841"/>
</g>
<g font-family="'Arial'" font-size="16" transform="matrix(1,0,0,1,397,396)">
<text x="496.8908" xml:space="preserve" y="701.6495" clip-path="url(#clipPath2)" stroke="none">TWIST1</text>
</g>
<g fill="rgb(255,164,164)" transform="matrix(1,0,0,1,397,396)" stroke="rgb(255,164,164)">
<path d="M71.8908 622.8409 L86.8908 590.3409 L101.8908 622.8409 L86.8908 655.3409 Z" clip-path="url(#clipPath2)" fill-rule="evenodd" stroke="none"/>
</g>
<g fill="rgb(110,110,110)" stroke-miterlimit="1.45" transform="matrix(1,0,0,1,397,396)" stroke-linecap="butt" stroke="rgb(110,110,110)">
<path fill="none" d="M71.8908 622.8409 L86.8908 590.3409 L101.8908 622.8409 L86.8908 655.3409 Z" fill-rule="evenodd" clip-path="url(#clipPath2)"/>
</g>
<g font-family="'Arial'" font-size="16" transform="matrix(1,0,0,1,397,396)">
<text x="64.3908" xml:space="preserve" y="628.6495" clip-path="url(#clipPath2)" stroke="none">ARIH1</text>
</g>
<g fill="white" transform="matrix(1,0,0,1,397,396)" stroke="white">
<path d="M69.3908 765.3409 L84.3908 732.8409 L99.3908 765.3409 L84.3908 797.8409 Z" clip-path="url(#clipPath2)" fill-rule="evenodd" stroke="none"/>
</g>
<g fill="rgb(110,110,110)" stroke-miterlimit="1.45" transform="matrix(1,0,0,1,397,396)" stroke-linecap="butt" stroke="rgb(110,110,110)">
<path fill="none" d="M69.3908 765.3409 L84.3908 732.8409 L99.3908 765.3409 L84.3908 797.8409 Z" fill-rule="evenodd" clip-path="url(#clipPath2)"/>
</g>
<g font-family="'Arial'" font-size="16" transform="matrix(1,0,0,1,397,396)">
<text x="54.3908" xml:space="preserve" y="771.1495" clip-path="url(#clipPath2)" stroke="none">UBE2L3</text>
</g>
<g fill="white" transform="matrix(1,0,0,1,397,396)" stroke="white">
<circle r="15" clip-path="url(#clipPath2)" cx="-227" cy="271.5" stroke="none"/>
</g>
<g fill="rgb(110,110,110)" stroke-miterlimit="1.45" transform="matrix(1,0,0,1,397,396)" stroke-linecap="butt" stroke="rgb(110,110,110)">
<circle fill="none" r="15" clip-path="url(#clipPath2)" cx="-227" cy="271.5"/>
</g>
<g font-family="'Arial'" font-size="16" transform="matrix(1,0,0,1,397,396)">
<text x="-254" xml:space="preserve" y="277.3086" clip-path="url(#clipPath2)" stroke="none">MED29</text>
</g>
<g fill="rgb(152,255,152)" transform="matrix(1,0,0,1,397,396)" stroke="rgb(152,255,152)">
<circle r="15" clip-path="url(#clipPath2)" cx="-175.5" cy="168.5" stroke="none"/>
</g>
<g fill="rgb(110,110,110)" stroke-miterlimit="1.45" transform="matrix(1,0,0,1,397,396)" stroke-linecap="butt" stroke="rgb(110,110,110)">
<circle fill="none" r="15" clip-path="url(#clipPath2)" cx="-175.5" cy="168.5"/>
</g>
<g font-family="'Arial'" font-size="16" transform="matrix(1,0,0,1,397,396)">
<text x="-202.5" xml:space="preserve" y="174.3086" clip-path="url(#clipPath2)" stroke="none">MED11</text>
</g>
<g fill="white" transform="matrix(1,0,0,1,397,396)" stroke="white">
<circle r="15" clip-path="url(#clipPath2)" cx="2.5" cy="486" stroke="none"/>
</g>
<g fill="rgb(110,110,110)" stroke-miterlimit="1.45" transform="matrix(1,0,0,1,397,396)" stroke-linecap="butt" stroke="rgb(110,110,110)">
<circle fill="none" r="15" clip-path="url(#clipPath2)" cx="2.5" cy="486"/>
</g>
<g font-family="'Arial'" font-size="16" transform="matrix(1,0,0,1,397,396)">
<text x="-29" xml:space="preserve" y="491.8086" clip-path="url(#clipPath2)" stroke="none">TNRC6A</text>
</g>
<g fill="white" transform="matrix(1,0,0,1,397,396)" stroke="white">
<circle r="15" clip-path="url(#clipPath2)" cx="-129.5" cy="507.5" stroke="none"/>
</g>
<g fill="rgb(110,110,110)" stroke-miterlimit="1.45" transform="matrix(1,0,0,1,397,396)" stroke-linecap="butt" stroke="rgb(110,110,110)">
<circle fill="none" r="15" clip-path="url(#clipPath2)" cx="-129.5" cy="507.5"/>
</g>
<g font-family="'Arial'" font-size="16" transform="matrix(1,0,0,1,397,396)">
<text x="-159" xml:space="preserve" y="513.3086" clip-path="url(#clipPath2)" stroke="none">GEMIN4</text>
</g>
<g fill="white" transform="matrix(1,0,0,1,397,396)" stroke="white">
<path d="M54.5 351.5 L57.5 336.5 L81.5 336.5 L84.5 351.5 L81.5 366.5 L57.5 366.5 Z" clip-path="url(#clipPath2)" fill-rule="evenodd" stroke="none"/>
</g>
<g fill="rgb(110,110,110)" stroke-miterlimit="1.45" transform="matrix(1,0,0,1,397,396)" stroke-linecap="butt" stroke="rgb(110,110,110)">
<path fill="none" d="M54.5 351.5 L57.5 336.5 L81.5 336.5 L84.5 351.5 L81.5 366.5 L57.5 366.5 Z" fill-rule="evenodd" clip-path="url(#clipPath2)"/>
</g>
<g font-family="'Arial'" font-size="16" transform="matrix(1,0,0,1,397,396)">
<text x="42.5" xml:space="preserve" y="357.3086" clip-path="url(#clipPath2)" stroke="none">EIF2C1</text>
</g>
<g fill="white" transform="matrix(1,0,0,1,397,396)" stroke="white">
<ellipse rx="32.5" ry="15" clip-path="url(#clipPath2)" cx="-180" cy="389.5" stroke="none"/>
</g>
<g fill="rgb(110,110,110)" stroke-miterlimit="1.45" transform="matrix(1,0,0,1,397,396)" stroke-linecap="butt" stroke="rgb(110,110,110)">
<ellipse rx="32.5" fill="none" ry="15" clip-path="url(#clipPath2)" cx="-180" cy="389.5"/>
</g>
<g font-family="'Arial'" font-size="16" transform="matrix(1,0,0,1,397,396)">
<text x="-206.5" xml:space="preserve" y="395.3086" clip-path="url(#clipPath2)" stroke="none">DDX20</text>
</g>
<g fill="rgb(255,188,188)" transform="matrix(1,0,0,1,397,396)" stroke="rgb(255,188,188)">
<path d="M-65 378 L-62 363 L-38 363 L-35 378 L-38 393 L-62 393 Z" clip-path="url(#clipPath2)" fill-rule="evenodd" stroke="none"/>
</g>
<g fill="rgb(110,110,110)" stroke-miterlimit="1.45" transform="matrix(1,0,0,1,397,396)" stroke-linecap="butt" stroke="rgb(110,110,110)">
<path fill="none" d="M-65 378 L-62 363 L-38 363 L-35 378 L-38 393 L-62 393 Z" fill-rule="evenodd" clip-path="url(#clipPath2)"/>
</g>
<g font-family="'Arial'" font-size="16" transform="matrix(1,0,0,1,397,396)">
<text x="-77" xml:space="preserve" y="383.8086" clip-path="url(#clipPath2)" stroke="none">EIF2C2</text>
</g>
<g fill="white" transform="matrix(1,0,0,1,397,396)" stroke="white">
<path d="M-63 259.5 L-48 227 L-33 259.5 L-48 292 Z" clip-path="url(#clipPath2)" fill-rule="evenodd" stroke="none"/>
</g>
<g fill="rgb(110,110,110)" stroke-miterlimit="1.45" transform="matrix(1,0,0,1,397,396)" stroke-linecap="butt" stroke="rgb(110,110,110)">
<path fill="none" d="M-63 259.5 L-48 227 L-33 259.5 L-48 292 Z" fill-rule="evenodd" clip-path="url(#clipPath2)"/>
</g>
<g font-family="'Arial'" font-size="16" transform="matrix(1,0,0,1,397,396)">
<text x="-70" xml:space="preserve" y="265.3086" clip-path="url(#clipPath2)" stroke="none">DDX6</text>
</g>
<g fill="white" transform="matrix(1,0,0,1,397,396)" stroke="white">
<path d="M362.5 427 L377.5 394.5 L392.5 427 L377.5 459.5 Z" clip-path="url(#clipPath2)" fill-rule="evenodd" stroke="none"/>
</g>
<g fill="rgb(110,110,110)" stroke-miterlimit="1.45" transform="matrix(1,0,0,1,397,396)" stroke-linecap="butt" stroke="rgb(110,110,110)">
<path fill="none" d="M362.5 427 L377.5 394.5 L392.5 427 L377.5 459.5 Z" fill-rule="evenodd" clip-path="url(#clipPath2)"/>
</g>
<g font-family="'Arial'" font-size="16" transform="matrix(1,0,0,1,397,396)">
<text x="292" xml:space="preserve" y="432.8086" clip-path="url(#clipPath2)" stroke="none">SSB (includes EG:6741)</text>
</g>
<g fill="white" transform="matrix(1,0,0,1,397,396)" stroke="white">
<circle r="15" clip-path="url(#clipPath2)" cx="346.5" cy="204.5" stroke="none"/>
</g>
<g fill="rgb(110,110,110)" stroke-miterlimit="1.45" transform="matrix(1,0,0,1,397,396)" stroke-linecap="butt" stroke="rgb(110,110,110)">
<circle fill="none" r="15" clip-path="url(#clipPath2)" cx="346.5" cy="204.5"/>
</g>
<g font-family="'Arial'" font-size="16" transform="matrix(1,0,0,1,397,396)">
<text x="324.5" xml:space="preserve" y="210.3086" clip-path="url(#clipPath2)" stroke="none">PMS1</text>
</g>
<g fill="white" transform="matrix(1,0,0,1,397,396)" stroke="white">
<ellipse rx="32.5" ry="15" clip-path="url(#clipPath2)" cx="252.4111" cy="318.0067" stroke="none"/>
</g>
<g fill="rgb(110,110,110)" stroke-miterlimit="1.45" transform="matrix(1,0,0,1,397,396)" stroke-linecap="butt" stroke="rgb(110,110,110)">
<ellipse rx="32.5" fill="none" ry="15" clip-path="url(#clipPath2)" cx="252.4111" cy="318.0067"/>
</g>
<g font-family="'Arial'" font-size="16" transform="matrix(1,0,0,1,397,396)">
<text x="223.9111" xml:space="preserve" y="323.8153" clip-path="url(#clipPath2)" stroke="none">ZNF143</text>
</g>
<g fill="white" transform="matrix(1,0,0,1,397,396)" stroke="white">
<circle r="15" clip-path="url(#clipPath2)" cx="469.5" cy="304" stroke="none"/>
</g>
<g fill="rgb(110,110,110)" stroke-miterlimit="1.45" transform="matrix(1,0,0,1,397,396)" stroke-linecap="butt" stroke="rgb(110,110,110)">
<circle fill="none" r="15" clip-path="url(#clipPath2)" cx="469.5" cy="304"/>
</g>
<g font-family="'Arial'" font-size="16" transform="matrix(1,0,0,1,397,396)">
<text x="447.5" xml:space="preserve" y="309.8086" clip-path="url(#clipPath2)" stroke="none">PMS2</text>
</g>
<g fill="rgb(172,255,172)" transform="matrix(1,0,0,1,397,396)" stroke="rgb(172,255,172)">
<path d="M348.5 324 L356 294 L371 294 L378.5 324 Z" clip-path="url(#clipPath2)" fill-rule="evenodd" stroke="none"/>
</g>
<g fill="rgb(110,110,110)" stroke-miterlimit="1.45" transform="matrix(1,0,0,1,397,396)" stroke-linecap="butt" stroke="rgb(110,110,110)">
<path fill="none" d="M348.5 324 L356 294 L371 294 L378.5 324 Z" fill-rule="evenodd" clip-path="url(#clipPath2)"/>
</g>
<g font-family="'Arial'" font-size="16" transform="matrix(1,0,0,1,397,396)">
<text x="337" xml:space="preserve" y="314.8086" clip-path="url(#clipPath2)" stroke="none">KPNA2</text>
</g>
<g fill="white" transform="matrix(1,0,0,1,397,396)" stroke="white">
<ellipse rx="32.5" ry="15" clip-path="url(#clipPath2)" cx="670" cy="-207" stroke="none"/>
</g>
<g fill="rgb(110,110,110)" stroke-miterlimit="1.45" transform="matrix(1,0,0,1,397,396)" stroke-linecap="butt" stroke="rgb(110,110,110)">
<ellipse rx="32.5" fill="none" ry="15" clip-path="url(#clipPath2)" cx="670" cy="-207"/>
</g>
<g font-family="'Arial'" font-size="16" transform="matrix(1,0,0,1,397,396)">
<text x="646" xml:space="preserve" y="-201.1914" clip-path="url(#clipPath2)" stroke="none">TAF13</text>
</g>
<g fill="white" transform="matrix(1,0,0,1,397,396)" stroke="white">
<ellipse rx="32.5" ry="15" clip-path="url(#clipPath2)" cx="412.5" cy="45.5" stroke="none"/>
</g>
<g fill="rgb(110,110,110)" stroke-miterlimit="1.45" transform="matrix(1,0,0,1,397,396)" stroke-linecap="butt" stroke="rgb(110,110,110)">
<ellipse rx="32.5" fill="none" ry="15" clip-path="url(#clipPath2)" cx="412.5" cy="45.5"/>
</g>
<g font-family="'Arial'" font-size="16" transform="matrix(1,0,0,1,397,396)">
<text x="393" xml:space="preserve" y="51.3086" clip-path="url(#clipPath2)" stroke="none">TAF5</text>
</g>
<g fill="white" transform="matrix(1,0,0,1,397,396)" stroke="white">
<ellipse rx="32.5" ry="15" clip-path="url(#clipPath2)" cx="372.0013" cy="-114.3113" stroke="none"/>
</g>
<g fill="rgb(110,110,110)" stroke-miterlimit="1.45" transform="matrix(1,0,0,1,397,396)" stroke-linecap="butt" stroke="rgb(110,110,110)">
<ellipse rx="32.5" fill="none" ry="15" clip-path="url(#clipPath2)" cx="372.0013" cy="-114.3113"/>
</g>
<g font-family="'Arial'" font-size="16" transform="matrix(1,0,0,1,397,396)">
<text x="352.5013" xml:space="preserve" y="-108.5027" clip-path="url(#clipPath2)" stroke="none">TAF7</text>
</g>
<g fill="white" transform="matrix(1,0,0,1,397,396)" stroke="white">
<ellipse rx="32.5" ry="15" clip-path="url(#clipPath2)" cx="698.2857" cy="-5.1563" stroke="none"/>
</g>
<g fill="rgb(110,110,110)" stroke-miterlimit="1.45" transform="matrix(1,0,0,1,397,396)" stroke-linecap="butt" stroke="rgb(110,110,110)">
<ellipse rx="32.5" fill="none" ry="15" clip-path="url(#clipPath2)" cx="698.2857" cy="-5.1563"/>
</g>
<g font-family="'Arial'" font-size="16" transform="matrix(1,0,0,1,397,396)">
<text x="674.2857" xml:space="preserve" y="0.6523" clip-path="url(#clipPath2)" stroke="none">TAF12</text>
</g>
<g fill="white" transform="matrix(1,0,0,1,397,396)" stroke="white">
<ellipse rx="32.5" ry="15" clip-path="url(#clipPath2)" cx="559.1604" cy="-102.407" stroke="none"/>
</g>
<g fill="rgb(110,110,110)" stroke-miterlimit="1.45" transform="matrix(1,0,0,1,397,396)" stroke-linecap="butt" stroke="rgb(110,110,110)">
<ellipse rx="32.5" fill="none" ry="15" clip-path="url(#clipPath2)" cx="559.1604" cy="-102.407"/>
</g>
<g font-family="'Arial'" font-size="16" transform="matrix(1,0,0,1,397,396)">
<text x="535.1604" xml:space="preserve" y="-96.5984" clip-path="url(#clipPath2)" stroke="none">TAF11</text>
</g>
<g fill="rgb(255,224,224)" transform="matrix(1,0,0,1,397,396)" stroke="rgb(255,224,224)">
<circle r="15" clip-path="url(#clipPath2)" cx="552.6267" cy="-224.2197" stroke="none"/>
</g>
<g fill="rgb(110,110,110)" stroke-miterlimit="1.45" transform="matrix(1,0,0,1,397,396)" stroke-linecap="butt" stroke="rgb(110,110,110)">
<circle fill="none" r="15" clip-path="url(#clipPath2)" cx="552.6267" cy="-224.2197"/>
</g>
<g font-family="'Arial'" font-size="16" transform="matrix(1,0,0,1,397,396)">
<text x="526.1267" xml:space="preserve" y="-218.4111" clip-path="url(#clipPath2)" stroke="none">CPSF1</text>
</g>
<g fill="white" transform="matrix(1,0,0,1,397,396)" stroke="white">
<circle r="15" clip-path="url(#clipPath2)" cx="474.5" cy="-301.686" stroke="none"/>
</g>
<g fill="rgb(110,110,110)" stroke-miterlimit="1.45" transform="matrix(1,0,0,1,397,396)" stroke-linecap="butt" stroke="rgb(110,110,110)">
<circle fill="none" r="15" clip-path="url(#clipPath2)" cx="474.5" cy="-301.686"/>
</g>
<g font-family="'Arial'" font-size="16" transform="matrix(1,0,0,1,397,396)">
<text x="447" xml:space="preserve" y="-295.8774" clip-path="url(#clipPath2)" stroke="none">SRRM1</text>
</g>
<g fill="white" font-family="'新細明體'" transform="matrix(1,0,0,1,397,396) translate(-397,-397)" stroke="white">
<rect x="0" width="1378" height="30" y="0" clip-path="url(#clipPath3)" stroke="none"/>
</g>
<g fill="blue" font-size="16" font-family="'Arial'" transform="matrix(1,0,0,1,397,396) translate(-397,-397)" stroke="blue">
<text x="2" xml:space="preserve" y="17" clip-path="url(#clipPath3)" stroke="none">lung_cord_net4</text>
</g>
<g fill="white" font-family="'Arial'" transform="matrix(1,0,0,1,397,396) translate(-397,813)" stroke="white">
<rect x="0" width="1370" height="27" y="0" clip-path="url(#clipPath4)" stroke="none"/>
<text fill="blue" x="3" xml:space="preserve" y="21" clip-path="url(#clipPath4)" stroke="none"> © 2000-2009 Ingenuity Systems, Inc. All rights reserved.</text>
</g>
<g fill="white" font-family="'Arial'" transform="matrix(1,0,0,1,397,396) translate(-397,813)" stroke="white">
<rect fill="none" x="0" width="1369" height="26" y="0" clip-path="url(#clipPath4)"/>
<rect fill="none" x="1" width="1367" height="24" y="1" clip-path="url(#clipPath4)"/>
<rect fill="none" x="2" width="1365" height="22" y="2" clip-path="url(#clipPath4)"/>
</g>
</g>
</svg>
