<?xml version="1.0" encoding="UTF-8"?>
<svg xmlns:xlink="http://www.w3.org/1999/xlink" xmlns="http://www.w3.org/2000/svg" fill-opacity="1" color-rendering="auto" color-interpolation="auto" stroke="black" text-rendering="auto" stroke-linecap="square" width="1197" stroke-miterlimit="10" stroke-opacity="1" shape-rendering="auto" fill="black" stroke-dasharray="none" font-weight="normal" stroke-width="1" height="1137" font-family="'Dialog'" font-style="normal" stroke-linejoin="miter" font-size="12" stroke-dashoffset="0" image-rendering="auto">
<!--Generated by ySVG-->
<defs id="genericDefs"/>
<g>
<defs id="defs1">
<clipPath clipPathUnits="userSpaceOnUse" id="clipPath1">
<path d="M0 0 L1197 0 L1197 1137 L0 1137 L0 0 Z"/>
</clipPath>
<clipPath clipPathUnits="userSpaceOnUse" id="clipPath2">
<path d="M-403 -438 L794 -438 L794 699 L-403 699 L-403 -438 Z"/>
</clipPath>
<clipPath clipPathUnits="userSpaceOnUse" id="clipPath3">
<path d="M56.7362 -452.9398 L350.1205 569.8121 L-621.3657 848.4905 L-914.7501 -174.2615 L56.7362 -452.9398 Z"/>
</clipPath>
<clipPath clipPathUnits="userSpaceOnUse" id="clipPath4">
<path d="M-200.4444 512.8743 L-1131.6387 -1.8813 L-642.6854 -886.3991 L288.5089 -371.6436 L-200.4444 512.8743 Z"/>
</clipPath>
<clipPath clipPathUnits="userSpaceOnUse" id="clipPath5">
<path d="M213.3606 -260.414 L-33.9897 774.4357 L-1016.9672 539.4839 L-769.6169 -495.3658 L213.3606 -260.414 Z"/>
</clipPath>
<clipPath clipPathUnits="userSpaceOnUse" id="clipPath6">
<path d="M0 1 L1197 1 L1197 1138 L0 1138 L0 1 Z"/>
</clipPath>
<clipPath clipPathUnits="userSpaceOnUse" id="clipPath7">
<path d="M0 -1112 L1197 -1112 L1197 25 L0 25 L0 -1112 Z"/>
</clipPath>
</defs>
<g fill="white" transform="translate(403,438)" stroke="white">
<rect x="-403" width="1197" height="1137" y="-438" clip-path="url(#clipPath2)" stroke="none"/>
</g>
<g fill="rgb(110,110,110)" stroke-width="2" stroke-miterlimit="1.45" transform="matrix(1,0,0,1,403,438)" stroke-linecap="butt" stroke="rgb(110,110,110)">
<path fill="none" d="M345.7315 498.9021 L409.3772 576.9716" clip-path="url(#clipPath2)"/>
<path fill="white" d="M420.0401 590.0509 L413.8981 571.8345 L403.4346 580.3647 Z" clip-path="url(#clipPath2)" stroke="none"/>
<path fill="none" stroke-width="1" d="M420.0401 590.0509 L413.8981 571.8345 L403.4346 580.3647 Z" clip-path="url(#clipPath2)"/>
<path fill="none" stroke-dasharray="12,4" d="M-0.4185 314.4637 L-220.9397 -4.0926" clip-path="url(#clipPath2)"/>
<path stroke-dasharray="12,4" d="M-227.9833 -14.2675 L-225.8493 0.6743 L-214.7494 -7.0096 Z" clip-path="url(#clipPath2)" stroke="none"/>
<path fill="none" stroke-dasharray="12,4" d="M619.4898 467.2741 L378.3569 481.2942" clip-path="url(#clipPath2)"/>
<path stroke-dasharray="12,4" d="M366.0028 482.0125 L379.8719 487.9675 L379.0883 474.4902 Z" clip-path="url(#clipPath2)" stroke="none"/>
<path fill="none" stroke-dasharray="12,4" d="M664.4414 346.6991 L472.263 211.6391" clip-path="url(#clipPath2)"/>
<path stroke-dasharray="12,4" d="M462.1383 204.5236 L469.3023 217.8085 L477.0647 206.7634 Z" clip-path="url(#clipPath2)" stroke="none"/>
<path fill="none" stroke-dasharray="12,4" d="M22.3343 324.8095 L26.4468 322.925 L29.5386 321.0466 L32.4255 318.8879 L35.0885 316.4676 L37.5089 313.8045 L39.6676 310.9177 L41.546 307.8258 L43.1251 304.5477 L44.3861 301.1024 L45.3102 297.5086 L45.8784 293.7852 L46.072 289.951 L45.8784 286.1169 L45.3102 282.3935 L44.3861 278.7997 L43.1251 275.3544 L41.546 272.0763 L39.6676 268.9844 L37.5089 266.0976 L35.0885 263.4345 L32.4255 261.0142 L29.5386 258.8555 L26.4468 256.9771 L23.1687 255.398 L19.7234 254.137 L16.1296 253.2129 L12.4062 252.6447 L8.572 252.451 L4.7379 252.6447 L1.0145 253.2129 L-2.5793 254.137 L-6.0247 255.398 L-9.3027 256.9771 L-12.3946 258.8555 L-15.2815 261.0142 L-17.9445 263.4345 L-20.3648 266.0976 L-22.5236 268.9844 L-24.4019 272.0763 L-25.981 275.3544 L-27.242 278.7997 L-28.1661 282.3935 L-28.7344 286.1169 L-28.928 289.951 L-28.7344 293.7852 L-28.1661 297.5086 L-27.242 301.1024 L-25.981 304.5477 L-24.4019 307.8258 L-22.5236 310.9177 L-20.3648 313.8045 L-17.9445 316.4676 L-15.791 318.4248 L-15.7047 318.4754" clip-path="url(#clipPath2)"/>
<path stroke-dasharray="12,4" d="M-5.031 324.7373 L-13.2595 312.084 L-20.0907 323.7282 Z" clip-path="url(#clipPath2)" stroke="none"/>
<path fill="none" stroke-dasharray="12,4" d="M84.0493 571.3909 L289.3252 499.3961" clip-path="url(#clipPath2)"/>
<path stroke-dasharray="12,4" d="M301.0028 495.3005 L286.0296 493.3989 L290.4976 506.1381 Z" clip-path="url(#clipPath2)" stroke="none"/>
<path fill="none" d="M2.7763 24.6246 L7.738 283.8739" clip-path="url(#clipPath2)"/>
<path d="M2.5395 12.2519 L-3.9509 25.8786 L9.5466 25.6202 Z" clip-path="url(#clipPath2)" stroke="none"/>
<path d="M7.9748 296.2466 L14.4653 282.62 L0.9677 282.8783 Z" clip-path="url(#clipPath2)" stroke="none"/>
<path fill="none" stroke-dasharray="12,4" d="M25.6887 7.6447 L421.3564 183.0944" clip-path="url(#clipPath2)"/>
<path stroke-dasharray="12,4" d="M432.669 188.1108 L423.0641 176.4678 L417.5917 188.809 Z" clip-path="url(#clipPath2)" stroke="none"/>
<path fill="none" stroke-dasharray="12,4" d="M352.796 468.9007 L353.5028 463.9021 L353.0965 459.8714 L351.9311 456.1172 L350.0871 452.7199 L347.645 449.76 L344.685 447.3178 L341.2877 445.4738 L337.5335 444.3084 L333.5028 443.9021 L329.4721 444.3084 L325.7179 445.4738 L322.3206 447.3178 L319.3607 449.7599 L316.9185 452.7199 L315.0745 456.1172 L314.941 456.5473 L314.9443 456.6472" clip-path="url(#clipPath2)"/>
<path stroke-dasharray="12,4" d="M315.356 469.0154 L321.6532 455.2983 L308.1606 455.7474 Z" clip-path="url(#clipPath2)" stroke="none"/>
<path fill="none" d="M101.8537 428.9903 L8.4753 24.2264" clip-path="url(#clipPath2)"/>
<path d="M5.6935 12.1681 L2.1509 26.84 L15.3054 23.8053 Z" clip-path="url(#clipPath2)" stroke="none"/>
<path fill="none" d="M9.9303 -29.5131 L67.6525 -230.7354" clip-path="url(#clipPath2)"/>
<path d="M6.5181 -17.6178 L16.7289 -28.7332 L3.7522 -32.4557 Z" clip-path="url(#clipPath2)" stroke="none"/>
<rect x="-5" y="-6" transform="matrix(0.3102,-1.0814,1.0814,0.3102,69.2036,-236.1423)" clip-path="url(#clipPath3)" width="1" height="12" stroke="none"/>
</g>
<g fill="rgb(110,110,110)" stroke-width="2" stroke-miterlimit="1.45" transform="matrix(1,0,0,1,403,438)" stroke-linecap="butt" stroke="rgb(110,110,110)">
<path fill="none" d="M-18.577 8.7668 L-316.2902 173.3399" clip-path="url(#clipPath2)"/>
<rect x="-5" y="-6" transform="matrix(-0.9846,0.5443,-0.5443,-0.9846,-321.2131,176.0612)" clip-path="url(#clipPath4)" width="1" height="12" stroke="none"/>
</g>
<g fill="rgb(110,110,110)" stroke-width="2" stroke-miterlimit="1.45" transform="matrix(1,0,0,1,403,438)" stroke-linecap="butt" stroke="rgb(110,110,110)">
<path fill="none" d="M-1.3112 -17.6571 L-58.3372 -256.2391" clip-path="url(#clipPath2)"/>
<polygon clip-path="url(#clipPath5)" transform="matrix(-0.2615,-1.0942,1.0942,-0.2615,-62.2602,-272.6518)" points=" -12 -6 0 0 -12 6 -12 -6" stroke="none"/>
<rect x="-15" y="-6" transform="matrix(-0.2615,-1.0942,1.0942,-0.2615,-62.2602,-272.6518)" clip-path="url(#clipPath5)" width="1" height="12" stroke="none"/>
</g>
<g fill="rgb(110,110,110)" stroke-width="2" stroke-miterlimit="1.45" transform="matrix(1,0,0,1,403,438)" stroke-linecap="butt" stroke="rgb(110,110,110)">
<path fill="none" d="M440.7219 603.1248 L446.4156 599.1988 L448.8578 596.2388 L450.7017 592.8416 L451.8671 589.0873 L452.2734 585.0566 L451.8671 581.0259 L450.7018 577.2717 L448.8578 573.8745 L446.4156 570.9145 L443.4556 568.4724 L440.0583 566.6284 L436.3041 565.463 L432.2734 565.0566 L428.2427 565.463 L424.4886 566.6284 L421.0912 568.4724 L418.1313 570.9145 L415.6891 573.8745 L413.8452 577.2717 L412.6798 581.0259 L412.2734 585.0566 L412.6798 589.0873 L413.8451 592.8416 L414.8196 594.6369 L414.8959 594.7015" clip-path="url(#clipPath2)"/>
<path d="M424.3433 602.6945 L418.3969 588.8218 L409.6772 599.1279 Z" clip-path="url(#clipPath2)" stroke="none"/>
<path fill="none" stroke-dasharray="12,4" d="M412.5007 -37.0517 L571.0662 154.3614" clip-path="url(#clipPath2)"/>
<path stroke-dasharray="12,4" d="M578.9606 163.8912 L575.5466 149.189 L565.1504 157.8011 Z" clip-path="url(#clipPath2)" stroke="none"/>
<path fill="none" stroke-dasharray="12,4" d="M-3.2392 320.537 L-100.0462 263.8686" clip-path="url(#clipPath2)"/>
<path stroke-dasharray="12,4" d="M-110.7259 257.6169 L-102.4853 270.2622 L-95.6653 258.6116 Z" clip-path="url(#clipPath2)" stroke="none"/>
<path fill="none" stroke-dasharray="12,4" d="M303.5211 -172.9414 L399.7785 -180.7391" clip-path="url(#clipPath2)"/>
<path stroke-dasharray="12,4" d="M412.1131 -181.7384 L398.1121 -187.3763 L399.2022 -173.9203 Z" clip-path="url(#clipPath2)" stroke="none"/>
<path fill="none" stroke-dasharray="12,4" d="M252.1531 -158.2992 L32.1158 -21.3361" clip-path="url(#clipPath2)"/>
<path stroke-dasharray="12,4" d="M21.6098 -14.7966 L36.6379 -16.2001 L29.5039 -27.6612 Z" clip-path="url(#clipPath2)" stroke="none"/>
<path fill="none" stroke-dasharray="12,4" d="M243.8029 -162.5084 L-210.1801 -34.0538" clip-path="url(#clipPath2)"/>
<path stroke-dasharray="12,4" d="M-222.0876 -30.6846 L-207.2599 -27.8651 L-210.9354 -40.8551 Z" clip-path="url(#clipPath2)" stroke="none"/>
<path fill="none" stroke-dasharray="12,4" d="M262.8804 -300.753 L22.5642 -25.9722" clip-path="url(#clipPath2)"/>
<path stroke-dasharray="12,4" d="M14.4174 -16.6571 L28.3857 -22.3754 L18.2238 -31.2627 Z" clip-path="url(#clipPath2)" stroke="none"/>
<path fill="none" stroke-dasharray="12,4" d="M-260.7245 -118.8763 L-32.5507 -18.1164" clip-path="url(#clipPath2)"/>
<path stroke-dasharray="12,4" d="M-21.2303 -13.1174 L-30.8531 -24.7456 L-36.3065 -12.3961 Z" clip-path="url(#clipPath2)" stroke="none"/>
<path fill="none" stroke-dasharray="12,4" d="M-269.0486 -110.9404 L-246.3716 -52.142" clip-path="url(#clipPath2)"/>
<path stroke-dasharray="12,4" d="M-241.9186 -40.5959 L-240.4785 -55.6205 L-253.0742 -50.7627 Z" clip-path="url(#clipPath2)" stroke="none"/>
<path fill="none" stroke-dasharray="12,4" d="M-303.3662 64.6223 L-252.7014 -4.5194" clip-path="url(#clipPath2)"/>
<path stroke-dasharray="12,4" d="M-245.387 -14.5014 L-258.8111 -7.6016 L-247.9217 0.3778 Z" clip-path="url(#clipPath2)" stroke="none"/>
<path fill="none" d="M117.2919 271.1807 L13.2284 23.3881" clip-path="url(#clipPath2)"/>
<path d="M122.0836 282.5903 L123.0798 267.5298 L110.6329 272.757 Z" clip-path="url(#clipPath2)" stroke="none"/>
<path d="M8.4368 11.9784 L7.4406 27.0389 L19.8875 21.8117 Z" clip-path="url(#clipPath2)" stroke="none"/>
<path fill="none" d="M338.7318 93.9788 L30.001 312.2975" clip-path="url(#clipPath2)"/>
<path d="M19.8971 319.4425 L34.8168 317.1592 L27.0223 306.1367 Z" clip-path="url(#clipPath2)" stroke="none"/>
<path fill="none" stroke-dasharray="12,4" d="M385.0748 -50.1927 L45.9215 -8.1597" clip-path="url(#clipPath2)"/>
<path stroke-dasharray="12,4" d="M33.6405 -6.6376 L47.8682 -1.5993 L46.2078 -14.9968 Z" clip-path="url(#clipPath2)" stroke="none"/>
<path fill="none" stroke-dasharray="12,4" d="M689.5126 352.0053 L693.6251 350.1208 L696.717 348.2425 L699.6038 346.0837 L702.2668 343.6634 L704.6872 341.0003 L706.8459 338.1135 L708.7243 335.0216 L710.3034 331.7436 L711.5645 328.2982 L712.4885 324.7044 L713.0568 320.981 L713.2504 317.1469 L713.0568 313.3127 L712.4885 309.5893 L711.5645 305.9955 L710.3034 302.5502 L708.7243 299.2721 L706.8459 296.1803 L704.6872 293.2934 L702.2669 290.6304 L699.6039 288.21 L696.717 286.0513 L693.6251 284.1729 L690.347 282.5938 L686.9017 281.3328 L683.3079 280.4087 L679.5845 279.8405 L675.7504 279.6469 L671.9162 279.8405 L668.1928 280.4087 L664.599 281.3328 L661.1537 282.5938 L657.8757 284.1729 L654.7838 286.0512 L651.8969 288.21 L649.2339 290.6303 L646.8135 293.2934 L644.6548 296.1802 L642.7764 299.2721 L641.1973 302.5501 L639.9363 305.9955 L639.0122 309.5893 L638.444 313.3127 L638.2504 317.1469 L638.444 320.981 L639.0122 324.7044 L639.9363 328.2982 L641.1973 331.7435 L642.7764 335.0216 L644.6548 338.1134 L646.8135 341.0003 L649.2338 343.6633 L651.3873 345.6206 L651.4736 345.6712" clip-path="url(#clipPath2)"/>
<path stroke-dasharray="12,4" d="M662.1472 351.9333 L653.9189 339.2799 L647.0875 350.9239 Z" clip-path="url(#clipPath2)" stroke="none"/>
<path fill="none" stroke-dasharray="12,4" d="M663.008 359.4592 L377.5797 467.2558" clip-path="url(#clipPath2)"/>
<path stroke-dasharray="12,4" d="M366.0028 471.628 L381.017 473.1729 L376.2473 460.5436 Z" clip-path="url(#clipPath2)" stroke="none"/>
<path fill="none" stroke-dasharray="12,4" d="M550.6873 -92.6603 L586.5568 150.694" clip-path="url(#clipPath2)"/>
<path stroke-dasharray="12,4" d="M588.3613 162.9367 L593.0706 148.5967 L579.7148 150.5653 Z" clip-path="url(#clipPath2)" stroke="none"/>
<path fill="none" stroke-dasharray="12,4" d="M558.4921 -118.6874 L642.2972 -212.5173" clip-path="url(#clipPath2)"/>
<path stroke-dasharray="12,4" d="M650.5406 -221.7469 L636.5134 -216.1747 L646.5821 -207.1819 Z" clip-path="url(#clipPath2)" stroke="none"/>
<path fill="none" stroke-dasharray="12,4" d="M535.5201 -115.0182 L435.8463 -172.7514" clip-path="url(#clipPath2)"/>
<path stroke-dasharray="12,4" d="M425.1379 -178.9539 L433.4366 -166.3466 L440.203 -178.0284 Z" clip-path="url(#clipPath2)" stroke="none"/>
<path fill="none" d="M-26.2545 4.4561 L-285.6914 70.0149" clip-path="url(#clipPath2)"/>
<path d="M-297.6893 73.0467 L-282.947 76.2836 L-286.2545 63.195 Z" clip-path="url(#clipPath2)" stroke="none"/>
<path fill="none" d="M-68.4198 466.588 L107.2062 314.3509" clip-path="url(#clipPath2)"/>
<path d="M116.5572 306.2453 L101.9349 309.9872 L110.7774 320.1883 Z" clip-path="url(#clipPath2)" stroke="none"/>
<path fill="none" d="M25.9725 582.4991 L-88.2314 589.7086" clip-path="url(#clipPath2)"/>
<path d="M-100.5818 590.4883 L-86.6833 596.3743 L-87.5339 582.9012 Z" clip-path="url(#clipPath2)" stroke="none"/>
<path fill="none" d="M20.7263 -15.1093 L22.2524 -22.7476 L21.8461 -26.7782 L20.6807 -30.5325 L18.8368 -33.9297 L16.3946 -36.8897 L13.4346 -39.3319 L10.0373 -41.1759 L6.2831 -42.3412 L2.2524 -42.7476 L-1.7783 -42.3412 L-5.5325 -41.1759 L-8.9297 -39.3319 L-11.8897 -36.8897 L-14.3319 -33.9297 L-16.1759 -30.5325 L-17.1325 -27.4507 L-17.1229 -27.3512" clip-path="url(#clipPath2)"/>
<path d="M-15.9409 -15.0328 L-10.5113 -29.1158 L-23.9495 -27.8263 Z" clip-path="url(#clipPath2)" stroke="none"/>
<path fill="none" d="M-0.2897 12.2065 L-72.9982 439.9105" clip-path="url(#clipPath2)"/>
<path d="M-75.0722 452.1105 L-66.1552 439.9327 L-79.4642 437.6702 Z" clip-path="url(#clipPath2)" stroke="none"/>
<path fill="none" d="M-100.9222 251.6882 L101.0252 291.168" clip-path="url(#clipPath2)"/>
<path d="M113.1703 293.5423 L101.2162 284.3275 L98.626 297.5767 Z" clip-path="url(#clipPath2)" stroke="none"/>
<path fill="none" d="M380.7351 91.4092 L554.886 163.1943" clip-path="url(#clipPath2)"/>
<path d="M566.3271 167.9103 L556.4183 156.5249 L551.2735 169.0062 Z" clip-path="url(#clipPath2)" stroke="none"/>
<path fill="none" d="M345.0138 67.3847 L93.7646 -239.6998" clip-path="url(#clipPath2)"/>
<path d="M85.9283 -249.2775 L89.2527 -234.5547 L99.7012 -243.1034 Z" clip-path="url(#clipPath2)" stroke="none"/>
<path fill="none" d="M386.7956 75.9931 L657.1948 27.5863" clip-path="url(#clipPath2)"/>
<path d="M669.3761 25.4056 L654.8979 21.1401 L657.2769 34.4289 Z" clip-path="url(#clipPath2)" stroke="none"/>
<path fill="none" d="M93.6617 429.8998 L26.1386 348.6013" clip-path="url(#clipPath2)"/>
<path d="M18.2319 339.0816 L21.6648 353.7795 L32.0499 345.154 Z" clip-path="url(#clipPath2)" stroke="none"/>
<path fill="none" d="M107.5872 428.9434 L123.7458 323.4795" clip-path="url(#clipPath2)"/>
<path d="M125.6199 311.2473 L116.9032 323.5693 L130.2475 325.6138 Z" clip-path="url(#clipPath2)" stroke="none"/>
<path fill="none" d="M317.0523 468.9021 L148.1199 314.865" clip-path="url(#clipPath2)"/>
<path d="M138.9756 306.527 L144.4032 320.6108 L153.4992 310.6352 Z" clip-path="url(#clipPath2)" stroke="none"/>
<path fill="none" d="M302.3495 468.9021 L32.0224 338.7422" clip-path="url(#clipPath2)"/>
<path d="M20.8725 333.3736 L30.1077 345.312 L35.9643 333.1485 Z" clip-path="url(#clipPath2)" stroke="none"/>
<path fill="none" d="M436.155 312.0127 L155.2317 297.8032" clip-path="url(#clipPath2)"/>
<path d="M142.8725 297.178 L156.0142 304.6014 L156.6962 291.1186 Z" clip-path="url(#clipPath2)" stroke="none"/>
<path fill="none" d="M289.9843 -182.71 L291.5105 -190.3483 L291.1042 -194.379 L289.9388 -198.1332 L288.0948 -201.5304 L285.6526 -204.4904 L282.6927 -206.9326 L279.2954 -208.7766 L275.5412 -209.9419 L271.5105 -210.3483 L267.4798 -209.9419 L263.7256 -208.7766 L260.3283 -206.9326 L257.3683 -204.4904 L254.9262 -201.5304 L253.0822 -198.1331 L252.1255 -195.0514 L252.1351 -194.9519" clip-path="url(#clipPath2)"/>
<path d="M253.3171 -182.6334 L258.7468 -196.7164 L245.3085 -195.427 Z" clip-path="url(#clipPath2)" stroke="none"/>
<path fill="none" d="M266.941 -155.4973 L135.9421 270.2558" clip-path="url(#clipPath2)"/>
<path d="M132.3028 282.0836 L142.7244 271.1656 L129.8214 267.1955 Z" clip-path="url(#clipPath2)" stroke="none"/>
<path fill="none" d="M-64.2248 476.1435 L288.6302 483.0268" clip-path="url(#clipPath2)"/>
<path d="M301.0028 483.2681 L287.637 476.2561 L287.3737 489.7535 Z" clip-path="url(#clipPath2)" stroke="none"/>
<path fill="none" d="M202.0671 606.2644 L308.333 507.3343" clip-path="url(#clipPath2)"/>
<path d="M317.3905 498.9021 L302.9102 503.1604 L312.109 513.0413 Z" clip-path="url(#clipPath2)" stroke="none"/>
<path fill="none" d="M315.5592 71.6915 L43.1883 6.9785" clip-path="url(#clipPath2)"/>
<path d="M327.5991 74.552 L316.025 64.8642 L312.9044 77.9986 Z" clip-path="url(#clipPath2)" stroke="none"/>
<path d="M31.1485 4.1179 L42.7225 13.8057 L45.8432 0.6713 Z" clip-path="url(#clipPath2)" stroke="none"/>
<path fill="none" d="M323.2927 468.9021 L18.9565 21.7929" clip-path="url(#clipPath2)"/>
<path d="M11.9932 11.5629 L14.0095 26.521 L25.1695 18.9247 Z" clip-path="url(#clipPath2)" stroke="none"/>
<path fill="none" d="M-12.3718 10.648 L-215.3923 196.6114" clip-path="url(#clipPath2)"/>
<path d="M-224.5177 204.9701 L-210.0034 200.829 L-219.122 190.8741 Z" clip-path="url(#clipPath2)" stroke="none"/>
<path fill="none" d="M-92.7128 472.8312 L-182.2764 452.9362" clip-path="url(#clipPath2)"/>
<path d="M-194.3569 450.2527 L-182.6419 459.7695 L-179.7144 446.5908 Z" clip-path="url(#clipPath2)" stroke="none"/>
<path fill="none" stroke-dasharray="12,4" d="M76.6466 568.1047 L78.1727 560.4664 L77.7664 556.4357 L76.601 552.6815 L74.757 549.2842 L72.3149 546.3243 L69.3549 543.8821 L65.9576 542.0381 L62.2034 540.8727 L58.1727 540.4664 L54.142 540.8727 L50.3878 542.0381 L46.9905 543.8821 L44.0306 546.3243 L41.5884 549.2842 L39.7444 552.6815 L38.7878 555.7632 L38.7974 555.8628" clip-path="url(#clipPath2)"/>
<path stroke-dasharray="12,4" d="M39.9793 568.1812 L45.409 554.0982 L31.9708 555.3876 Z" clip-path="url(#clipPath2)" stroke="none"/>
<path fill="none" d="M450.185 301.2434 L20.529 9.6559" clip-path="url(#clipPath2)"/>
<path fill="none" d="M355.6385 96.4123 L334.3597 468.9021" clip-path="url(#clipPath2)"/>
<path fill="none" d="M457.2951 327.7337 L345.3931 468.9021" clip-path="url(#clipPath2)"/>
<path fill="none" d="M258.2674 -156.65 L-117.6051 232.1396" clip-path="url(#clipPath2)"/>
<path fill="none" d="M480.9231 299.7933 L578.1055 191.7556" clip-path="url(#clipPath2)"/>
<path fill="none" d="M62.8044 -264.2039 L-54.0837 -291.8579" clip-path="url(#clipPath2)"/>
<path fill="none" d="M-237.1681 233.338 L-210.9606 432.1287" clip-path="url(#clipPath2)"/>
<path fill="none" d="M301.0028 478.2061 L135.6778 449.231" clip-path="url(#clipPath2)"/>
<path fill="none" d="M239.7838 -173.601 L-98.9076 -208.3249" clip-path="url(#clipPath2)"/>
<path fill="none" d="M-159.3296 238.6126 L-210.6606 225.5909" clip-path="url(#clipPath2)"/>
<path fill="none" d="M694.7294 210.9949 L617.3378 186.4072" clip-path="url(#clipPath2)"/>
<path fill="none" d="M351.4921 66.5963 L276.5135 -155.527" clip-path="url(#clipPath2)"/>
<path fill="none" d="M26.017 -12.9797 L413.153 -179.6661" clip-path="url(#clipPath2)"/>
<path fill="none" d="M-121.476 -197.1855 L-6.9058 -17.1397" clip-path="url(#clipPath2)"/>
<path fill="none" d="M-130.6413 -196.5776 L-130.8412 230.8378" clip-path="url(#clipPath2)"/>
<path fill="none" d="M346.5944 95.7045 L115.1954 429.619" clip-path="url(#clipPath2)"/>
<path fill="none" d="M-221.5953 -25.1096 L-29.512 -5.9208" clip-path="url(#clipPath2)"/>
<path fill="none" d="M-324.829 180.0891 L-322.1325 176.9192 L-320.2885 173.522 L-319.1231 169.7677 L-318.7168 165.737 L-319.1231 161.7063 L-320.2885 157.9521 L-322.1325 154.5549 L-324.5747 151.5949 L-327.5346 149.1527 L-330.9319 147.3088 L-334.6861 146.1434 L-338.7168 145.7371 L-342.7475 146.1434 L-346.5017 147.3088 L-349.899 149.1528 L-352.8589 151.5949 L-355.3011 154.5549 L-357.1451 157.9522 L-358.3105 161.7064 L-358.7168 165.7371 L-358.3105 169.7678 L-357.1451 173.522 L-355.3011 176.9193 L-352.8589 179.8792 L-352.6046 180.0891" clip-path="url(#clipPath2)"/>
<path fill="none" d="M142.2019 291.9243 L429.9376 201.5232" clip-path="url(#clipPath2)"/>
<path fill="none" d="M89.5649 -341.5442 L80.2691 -284.9529" clip-path="url(#clipPath2)"/>
<path fill="none" d="M-332.0462 199.1722 L-215.6705 433.5648" clip-path="url(#clipPath2)"/>
<path fill="none" d="M81.0308 -360.0484 L-55.1684 -300.5016" clip-path="url(#clipPath2)"/>
<path fill="none" d="M106.6728 -361.5717 L258.3808 -316.3307" clip-path="url(#clipPath2)"/>
<path fill="none" d="M-220.6682 206.004 L-219.142 198.3657 L-219.5483 194.335 L-220.7137 190.5808 L-222.5577 187.1835 L-224.9998 184.2236 L-227.9598 181.7814 L-231.3571 179.9374 L-235.1113 178.7721 L-239.142 178.3657 L-243.1727 178.7721 L-246.9269 179.9374 L-250.3242 181.7814 L-253.2841 184.2236 L-255.7263 187.1836 L-257.5703 190.5808 L-258.7356 194.3351 L-259.142 198.3658 L-258.7356 202.3964 L-257.6158 206.004" clip-path="url(#clipPath2)"/>
<path fill="none" d="M330.2577 90.2695 L-104.6108 236.9858" clip-path="url(#clipPath2)"/>
<path fill="none" d="M-84.0285 453.9803 L-127.4922 260.7576" clip-path="url(#clipPath2)"/>
<path fill="none" d="M89.7142 -264.4795 L258.2374 -308.2715" clip-path="url(#clipPath2)"/>
</g>
<g fill="white" transform="matrix(1,0,0,1,403,438)" stroke="white">
<circle r="15" clip-path="url(#clipPath2)" cx="-338.7168" cy="185.7371" stroke="none"/>
</g>
<g fill="rgb(110,110,110)" stroke-miterlimit="1.45" transform="matrix(1,0,0,1,403,438)" stroke-linecap="butt" stroke="rgb(110,110,110)">
<circle fill="none" r="15" clip-path="url(#clipPath2)" cx="-338.7168" cy="185.7371"/>
</g>
<g font-family="'Arial'" font-size="16" transform="matrix(1,0,0,1,403,438)">
<text x="-360.2168" xml:space="preserve" y="191.5457" clip-path="url(#clipPath2)" stroke="none">DSN1</text>
</g>
<g fill="white" transform="matrix(1,0,0,1,403,438)" stroke="white">
<path d="M-82.6161 -295.0594 L-67.6161 -327.5594 L-52.6161 -295.0594 L-67.6161 -262.5594 Z" clip-path="url(#clipPath2)" fill-rule="evenodd" stroke="none"/>
</g>
<g fill="rgb(110,110,110)" stroke-miterlimit="1.45" transform="matrix(1,0,0,1,403,438)" stroke-linecap="butt" stroke="rgb(110,110,110)">
<path fill="none" d="M-82.6161 -295.0594 L-67.6161 -327.5594 L-52.6161 -295.0594 L-67.6161 -262.5594 Z" fill-rule="evenodd" clip-path="url(#clipPath2)"/>
</g>
<g font-family="'Arial'" font-size="16" transform="matrix(1,0,0,1,403,438)">
<text x="-89.6161" xml:space="preserve" y="-289.2509" clip-path="url(#clipPath2)" stroke="none">MSH2</text>
</g>
<g fill="rgb(255,181,181)" transform="matrix(1,0,0,1,403,438)" stroke="rgb(255,181,181)">
<path d="M78.5 -365.5 L93.5 -398 L108.5 -365.5 L93.5 -333 Z" clip-path="url(#clipPath2)" fill-rule="evenodd" stroke="none"/>
</g>
<g fill="rgb(110,110,110)" stroke-miterlimit="1.45" transform="matrix(1,0,0,1,403,438)" stroke-linecap="butt" stroke="rgb(110,110,110)">
<path fill="none" d="M78.5 -365.5 L93.5 -398 L108.5 -365.5 L93.5 -333 Z" fill-rule="evenodd" clip-path="url(#clipPath2)"/>
</g>
<g font-family="'Arial'" font-size="16" transform="matrix(1,0,0,1,403,438)">
<text x="63" xml:space="preserve" y="-359.6914" clip-path="url(#clipPath2)" stroke="none">RECQL*</text>
</g>
<g fill="rgb(221,255,221)" transform="matrix(1,0,0,1,403,438)" stroke="rgb(221,255,221)">
<path d="M-107.8685 575.9482 L-92.8685 605.9482 L-122.8685 605.9482 Z" clip-path="url(#clipPath2)" fill-rule="evenodd" stroke="none"/>
</g>
<g fill="rgb(110,110,110)" stroke-miterlimit="1.45" transform="matrix(1,0,0,1,403,438)" stroke-linecap="butt" stroke="rgb(110,110,110)">
<path fill="none" d="M-107.8685 575.9482 L-92.8685 605.9482 L-122.8685 605.9482 Z" fill-rule="evenodd" clip-path="url(#clipPath2)"/>
</g>
<g font-family="'Arial'" font-size="16" transform="matrix(1,0,0,1,403,438)">
<text x="-144.3685" xml:space="preserve" y="596.7568" clip-path="url(#clipPath2)" stroke="none">PPP2R2B</text>
</g>
<g fill="rgb(69,255,69)" transform="matrix(1,0,0,1,403,438)" stroke="rgb(69,255,69)">
<circle r="15" clip-path="url(#clipPath2)" cx="-236.521" cy="-26.6007" stroke="none"/>
</g>
<g fill="rgb(110,110,110)" stroke-miterlimit="1.45" transform="matrix(1,0,0,1,403,438)" stroke-linecap="butt" stroke="rgb(110,110,110)">
<circle fill="none" r="15" clip-path="url(#clipPath2)" cx="-236.521" cy="-26.6007"/>
</g>
<g font-family="'Arial'" font-size="16" transform="matrix(1,0,0,1,403,438)">
<text x="-265.521" xml:space="preserve" y="-20.7921" clip-path="url(#clipPath2)" stroke="none">H2AFX*</text>
</g>
<g fill="white" transform="matrix(1,0,0,1,403,438)" stroke="white">
<ellipse rx="32.5" ry="15" clip-path="url(#clipPath2)" cx="58.1727" cy="580.4664" stroke="none"/>
</g>
<g fill="rgb(110,110,110)" stroke-miterlimit="1.45" transform="matrix(1,0,0,1,403,438)" stroke-linecap="butt" stroke="rgb(110,110,110)">
<ellipse rx="32.5" fill="none" ry="15" clip-path="url(#clipPath2)" cx="58.1727" cy="580.4664"/>
</g>
<g font-family="'Arial'" font-size="16" transform="matrix(1,0,0,1,403,438)">
<text x="38.1727" xml:space="preserve" y="586.275" clip-path="url(#clipPath2)" stroke="none">MLL2</text>
</g>
<g fill="white" transform="matrix(1,0,0,1,403,438)" stroke="white">
<circle r="15" clip-path="url(#clipPath2)" cx="272.7552" cy="-312.0441" stroke="none"/>
</g>
<g fill="rgb(110,110,110)" stroke-miterlimit="1.45" transform="matrix(1,0,0,1,403,438)" stroke-linecap="butt" stroke="rgb(110,110,110)">
<circle fill="none" r="15" clip-path="url(#clipPath2)" cx="272.7552" cy="-312.0441"/>
</g>
<g font-family="'Arial'" font-size="16" transform="matrix(1,0,0,1,403,438)">
<text x="251.7552" xml:space="preserve" y="-306.2355" clip-path="url(#clipPath2)" stroke="none">MLH1</text>
</g>
<g fill="white" transform="matrix(1,0,0,1,403,438)" stroke="white">
<path d="M416.7399 195.4587 L449.2399 180.4587 L481.7399 195.4587 L449.2399 210.4587 Z" clip-path="url(#clipPath2)" fill-rule="evenodd" stroke="none"/>
</g>
<g fill="rgb(110,110,110)" stroke-miterlimit="1.45" transform="matrix(1,0,0,1,403,438)" stroke-linecap="butt" stroke="rgb(110,110,110)">
<path fill="none" d="M416.7399 195.4587 L449.2399 180.4587 L481.7399 195.4587 L449.2399 210.4587 Z" fill-rule="evenodd" clip-path="url(#clipPath2)"/>
</g>
<g font-family="'Arial'" font-size="16" transform="matrix(1,0,0,1,403,438)">
<text x="422.2399" xml:space="preserve" y="201.2673" clip-path="url(#clipPath2)" stroke="none">CASP9</text>
</g>
<g fill="rgb(173,255,173)" transform="matrix(1,0,0,1,403,438)" stroke="rgb(173,255,173)">
<ellipse rx="32.5" ry="15" clip-path="url(#clipPath2)" cx="651.735" cy="465.3993" stroke="none"/>
</g>
<g fill="rgb(110,110,110)" stroke-miterlimit="1.45" transform="matrix(1,0,0,1,403,438)" stroke-linecap="butt" stroke="rgb(110,110,110)">
<ellipse rx="32.5" fill="none" ry="15" clip-path="url(#clipPath2)" cx="651.735" cy="465.3993"/>
</g>
<g font-family="'Arial'" font-size="16" transform="matrix(1,0,0,1,403,438)">
<text x="627.735" xml:space="preserve" y="471.2079" clip-path="url(#clipPath2)" stroke="none">SRA1*</text>
</g>
<g fill="white" transform="matrix(1,0,0,1,403,438)" stroke="white">
<ellipse rx="32.5" ry="15" clip-path="url(#clipPath2)" cx="2.2524" cy="-2.7476" stroke="none"/>
</g>
<g fill="rgb(110,110,110)" stroke-miterlimit="1.45" transform="matrix(1,0,0,1,403,438)" stroke-linecap="butt" stroke="rgb(110,110,110)">
<ellipse rx="32.5" fill="none" ry="15" clip-path="url(#clipPath2)" cx="2.2524" cy="-2.7476"/>
</g>
<g font-family="'Arial'" font-size="16" transform="matrix(1,0,0,1,403,438)">
<text x="-16.7476" xml:space="preserve" y="3.061" clip-path="url(#clipPath2)" stroke="none">TP53</text>
</g>
<g fill="rgb(32,255,32)" transform="matrix(1,0,0,1,403,438)" stroke="rgb(32,255,32)">
<ellipse rx="32.5" ry="15" clip-path="url(#clipPath2)" cx="-130.6343" cy="-211.5776" stroke="none"/>
</g>
<g fill="rgb(110,110,110)" stroke-miterlimit="1.45" transform="matrix(1,0,0,1,403,438)" stroke-linecap="butt" stroke="rgb(110,110,110)">
<ellipse rx="32.5" fill="none" ry="15" clip-path="url(#clipPath2)" cx="-130.6343" cy="-211.5776"/>
</g>
<g font-family="'Arial'" font-size="16" transform="matrix(1,0,0,1,403,438)">
<text x="-216.1343" xml:space="preserve" y="-205.769" clip-path="url(#clipPath2)" stroke="none">PHB (includes EG:5245)</text>
</g>
<g fill="rgb(157,255,157)" transform="matrix(1,0,0,1,403,438)" stroke="rgb(157,255,157)">
<circle r="15" clip-path="url(#clipPath2)" cx="-209" cy="447" stroke="none"/>
</g>
<g fill="rgb(110,110,110)" stroke-miterlimit="1.45" transform="matrix(1,0,0,1,403,438)" stroke-linecap="butt" stroke="rgb(110,110,110)">
<circle fill="none" r="15" clip-path="url(#clipPath2)" cx="-209" cy="447"/>
</g>
<g font-family="'Arial'" font-size="16" transform="matrix(1,0,0,1,403,438)">
<text x="-230.5" xml:space="preserve" y="452.8086" clip-path="url(#clipPath2)" stroke="none">CBX5</text>
</g>
<g fill="rgb(255,224,224)" transform="matrix(1,0,0,1,403,438)" stroke="rgb(255,224,224)">
<path d="M660.7504 354.6469 L675.7504 322.1469 L690.7504 354.6469 L675.7504 387.1469 Z" clip-path="url(#clipPath2)" fill-rule="evenodd" stroke="none"/>
</g>
<g fill="rgb(110,110,110)" stroke-miterlimit="1.45" transform="matrix(1,0,0,1,403,438)" stroke-linecap="butt" stroke="rgb(110,110,110)">
<path fill="none" d="M660.7504 354.6469 L675.7504 322.1469 L690.7504 354.6469 L675.7504 387.1469 Z" fill-rule="evenodd" clip-path="url(#clipPath2)"/>
</g>
<g font-family="'Arial'" font-size="16" transform="matrix(1,0,0,1,403,438)">
<text x="660.2504" xml:space="preserve" y="360.4554" clip-path="url(#clipPath2)" stroke="none">TXN</text>
</g>
<g fill="white" transform="matrix(1,0,0,1,403,438)" stroke="white">
<ellipse rx="32.5" ry="15" clip-path="url(#clipPath2)" cx="468.4615" cy="313.6469" stroke="none"/>
</g>
<g fill="rgb(110,110,110)" stroke-miterlimit="1.45" transform="matrix(1,0,0,1,403,438)" stroke-linecap="butt" stroke="rgb(110,110,110)">
<ellipse rx="32.5" fill="none" ry="15" clip-path="url(#clipPath2)" cx="468.4615" cy="313.6469"/>
</g>
<g font-family="'Arial'" font-size="16" transform="matrix(1,0,0,1,403,438)">
<text x="434.9615" xml:space="preserve" y="319.4554" clip-path="url(#clipPath2)" stroke="none">CREBBP</text>
</g>
<g fill="rgb(255,165,165)" transform="matrix(1,0,0,1,403,438)" stroke="rgb(255,165,165)">
<ellipse rx="32.5" ry="15" clip-path="url(#clipPath2)" cx="721.5" cy="219.5" stroke="none"/>
</g>
<g fill="rgb(110,110,110)" stroke-miterlimit="1.45" transform="matrix(1,0,0,1,403,438)" stroke-linecap="butt" stroke="rgb(110,110,110)">
<ellipse rx="32.5" fill="none" ry="15" clip-path="url(#clipPath2)" cx="721.5" cy="219.5"/>
</g>
<g font-family="'Arial'" font-size="16" transform="matrix(1,0,0,1,403,438)">
<text x="699" xml:space="preserve" y="225.3086" clip-path="url(#clipPath2)" stroke="none">PIAS1</text>
</g>
<g fill="white" transform="matrix(1,0,0,1,403,438)" stroke="white">
<circle r="15" clip-path="url(#clipPath2)" cx="-312.2322" cy="76.7217" stroke="none"/>
</g>
<g fill="rgb(110,110,110)" stroke-miterlimit="1.45" transform="matrix(1,0,0,1,403,438)" stroke-linecap="butt" stroke="rgb(110,110,110)">
<circle fill="none" r="15" clip-path="url(#clipPath2)" cx="-312.2322" cy="76.7217"/>
</g>
<g font-family="'Arial'" font-size="16" transform="matrix(1,0,0,1,403,438)">
<text x="-329.2322" xml:space="preserve" y="82.5303" clip-path="url(#clipPath2)" stroke="none">XPC</text>
</g>
<g fill="white" transform="matrix(1,0,0,1,403,438)" stroke="white">
<path d="M-94.1084 475.8531 L-79.1084 443.3531 L-64.1084 475.8531 L-79.1084 508.3531 Z" clip-path="url(#clipPath2)" fill-rule="evenodd" stroke="none"/>
</g>
<g fill="rgb(110,110,110)" stroke-miterlimit="1.45" transform="matrix(1,0,0,1,403,438)" stroke-linecap="butt" stroke="rgb(110,110,110)">
<path fill="none" d="M-94.1084 475.8531 L-79.1084 443.3531 L-64.1084 475.8531 L-79.1084 508.3531 Z" fill-rule="evenodd" clip-path="url(#clipPath2)"/>
</g>
<g font-family="'Arial'" font-size="16" transform="matrix(1,0,0,1,403,438)">
<text x="-106.1084" xml:space="preserve" y="481.6617" clip-path="url(#clipPath2)" stroke="none">DNMT1</text>
</g>
<g fill="white" transform="matrix(1,0,0,1,403,438)" stroke="white">
<ellipse rx="32.5" ry="15" clip-path="url(#clipPath2)" cx="105.2947" cy="443.906" stroke="none"/>
</g>
<g fill="rgb(110,110,110)" stroke-miterlimit="1.45" transform="matrix(1,0,0,1,403,438)" stroke-linecap="butt" stroke="rgb(110,110,110)">
<ellipse rx="32.5" fill="none" ry="15" clip-path="url(#clipPath2)" cx="105.2947" cy="443.906"/>
</g>
<g font-family="'Arial'" font-size="16" transform="matrix(1,0,0,1,403,438)">
<text x="80.7947" xml:space="preserve" y="449.7146" clip-path="url(#clipPath2)" stroke="none">EP300</text>
</g>
<g fill="rgb(221,255,221)" transform="matrix(1,0,0,1,403,438)" stroke="rgb(221,255,221)">
<path d="M417.2734 590.0566 L447.2734 590.0566 L432.2734 620.0566 Z" clip-path="url(#clipPath2)" fill-rule="evenodd" stroke="none"/>
</g>
<g fill="rgb(110,110,110)" stroke-miterlimit="1.45" transform="matrix(1,0,0,1,403,438)" stroke-linecap="butt" stroke="rgb(110,110,110)">
<path fill="none" d="M417.2734 590.0566 L447.2734 590.0566 L432.2734 620.0566 Z" fill-rule="evenodd" clip-path="url(#clipPath2)"/>
</g>
<g font-family="'Arial'" font-size="16" transform="matrix(1,0,0,1,403,438)">
<text x="405.7734" xml:space="preserve" y="610.8652" clip-path="url(#clipPath2)" stroke="none">ERBB4</text>
</g>
<g fill="white" transform="matrix(1,0,0,1,403,438)" stroke="white">
<ellipse rx="32.5" ry="15" clip-path="url(#clipPath2)" cx="356.4951" cy="81.4175" stroke="none"/>
</g>
<g fill="rgb(110,110,110)" stroke-miterlimit="1.45" transform="matrix(1,0,0,1,403,438)" stroke-linecap="butt" stroke="rgb(110,110,110)">
<ellipse rx="32.5" fill="none" ry="15" clip-path="url(#clipPath2)" cx="356.4951" cy="81.4175"/>
</g>
<g font-family="'Arial'" font-size="16" transform="matrix(1,0,0,1,403,438)">
<text x="340.9951" xml:space="preserve" y="87.2261" clip-path="url(#clipPath2)" stroke="none">SP1</text>
</g>
<g fill="white" transform="matrix(1,0,0,1,403,438)" stroke="white">
<circle r="15" clip-path="url(#clipPath2)" cx="-274.4462" cy="-124.9357" stroke="none"/>
</g>
<g fill="rgb(110,110,110)" stroke-miterlimit="1.45" transform="matrix(1,0,0,1,403,438)" stroke-linecap="butt" stroke="rgb(110,110,110)">
<circle fill="none" r="15" clip-path="url(#clipPath2)" cx="-274.4462" cy="-124.9357"/>
</g>
<g font-family="'Arial'" font-size="16" transform="matrix(1,0,0,1,403,438)">
<text x="-299.4462" xml:space="preserve" y="-119.1271" clip-path="url(#clipPath2)" stroke="none">TERF2</text>
</g>
<g fill="white" transform="matrix(1,0,0,1,403,438)" stroke="white">
<circle r="15" clip-path="url(#clipPath2)" cx="548.5" cy="-107.5" stroke="none"/>
</g>
<g fill="rgb(110,110,110)" stroke-miterlimit="1.45" transform="matrix(1,0,0,1,403,438)" stroke-linecap="butt" stroke="rgb(110,110,110)">
<circle fill="none" r="15" clip-path="url(#clipPath2)" cx="548.5" cy="-107.5"/>
</g>
<g font-family="'Arial'" font-size="16" transform="matrix(1,0,0,1,403,438)">
<text x="513" xml:space="preserve" y="-101.6914" clip-path="url(#clipPath2)" stroke="none">COL18A1</text>
</g>
<g fill="rgb(255,173,173)" transform="matrix(1,0,0,1,403,438)" stroke="rgb(255,173,173)">
<path d="M404.3224 -197.3224 L434.3224 -197.3224 L419.3224 -167.3224 Z" clip-path="url(#clipPath2)" fill-rule="evenodd" stroke="none"/>
</g>
<g fill="rgb(110,110,110)" stroke-miterlimit="1.45" transform="matrix(1,0,0,1,403,438)" stroke-linecap="butt" stroke="rgb(110,110,110)">
<path fill="none" d="M404.3224 -197.3224 L434.3224 -197.3224 L419.3224 -167.3224 Z" fill-rule="evenodd" clip-path="url(#clipPath2)"/>
</g>
<g font-family="'Arial'" font-size="16" transform="matrix(1,0,0,1,403,438)">
<text x="391.8224" xml:space="preserve" y="-176.5138" clip-path="url(#clipPath2)" stroke="none">MAPK1</text>
</g>
<g fill="white" transform="matrix(1,0,0,1,403,438)" stroke="white">
<ellipse rx="32.5" ry="15" clip-path="url(#clipPath2)" cx="-130.8483" cy="245.8378" stroke="none"/>
</g>
<g fill="rgb(110,110,110)" stroke-miterlimit="1.45" transform="matrix(1,0,0,1,403,438)" stroke-linecap="butt" stroke="rgb(110,110,110)">
<ellipse rx="32.5" fill="none" ry="15" clip-path="url(#clipPath2)" cx="-130.8483" cy="245.8378"/>
</g>
<g font-family="'Arial'" font-size="16" transform="matrix(1,0,0,1,403,438)">
<text x="-146.3483" xml:space="preserve" y="251.6464" clip-path="url(#clipPath2)" stroke="none">RB1</text>
</g>
<g fill="white" transform="matrix(1,0,0,1,403,438)" stroke="white">
<rect x="385.0748" width="30" height="30" y="-67.0517" clip-path="url(#clipPath2)" stroke="none"/>
</g>
<g fill="rgb(110,110,110)" stroke-miterlimit="1.45" transform="matrix(1,0,0,1,403,438)" stroke-linecap="butt" stroke="rgb(110,110,110)">
<rect fill="none" x="385.0748" width="30" height="30" y="-67.0517" clip-path="url(#clipPath2)"/>
</g>
<g font-family="'Arial'" font-size="16" transform="matrix(1,0,0,1,403,438)">
<text x="378.0748" xml:space="preserve" y="-46.2432" clip-path="url(#clipPath2)" stroke="none">IFNA2</text>
</g>
<g fill="rgb(255,224,224)" transform="matrix(1,0,0,1,403,438)" stroke="rgb(255,224,224)">
<ellipse rx="15" ry="32.5" clip-path="url(#clipPath2)" cx="684.3252" cy="22.7294" stroke="none"/>
</g>
<g fill="rgb(110,110,110)" stroke-miterlimit="1.45" transform="matrix(1,0,0,1,403,438)" stroke-linecap="butt" stroke="rgb(110,110,110)">
<ellipse rx="15" fill="none" ry="32.5" clip-path="url(#clipPath2)" cx="684.3252" cy="22.7294"/>
</g>
<g font-family="'Arial'" font-size="16" transform="matrix(1,0,0,1,403,438)">
<text x="651.8252" xml:space="preserve" y="28.538" clip-path="url(#clipPath2)" stroke="none">CHRNA3</text>
</g>
<g fill="white" transform="matrix(1,0,0,1,403,438)" stroke="white">
<ellipse rx="32.5" ry="15" clip-path="url(#clipPath2)" cx="590.5671" cy="177.9021" stroke="none"/>
</g>
<g fill="rgb(110,110,110)" stroke-miterlimit="1.45" transform="matrix(1,0,0,1,403,438)" stroke-linecap="butt" stroke="rgb(110,110,110)">
<ellipse rx="32.5" fill="none" ry="15" clip-path="url(#clipPath2)" cx="590.5671" cy="177.9021"/>
</g>
<g font-family="'Arial'" font-size="16" transform="matrix(1,0,0,1,403,438)">
<text x="566.0671" xml:space="preserve" y="183.7107" clip-path="url(#clipPath2)" stroke="none">STAT1</text>
</g>
<g fill="rgb(255,216,216)" transform="matrix(1,0,0,1,403,438)" stroke="rgb(255,216,216)">
<path d="M640.3406 -242.121 L670.3406 -242.121 L655.3406 -212.121 Z" clip-path="url(#clipPath2)" fill-rule="evenodd" stroke="none"/>
</g>
<g fill="rgb(110,110,110)" stroke-miterlimit="1.45" transform="matrix(1,0,0,1,403,438)" stroke-linecap="butt" stroke="rgb(110,110,110)">
<path fill="none" d="M640.3406 -242.121 L670.3406 -242.121 L655.3406 -212.121 Z" fill-rule="evenodd" clip-path="url(#clipPath2)"/>
</g>
<g font-family="'Arial'" font-size="16" transform="matrix(1,0,0,1,403,438)">
<text x="628.8406" xml:space="preserve" y="-221.3124" clip-path="url(#clipPath2)" stroke="none">EPHB1</text>
</g>
<g fill="rgb(72,255,72)" transform="matrix(1,0,0,1,403,438)" stroke="rgb(72,255,72)">
<circle r="15" clip-path="url(#clipPath2)" cx="127.8916" cy="296.4203" stroke="none"/>
</g>
<g fill="rgb(110,110,110)" stroke-miterlimit="1.45" transform="matrix(1,0,0,1,403,438)" stroke-linecap="butt" stroke="rgb(110,110,110)">
<circle fill="none" r="15" clip-path="url(#clipPath2)" cx="127.8916" cy="296.4203"/>
</g>
<g font-family="'Arial'" font-size="16" transform="matrix(1,0,0,1,403,438)">
<text x="104.8916" xml:space="preserve" y="302.2289" clip-path="url(#clipPath2)" stroke="none">BIRC5</text>
</g>
<g fill="white" transform="matrix(1,0,0,1,403,438)" stroke="white">
<path d="M-6.428 327.451 L8.572 294.951 L23.572 327.451 L8.572 359.951 Z" clip-path="url(#clipPath2)" fill-rule="evenodd" stroke="none"/>
</g>
<g fill="rgb(110,110,110)" stroke-miterlimit="1.45" transform="matrix(1,0,0,1,403,438)" stroke-linecap="butt" stroke="rgb(110,110,110)">
<path fill="none" d="M-6.428 327.451 L8.572 294.951 L23.572 327.451 L8.572 359.951 Z" fill-rule="evenodd" clip-path="url(#clipPath2)"/>
</g>
<g font-family="'Arial'" font-size="16" transform="matrix(1,0,0,1,403,438)">
<text x="-11.428" xml:space="preserve" y="333.2596" clip-path="url(#clipPath2)" stroke="none">TERT</text>
</g>
<g fill="white" transform="matrix(1,0,0,1,403,438)" stroke="white">
<rect x="301.0028" width="65" height="30" y="468.9021" clip-path="url(#clipPath2)" stroke="none"/>
</g>
<g fill="rgb(110,110,110)" stroke-miterlimit="1.45" transform="matrix(1,0,0,1,403,438)" stroke-linecap="butt" stroke="rgb(110,110,110)">
<rect fill="none" x="301.0028" width="65" height="30" y="468.9021" clip-path="url(#clipPath2)"/>
</g>
<g font-family="'Arial'" font-size="16" transform="matrix(1,0,0,1,403,438)">
<text x="312.5028" xml:space="preserve" y="489.7107" clip-path="url(#clipPath2)" stroke="none">ESR1</text>
</g>
<g fill="white" transform="matrix(1,0,0,1,403,438)" stroke="white">
<path d="M61.335 -261.0028 L76.335 -293.5028 L91.335 -261.0028 L76.335 -228.5028 Z" clip-path="url(#clipPath2)" fill-rule="evenodd" stroke="none"/>
</g>
<g fill="rgb(110,110,110)" stroke-miterlimit="1.45" transform="matrix(1,0,0,1,403,438)" stroke-linecap="butt" stroke="rgb(110,110,110)">
<path fill="none" d="M61.335 -261.0028 L76.335 -293.5028 L91.335 -261.0028 L76.335 -228.5028 Z" fill-rule="evenodd" clip-path="url(#clipPath2)"/>
</g>
<g font-family="'Arial'" font-size="16" transform="matrix(1,0,0,1,403,438)">
<text x="54.335" xml:space="preserve" y="-255.1942" clip-path="url(#clipPath2)" stroke="none">MSH6</text>
</g>
<g fill="rgb(255,224,224)" transform="matrix(1,0,0,1,403,438)" stroke="rgb(255,224,224)">
<ellipse rx="32.5" ry="15" clip-path="url(#clipPath2)" cx="187.6315" cy="619.7035" stroke="none"/>
</g>
<g fill="rgb(110,110,110)" stroke-miterlimit="1.45" transform="matrix(1,0,0,1,403,438)" stroke-linecap="butt" stroke="rgb(110,110,110)">
<ellipse rx="32.5" fill="none" ry="15" clip-path="url(#clipPath2)" cx="187.6315" cy="619.7035"/>
</g>
<g font-family="'Arial'" font-size="16" transform="matrix(1,0,0,1,403,438)">
<text x="165.1315" xml:space="preserve" y="625.5121" clip-path="url(#clipPath2)" stroke="none">MBD2</text>
</g>
<g fill="white" transform="matrix(1,0,0,1,403,438)" stroke="white">
<ellipse rx="32.5" ry="15" clip-path="url(#clipPath2)" cx="-239.142" cy="218.3657" stroke="none"/>
</g>
<g fill="rgb(110,110,110)" stroke-miterlimit="1.45" transform="matrix(1,0,0,1,403,438)" stroke-linecap="butt" stroke="rgb(110,110,110)">
<ellipse rx="32.5" fill="none" ry="15" clip-path="url(#clipPath2)" cx="-239.142" cy="218.3657"/>
</g>
<g font-family="'Arial'" font-size="16" transform="matrix(1,0,0,1,403,438)">
<text x="-254.642" xml:space="preserve" y="224.1743" clip-path="url(#clipPath2)" stroke="none">TBP</text>
</g>
<g fill="white" transform="matrix(1,0,0,1,403,438)" stroke="white">
<ellipse rx="32.5" ry="15" clip-path="url(#clipPath2)" cx="271.5105" cy="-170.3483" stroke="none"/>
</g>
<g fill="rgb(110,110,110)" stroke-miterlimit="1.45" transform="matrix(1,0,0,1,403,438)" stroke-linecap="butt" stroke="rgb(110,110,110)">
<ellipse rx="32.5" fill="none" ry="15" clip-path="url(#clipPath2)" cx="271.5105" cy="-170.3483"/>
</g>
<g font-family="'Arial'" font-size="16" transform="matrix(1,0,0,1,403,438)">
<text x="252.0105" xml:space="preserve" y="-164.5397" clip-path="url(#clipPath2)" stroke="none">E2F1</text>
</g>
<g fill="white" font-family="'新細明體'" transform="matrix(1,0,0,1,403,438) translate(-403,-439)" stroke="white">
<rect x="0" width="1205" height="30" y="0" clip-path="url(#clipPath6)" stroke="none"/>
</g>
<g fill="blue" font-size="16" font-family="'Arial'" transform="matrix(1,0,0,1,403,438) translate(-403,-439)" stroke="blue">
<text x="2" xml:space="preserve" y="17" clip-path="url(#clipPath6)" stroke="none">Network 1 : Observation 1 : lung_cord.txt : Observation 1</text>
</g>
<g fill="white" font-family="'Arial'" transform="matrix(1,0,0,1,403,438) translate(-403,674)" stroke="white">
<rect x="0" width="1197" height="27" y="0" clip-path="url(#clipPath7)" stroke="none"/>
<text fill="blue" x="3" xml:space="preserve" y="21" clip-path="url(#clipPath7)" stroke="none"> © 2000-2009 Ingenuity Systems, Inc. All rights reserved.</text>
</g>
<g fill="white" font-family="'Arial'" transform="matrix(1,0,0,1,403,438) translate(-403,674)" stroke="white">
<rect fill="none" x="0" width="1196" height="26" y="0" clip-path="url(#clipPath7)"/>
<rect fill="none" x="1" width="1194" height="24" y="1" clip-path="url(#clipPath7)"/>
<rect fill="none" x="2" width="1192" height="22" y="2" clip-path="url(#clipPath7)"/>
</g>
</g>
</svg>
