<?xml version="1.0" encoding="UTF-8"?>
<svg xmlns:xlink="http://www.w3.org/1999/xlink" xmlns="http://www.w3.org/2000/svg" fill-opacity="1" color-rendering="auto" color-interpolation="auto" stroke="black" text-rendering="auto" stroke-linecap="square" width="678" stroke-miterlimit="10" stroke-opacity="1" shape-rendering="auto" fill="black" stroke-dasharray="none" font-weight="normal" stroke-width="1" height="665" font-family="'Dialog'" font-style="normal" stroke-linejoin="miter" font-size="12" stroke-dashoffset="0" image-rendering="auto">
<!--Generated by ySVG-->
<defs id="genericDefs"/>
<g>
<defs id="defs1">
<clipPath clipPathUnits="userSpaceOnUse" id="clipPath1">
<path d="M0 0 L678 0 L678 665 L0 665 L0 0 Z"/>
</clipPath>
<clipPath clipPathUnits="userSpaceOnUse" id="clipPath2">
<path d="M-205 -171 L473 -171 L473 494 L-205 494 L-205 -171 Z"/>
</clipPath>
<clipPath clipPathUnits="userSpaceOnUse" id="clipPath3">
<path d="M0 1 L678 1 L678 666 L0 666 L0 1 Z"/>
</clipPath>
<clipPath clipPathUnits="userSpaceOnUse" id="clipPath4">
<path d="M0 -640 L678 -640 L678 25 L0 25 L0 -640 Z"/>
</clipPath>
</defs>
<g fill="white" transform="translate(205,171)" stroke="white">
<rect x="-205" width="678" height="665" y="-171" clip-path="url(#clipPath2)" stroke="none"/>
</g>
<g stroke-linecap="butt" transform="matrix(1,0,0,1,205,171)" fill="rgb(110,110,110)" stroke-dasharray="12,4" stroke="rgb(110,110,110)" stroke-width="2" stroke-miterlimit="1.45">
<path fill="none" d="M-59.1351 3.6941 L-19.7107 -89.1101" clip-path="url(#clipPath2)"/>
<path d="M-14.8722 -100.5 L-26.3633 -90.7139 L-13.9379 -85.4355 Z" clip-path="url(#clipPath2)" stroke="none"/>
<path fill="none" stroke-dasharray="none" d="M214.5 336.7563 L290.7347 302.4827" clip-path="url(#clipPath2)"/>
<path stroke-dasharray="none" d="M302.0215 297.4084 L286.9408 296.7876 L292.4764 309.1005 Z" clip-path="url(#clipPath2)" stroke="none"/>
<path fill="none" d="M214.0291 239.9779 L291.3975 277.0229" clip-path="url(#clipPath2)"/>
<path d="M302.559 282.3672 L293.2979 270.449 L287.4677 282.6252 Z" clip-path="url(#clipPath2)" stroke="none"/>
<path fill="none" stroke-dasharray="none" d="M-33.0262 230.6382 L-31.5 223 L-31.9063 218.9693 L-33.0717 215.2151 L-34.9157 211.8178 L-37.3579 208.8579 L-40.3178 206.4157 L-43.7151 204.5717 L-47.4693 203.4063 L-51.5 203 L-55.5307 203.4063 L-59.2849 204.5717 L-62.6822 206.4157 L-65.6421 208.8579 L-68.0843 211.8178 L-69.9283 215.2151 L-70.8849 218.2968 L-70.8754 218.3964" clip-path="url(#clipPath2)"/>
<path stroke-dasharray="none" d="M-69.6934 230.7148 L-64.2637 216.6318 L-77.702 217.9212 Z" clip-path="url(#clipPath2)" stroke="none"/>
<path fill="none" d="M361.9485 -8.4319 L367.6422 -12.3579 L370.0843 -15.3178 L371.9283 -18.7151 L373.0937 -22.4693 L373.5 -26.5 L373.0937 -30.5307 L371.9283 -34.2849 L370.0843 -37.6822 L367.6422 -40.6421 L364.6822 -43.0843 L361.2849 -44.9283 L357.5307 -46.0937 L353.5 -46.5 L349.4693 -46.0937 L345.7151 -44.9283 L342.3178 -43.0843 L339.3578 -40.6421 L336.9157 -37.6822 L335.0717 -34.2849 L333.9063 -30.5307 L333.5 -26.5 L333.9063 -22.4693 L335.0717 -18.7151 L336.0462 -16.9197 L336.1225 -16.8551" clip-path="url(#clipPath2)"/>
<path d="M345.5681 -8.86 L339.6248 -22.7341 L330.9029 -12.4298 Z" clip-path="url(#clipPath2)" stroke="none"/>
<path fill="none" d="M81.5 168.5 L81.5 241.1232" clip-path="url(#clipPath2)"/>
<path d="M81.5 253.4982 L88.25 239.9982 L74.75 239.9982 Z" clip-path="url(#clipPath2)" stroke="none"/>
<path fill="none" d="M112.2249 148.6105 L286.9652 120.8023" clip-path="url(#clipPath2)"/>
<path d="M299.1864 118.8574 L284.7933 114.313 L286.915 127.6452 Z" clip-path="url(#clipPath2)" stroke="none"/>
<path fill="none" d="M99.8947 165.8662 L177.7815 218.2271" clip-path="url(#clipPath2)"/>
<path d="M188.0515 225.1313 L180.6138 211.9976 L173.082 223.2012 Z" clip-path="url(#clipPath2)" stroke="none"/>
<path fill="none" d="M67.0314 140.0684 L-44.9373 36.1247" clip-path="url(#clipPath2)"/>
<path d="M-54.0068 27.7053 L-48.7052 41.8371 L-39.5204 31.9432 Z" clip-path="url(#clipPath2)" stroke="none"/>
<path fill="none" d="M184.5 353.4305 L114.326 399.8883" clip-path="url(#clipPath2)"/>
<path d="M104.0074 406.7196 L118.9903 404.8956 L111.5379 393.6389 Z" clip-path="url(#clipPath2)" stroke="none"/>
<path fill="none" d="M199.6364 328.5 L200.2511 260.8739" clip-path="url(#clipPath2)"/>
<path d="M200.3636 248.4994 L193.4912 261.9375 L206.9906 262.0602 Z" clip-path="url(#clipPath2)" stroke="none"/>
<path fill="none" stroke-dasharray="none" d="M63.1176 165.8701 L-22.8508 223.721" clip-path="url(#clipPath2)"/>
<path stroke-dasharray="none" d="M-33.1176 230.6299 L-18.149 228.6931 L-25.6859 217.4929 Z" clip-path="url(#clipPath2)" stroke="none"/>
<path fill="none" stroke-dasharray="none" d="M184.5 336.1907 L104.8709 297.3883" clip-path="url(#clipPath2)"/>
<path stroke-dasharray="none" d="M93.7463 291.9675 L102.9254 303.9491 L108.839 291.8132 Z" clip-path="url(#clipPath2)" stroke="none"/>
<path fill="none" stroke-dasharray="none" d="M396.6115 158.6078 L359.2051 15.3494" clip-path="url(#clipPath2)"/>
<path stroke-dasharray="none" d="M356.0787 3.3758 L352.9583 18.1432 L366.0204 14.7326 Z" clip-path="url(#clipPath2)" stroke="none"/>
<path fill="none" stroke-dasharray="none" d="M373.2506 181.6748 L226.7205 225.6339" clip-path="url(#clipPath2)"/>
<path stroke-dasharray="none" d="M214.8674 229.1898 L229.7376 231.7759 L225.8584 218.8452 Z" clip-path="url(#clipPath2)" stroke="none"/>
<path fill="none" d="M6.5 -111.0294 L92.7654 -85.3189" clip-path="url(#clipPath2)"/>
<path d="M104.6249 -81.7843 L93.6152 -92.1091 L89.7593 -79.1715 Z" clip-path="url(#clipPath2)" stroke="none"/>
<path fill="none" d="M344.6547 -9.1781 L145.2004 -69.5673" clip-path="url(#clipPath2)"/>
<path d="M133.3564 -73.1533 L144.3211 -62.7809 L148.2332 -75.7016 Z" clip-path="url(#clipPath2)" stroke="none"/>
<path fill="none" d="M339.3271 -21.5201 L280.2873 -84.0895" clip-path="url(#clipPath2)"/>
<path d="M271.7944 -93.0901 L276.15 -78.6388 L285.9688 -87.9038 Z" clip-path="url(#clipPath2)" stroke="none"/>
<path fill="none" stroke-dasharray="none" d="M350.5587 2.6589 L322.3701 90.436" clip-path="url(#clipPath2)"/>
<path stroke-dasharray="none" d="M318.5864 102.2184 L329.1409 91.4288 L316.2874 87.301 Z" clip-path="url(#clipPath2)" stroke="none"/>
<path fill="none" stroke-dasharray="none" d="M133.7472 -80.2425 L246.7528 -101.2575" clip-path="url(#clipPath2)"/>
<path fill="none" stroke-dasharray="none" d="M177.0469 68.9777 L124.5262 -63.5551" clip-path="url(#clipPath2)"/>
<path fill="none" stroke-dasharray="none" d="M303.3662 105.9207 L129.6338 -66.9207" clip-path="url(#clipPath2)"/>
<path fill="none" stroke-dasharray="none" d="M115.0057 -63.0416 L87.6459 35.9931" clip-path="url(#clipPath2)"/>
<path fill="none" stroke-dasharray="none" d="M-59.4125 109.4792 L-64.0905 32.4724" clip-path="url(#clipPath2)"/>
<path fill="none" stroke-dasharray="none" d="M-50.3677 20.8009 L75.0352 49.0904" clip-path="url(#clipPath2)"/>
<path fill="none" stroke-dasharray="none" d="M51.8494 147.3581 L-51.684 125.9119" clip-path="url(#clipPath2)"/>
<path fill="none" stroke-dasharray="none" d="M-135.1125 -6.3291 L-79.2022 12.6731" clip-path="url(#clipPath2)"/>
<path fill="none" stroke-dasharray="none" d="M173.9877 81.011 L89.9066 53.1248" clip-path="url(#clipPath2)"/>
<path fill="none" stroke-dasharray="none" d="M105.6716 -70.6185 L-51.6716 10.6185" clip-path="url(#clipPath2)"/>
<path fill="none" stroke-dasharray="none" d="M99.6652 141.0618 L177.4254 87.8171" clip-path="url(#clipPath2)"/>
<path fill="none" stroke-dasharray="none" d="M81.7927 138.5006 L83.2191 65.3983" clip-path="url(#clipPath2)"/>
<path fill="none" stroke-dasharray="none" d="M255.7203 -90.1582 L189.2672 68.9908" clip-path="url(#clipPath2)"/>
</g>
<g fill="white" transform="matrix(1,0,0,1,205,171)" stroke="white">
<circle r="15" clip-path="url(#clipPath2)" cx="261.5" cy="-104" stroke="none"/>
</g>
<g fill="rgb(110,110,110)" stroke-miterlimit="1.45" transform="matrix(1,0,0,1,205,171)" stroke-linecap="butt" stroke="rgb(110,110,110)">
<circle fill="none" r="15" clip-path="url(#clipPath2)" cx="261.5" cy="-104"/>
</g>
<g font-family="'Arial'" font-size="16" transform="matrix(1,0,0,1,205,171)">
<text x="240" xml:space="preserve" y="-98.1914" clip-path="url(#clipPath2)" stroke="none">SHC1</text>
</g>
<g fill="white" transform="matrix(1,0,0,1,205,171)" stroke="white">
<path d="M68.5 36 L98.5 36 L83.5 66 Z" clip-path="url(#clipPath2)" fill-rule="evenodd" stroke="none"/>
</g>
<g fill="rgb(110,110,110)" stroke-miterlimit="1.45" transform="matrix(1,0,0,1,205,171)" stroke-linecap="butt" stroke="rgb(110,110,110)">
<path fill="none" d="M68.5 36 L98.5 36 L83.5 66 Z" fill-rule="evenodd" clip-path="url(#clipPath2)"/>
</g>
<g font-family="'Arial'" font-size="16" transform="matrix(1,0,0,1,205,171)">
<text x="57" xml:space="preserve" y="56.8086" clip-path="url(#clipPath2)" stroke="none">ERBB2</text>
</g>
<g fill="white" transform="matrix(1,0,0,1,205,171)" stroke="white">
<ellipse rx="32.5" ry="15" clip-path="url(#clipPath2)" cx="81.5" cy="153.5" stroke="none"/>
</g>
<g fill="rgb(110,110,110)" stroke-miterlimit="1.45" transform="matrix(1,0,0,1,205,171)" stroke-linecap="butt" stroke="rgb(110,110,110)">
<ellipse rx="32.5" fill="none" ry="15" clip-path="url(#clipPath2)" cx="81.5" cy="153.5"/>
</g>
<g font-family="'Arial'" font-size="16" transform="matrix(1,0,0,1,205,171)">
<text x="50" xml:space="preserve" y="159.3086" clip-path="url(#clipPath2)" stroke="none">CTNNB1</text>
</g>
<g fill="white" transform="matrix(1,0,0,1,205,171)" stroke="white">
<path d="M66.5 286 L81.5 253.5 L96.5 286 L81.5 318.5 Z" clip-path="url(#clipPath2)" fill-rule="evenodd" stroke="none"/>
</g>
<g fill="rgb(110,110,110)" stroke-miterlimit="1.45" transform="matrix(1,0,0,1,205,171)" stroke-linecap="butt" stroke="rgb(110,110,110)">
<path fill="none" d="M66.5 286 L81.5 253.5 L96.5 286 L81.5 318.5 Z" fill-rule="evenodd" clip-path="url(#clipPath2)"/>
</g>
<g font-family="'Arial'" font-size="16" transform="matrix(1,0,0,1,205,171)">
<text x="63.5" xml:space="preserve" y="291.8086" clip-path="url(#clipPath2)" stroke="none">IDO1</text>
</g>
<g fill="white" transform="matrix(1,0,0,1,205,171)" stroke="white">
<circle r="15" clip-path="url(#clipPath2)" cx="314" cy="116.5" stroke="none"/>
</g>
<g fill="rgb(110,110,110)" stroke-miterlimit="1.45" transform="matrix(1,0,0,1,205,171)" stroke-linecap="butt" stroke="rgb(110,110,110)">
<circle fill="none" r="15" clip-path="url(#clipPath2)" cx="314" cy="116.5"/>
</g>
<g font-family="'Arial'" font-size="16" transform="matrix(1,0,0,1,205,171)">
<text x="297" xml:space="preserve" y="122.3086" clip-path="url(#clipPath2)" stroke="none">IRS1</text>
</g>
<g fill="white" transform="matrix(1,0,0,1,205,171)" stroke="white">
<path d="M168 69 L198 69 L183 99 Z" clip-path="url(#clipPath2)" fill-rule="evenodd" stroke="none"/>
</g>
<g fill="rgb(110,110,110)" stroke-miterlimit="1.45" transform="matrix(1,0,0,1,205,171)" stroke-linecap="butt" stroke="rgb(110,110,110)">
<path fill="none" d="M168 69 L198 69 L183 99 Z" fill-rule="evenodd" clip-path="url(#clipPath2)"/>
</g>
<g font-family="'Arial'" font-size="16" transform="matrix(1,0,0,1,205,171)">
<text x="161" xml:space="preserve" y="89.8086" clip-path="url(#clipPath2)" stroke="none">EGFR</text>
</g>
<g fill="white" transform="matrix(1,0,0,1,205,171)" stroke="white">
<circle r="15" clip-path="url(#clipPath2)" cx="-65" cy="17.5" stroke="none"/>
</g>
<g fill="rgb(110,110,110)" stroke-miterlimit="1.45" transform="matrix(1,0,0,1,205,171)" stroke-linecap="butt" stroke="rgb(110,110,110)">
<circle fill="none" r="15" clip-path="url(#clipPath2)" cx="-65" cy="17.5"/>
</g>
<g font-family="'Arial'" font-size="16" transform="matrix(1,0,0,1,205,171)">
<text x="-86" xml:space="preserve" y="23.3086" clip-path="url(#clipPath2)" stroke="none">CD44</text>
</g>
<g fill="rgb(255,170,170)" transform="matrix(1,0,0,1,205,171)" stroke="rgb(255,170,170)">
<circle r="15" clip-path="url(#clipPath2)" cx="91.5" cy="415" stroke="none"/>
</g>
<g fill="rgb(110,110,110)" stroke-miterlimit="1.45" transform="matrix(1,0,0,1,205,171)" stroke-linecap="butt" stroke="rgb(110,110,110)">
<circle fill="none" r="15" clip-path="url(#clipPath2)" cx="91.5" cy="415"/>
</g>
<g font-family="'Arial'" font-size="16" transform="matrix(1,0,0,1,205,171)">
<text x="69.5" xml:space="preserve" y="420.8086" clip-path="url(#clipPath2)" stroke="none">PUM1</text>
</g>
<g fill="rgb(221,255,221)" transform="matrix(1,0,0,1,205,171)" stroke="rgb(221,255,221)">
<circle r="15" clip-path="url(#clipPath2)" cx="200.5" cy="233.5" stroke="none"/>
</g>
<g fill="rgb(110,110,110)" stroke-miterlimit="1.45" transform="matrix(1,0,0,1,205,171)" stroke-linecap="butt" stroke="rgb(110,110,110)">
<circle fill="none" r="15" clip-path="url(#clipPath2)" cx="200.5" cy="233.5"/>
</g>
<g font-family="'Arial'" font-size="16" transform="matrix(1,0,0,1,205,171)">
<text x="161.5" xml:space="preserve" y="239.3086" clip-path="url(#clipPath2)" stroke="none">SERPINA1</text>
</g>
<g fill="white" transform="matrix(1,0,0,1,205,171)" stroke="white">
<path d="M286 290 L318.5 275 L351 290 L318.5 305 Z" clip-path="url(#clipPath2)" fill-rule="evenodd" stroke="none"/>
</g>
<g fill="rgb(110,110,110)" stroke-miterlimit="1.45" transform="matrix(1,0,0,1,205,171)" stroke-linecap="butt" stroke="rgb(110,110,110)">
<path fill="none" d="M286 290 L318.5 275 L351 290 L318.5 305 Z" fill-rule="evenodd" clip-path="url(#clipPath2)"/>
</g>
<g font-family="'Arial'" font-size="16" transform="matrix(1,0,0,1,205,171)">
<text x="295.5" xml:space="preserve" y="295.8086" clip-path="url(#clipPath2)" stroke="none">MMP9</text>
</g>
<g fill="white" transform="matrix(1,0,0,1,205,171)" stroke="white">
<rect x="-23.5" width="30" height="30" y="-130.5" clip-path="url(#clipPath2)" stroke="none"/>
</g>
<g fill="rgb(110,110,110)" stroke-miterlimit="1.45" transform="matrix(1,0,0,1,205,171)" stroke-linecap="butt" stroke="rgb(110,110,110)">
<rect fill="none" x="-23.5" width="30" height="30" y="-130.5" clip-path="url(#clipPath2)"/>
</g>
<g font-family="'Arial'" font-size="16" transform="matrix(1,0,0,1,205,171)">
<text x="-29.5" xml:space="preserve" y="-109.6914" clip-path="url(#clipPath2)" stroke="none">CSF1</text>
</g>
<g fill="white" transform="matrix(1,0,0,1,205,171)" stroke="white">
<ellipse rx="32.5" ry="15" clip-path="url(#clipPath2)" cx="400.5" cy="173.5" stroke="none"/>
</g>
<g fill="rgb(110,110,110)" stroke-miterlimit="1.45" transform="matrix(1,0,0,1,205,171)" stroke-linecap="butt" stroke="rgb(110,110,110)">
<ellipse rx="32.5" fill="none" ry="15" clip-path="url(#clipPath2)" cx="400.5" cy="173.5"/>
</g>
<g font-family="'Arial'" font-size="16" transform="matrix(1,0,0,1,205,171)">
<text x="374.5" xml:space="preserve" y="179.3086" clip-path="url(#clipPath2)" stroke="none">HNF1A</text>
</g>
<g fill="rgb(255,180,180)" transform="matrix(1,0,0,1,205,171)" stroke="rgb(255,180,180)">
<path d="M-156.5 -23.5 L-126.5 -23.5 L-141.5 6.5 Z" clip-path="url(#clipPath2)" fill-rule="evenodd" stroke="none"/>
</g>
<g fill="rgb(110,110,110)" stroke-miterlimit="1.45" transform="matrix(1,0,0,1,205,171)" stroke-linecap="butt" stroke="rgb(110,110,110)">
<path fill="none" d="M-156.5 -23.5 L-126.5 -23.5 L-141.5 6.5 Z" fill-rule="evenodd" clip-path="url(#clipPath2)"/>
</g>
<g font-family="'Arial'" font-size="16" transform="matrix(1,0,0,1,205,171)">
<text x="-162.5" xml:space="preserve" y="-2.6914" clip-path="url(#clipPath2)" stroke="none">PKN2</text>
</g>
<g fill="rgb(210,255,210)" transform="matrix(1,0,0,1,205,171)" stroke="rgb(210,255,210)">
<circle r="15" clip-path="url(#clipPath2)" cx="119" cy="-77.5" stroke="none"/>
</g>
<g fill="rgb(110,110,110)" stroke-miterlimit="1.45" transform="matrix(1,0,0,1,205,171)" stroke-linecap="butt" stroke="rgb(110,110,110)">
<circle fill="none" r="15" clip-path="url(#clipPath2)" cx="119" cy="-77.5"/>
</g>
<g font-family="'Arial'" font-size="16" transform="matrix(1,0,0,1,205,171)">
<text x="97.5" xml:space="preserve" y="-71.6914" clip-path="url(#clipPath2)" stroke="none">GRB2</text>
</g>
<g fill="white" transform="matrix(1,0,0,1,205,171)" stroke="white">
<rect x="184.5" width="30" height="30" y="328.5" clip-path="url(#clipPath2)" stroke="none"/>
</g>
<g fill="rgb(110,110,110)" stroke-miterlimit="1.45" transform="matrix(1,0,0,1,205,171)" stroke-linecap="butt" stroke="rgb(110,110,110)">
<rect fill="none" x="184.5" width="30" height="30" y="328.5" clip-path="url(#clipPath2)"/>
</g>
<g font-family="'Arial'" font-size="16" transform="matrix(1,0,0,1,205,171)">
<text x="177.5" xml:space="preserve" y="349.3086" clip-path="url(#clipPath2)" stroke="none">IFNB1</text>
</g>
<g fill="white" transform="matrix(1,0,0,1,205,171)" stroke="white">
<path d="M-73.5 109.5 L-43.5 109.5 L-58.5 139.5 Z" clip-path="url(#clipPath2)" fill-rule="evenodd" stroke="none"/>
</g>
<g fill="rgb(110,110,110)" stroke-miterlimit="1.45" transform="matrix(1,0,0,1,205,171)" stroke-linecap="butt" stroke="rgb(110,110,110)">
<path fill="none" d="M-73.5 109.5 L-43.5 109.5 L-58.5 139.5 Z" fill-rule="evenodd" clip-path="url(#clipPath2)"/>
</g>
<g font-family="'Arial'" font-size="16" transform="matrix(1,0,0,1,205,171)">
<text x="-92" xml:space="preserve" y="130.3086" clip-path="url(#clipPath2)" stroke="none">PDGFRB</text>
</g>
<g fill="rgb(255,221,221)" transform="matrix(1,0,0,1,205,171)" stroke="rgb(255,221,221)">
<path d="M338.5 -21.5 L368.5 -21.5 L353.5 8.5 Z" clip-path="url(#clipPath2)" fill-rule="evenodd" stroke="none"/>
</g>
<g fill="rgb(110,110,110)" stroke-miterlimit="1.45" transform="matrix(1,0,0,1,205,171)" stroke-linecap="butt" stroke="rgb(110,110,110)">
<path fill="none" d="M338.5 -21.5 L368.5 -21.5 L353.5 8.5 Z" fill-rule="evenodd" clip-path="url(#clipPath2)"/>
</g>
<g font-family="'Arial'" font-size="16" transform="matrix(1,0,0,1,205,171)">
<text x="332.5" xml:space="preserve" y="-0.6914" clip-path="url(#clipPath2)" stroke="none">INSR*</text>
</g>
<g fill="rgb(255,203,203)" transform="matrix(1,0,0,1,205,171)" stroke="rgb(255,203,203)">
<ellipse rx="32.5" ry="15" clip-path="url(#clipPath2)" cx="-51.5" cy="243" stroke="none"/>
</g>
<g fill="rgb(110,110,110)" stroke-miterlimit="1.45" transform="matrix(1,0,0,1,205,171)" stroke-linecap="butt" stroke="rgb(110,110,110)">
<ellipse rx="32.5" fill="none" ry="15" clip-path="url(#clipPath2)" cx="-51.5" cy="243"/>
</g>
<g font-family="'Arial'" font-size="16" transform="matrix(1,0,0,1,205,171)">
<text x="-67" xml:space="preserve" y="248.8086" clip-path="url(#clipPath2)" stroke="none">ILF3</text>
</g>
<g fill="white" font-family="'新細明體'" transform="matrix(1,0,0,1,205,171) translate(-205,-172)" stroke="white">
<rect x="0" width="686" height="30" y="0" clip-path="url(#clipPath3)" stroke="none"/>
</g>
<g fill="blue" font-size="16" font-family="'Arial'" transform="matrix(1,0,0,1,205,171) translate(-205,-172)" stroke="blue">
<text x="2" xml:space="preserve" y="17" clip-path="url(#clipPath3)" stroke="none">Network 3 : Observation 1 : lung_cord.txt : Observation 1</text>
</g>
<g fill="white" font-family="'Arial'" transform="matrix(1,0,0,1,205,171) translate(-205,469)" stroke="white">
<rect x="0" width="678" height="27" y="0" clip-path="url(#clipPath4)" stroke="none"/>
<text fill="blue" x="3" xml:space="preserve" y="21" clip-path="url(#clipPath4)" stroke="none"> © 2000-2009 Ingenuity Systems, Inc. All rights reserved.</text>
</g>
<g fill="white" font-family="'Arial'" transform="matrix(1,0,0,1,205,171) translate(-205,469)" stroke="white">
<rect fill="none" x="0" width="677" height="26" y="0" clip-path="url(#clipPath4)"/>
<rect fill="none" x="1" width="675" height="24" y="1" clip-path="url(#clipPath4)"/>
<rect fill="none" x="2" width="673" height="22" y="2" clip-path="url(#clipPath4)"/>
</g>
</g>
</svg>
