<?xml version="1.0" encoding="UTF-8"?>
<svg xmlns:xlink="http://www.w3.org/1999/xlink" xmlns="http://www.w3.org/2000/svg" fill-opacity="1" color-rendering="auto" color-interpolation="auto" stroke="black" text-rendering="auto" stroke-linecap="square" width="1292" stroke-miterlimit="10" stroke-opacity="1" shape-rendering="auto" fill="black" stroke-dasharray="none" font-weight="normal" stroke-width="1" height="966" font-family="'Dialog'" font-style="normal" stroke-linejoin="miter" font-size="12" stroke-dashoffset="0" image-rendering="auto">
<!--Generated by ySVG-->
<defs id="genericDefs"/>
<g>
<defs id="defs1">
<clipPath clipPathUnits="userSpaceOnUse" id="clipPath1">
<path d="M0 0 L1292 0 L1292 966 L0 966 L0 0 Z"/>
</clipPath>
<clipPath clipPathUnits="userSpaceOnUse" id="clipPath2">
<path d="M-459 -301 L833 -301 L833 665 L-459 665 L-459 -301 Z"/>
</clipPath>
<clipPath clipPathUnits="userSpaceOnUse" id="clipPath3">
<path d="M128.1137 -475.5399 L303.5674 659.4229 L-545.0193 790.6058 L-720.4731 -344.357 L128.1137 -475.5399 Z"/>
</clipPath>
<clipPath clipPathUnits="userSpaceOnUse" id="clipPath4">
<path d="M-1031.6024 -30.2009 L-98.2897 -699.4183 L402.0695 -1.601 L-531.2432 667.6165 L-1031.6024 -30.2009 Z"/>
</clipPath>
<clipPath clipPathUnits="userSpaceOnUse" id="clipPath5">
<path d="M122.521 -373.908 L-43.106 762.5305 L-892.796 638.6948 L-727.1691 -497.7436 L122.521 -373.908 Z"/>
</clipPath>
<clipPath clipPathUnits="userSpaceOnUse" id="clipPath6">
<path d="M443.5051 594.3336 L-671.1581 317.8366 L-464.4275 -515.5726 L650.2358 -239.0756 L443.5051 594.3336 Z"/>
</clipPath>
<clipPath clipPathUnits="userSpaceOnUse" id="clipPath7">
<path d="M268.8771 -215.5229 L-272.0038 797.5775 L-1029.4767 393.1727 L-488.5958 -619.9277 L268.8771 -215.5229 Z"/>
</clipPath>
<clipPath clipPathUnits="userSpaceOnUse" id="clipPath8">
<path d="M-881.1003 150.2519 L-217.0338 -786.7328 L483.5291 -290.2248 L-180.5375 646.7598 L-881.1003 150.2519 Z"/>
</clipPath>
<clipPath clipPathUnits="userSpaceOnUse" id="clipPath9">
<path d="M0 1 L1292 1 L1292 967 L0 967 L0 1 Z"/>
</clipPath>
<clipPath clipPathUnits="userSpaceOnUse" id="clipPath10">
<path d="M0 -941 L1292 -941 L1292 25 L0 25 L0 -941 Z"/>
</clipPath>
</defs>
<g fill="white" transform="translate(459,301)" stroke="white">
<rect x="-459" width="1292" height="966" y="-301" clip-path="url(#clipPath2)" stroke="none"/>
</g>
<g fill="rgb(110,110,110)" stroke-width="2" stroke-miterlimit="1.45" transform="matrix(1,0,0,1,459,301)" stroke-linecap="butt" stroke="rgb(110,110,110)">
<path fill="none" d="M412.3527 146.2133 L433.1631 55.0233" clip-path="url(#clipPath2)"/>
<path d="M409.5994 158.2781 L419.1838 146.6183 L406.0222 143.6147 Z" clip-path="url(#clipPath2)" stroke="none"/>
<path d="M435.9164 42.9585 L426.3319 54.6183 L439.4936 57.6219 Z" clip-path="url(#clipPath2)" stroke="none"/>
<path fill="none" d="M280.9865 219.0327 L55.2096 102.8867" clip-path="url(#clipPath2)"/>
<path d="M291.9908 224.6936 L283.0739 212.5157 L276.8983 224.5204 Z" clip-path="url(#clipPath2)" stroke="none"/>
<path d="M44.2053 97.2258 L53.1222 109.4037 L59.2977 97.399 Z" clip-path="url(#clipPath2)" stroke="none"/>
<path fill="none" stroke-dasharray="12,4" d="M-150.1368 356.1923 L32.0859 509.9377" clip-path="url(#clipPath2)"/>
<path stroke-dasharray="12,4" d="M41.5441 517.9178 L35.5788 504.0532 L26.8732 514.3712 Z" clip-path="url(#clipPath2)" stroke="none"/>
<path fill="none" stroke-dasharray="12,4" d="M-98.9571 -157.5729 L134.0583 -188.661" clip-path="url(#clipPath2)"/>
<path stroke-dasharray="12,4" d="M146.3246 -190.2975 L132.0505 -195.2029 L133.8358 -181.8215 Z" clip-path="url(#clipPath2)" stroke="none"/>
<path fill="none" d="M252.1183 -93.7761 L48.7443 65.5074" clip-path="url(#clipPath2)"/>
<path d="M39.0017 73.1378 L53.792 70.1278 L45.4679 59.4996 Z" clip-path="url(#clipPath2)" stroke="none"/>
<path fill="none" stroke-dasharray="12,4" d="M425.4695 158.2767 L426.1763 153.2781 L425.77 149.2474 L424.6046 145.4932 L422.7606 142.0959 L420.3185 139.136 L417.3585 136.6938 L413.9612 134.8498 L410.207 133.6844 L406.1763 133.2781 L402.1456 133.6844 L398.3914 134.8498 L394.9941 136.6938 L392.0342 139.136 L389.592 142.0959 L387.748 145.4932 L387.6145 145.9233 L387.6178 146.0233" clip-path="url(#clipPath2)"/>
<path stroke-dasharray="12,4" d="M388.0295 158.3914 L394.3267 144.6744 L380.8341 145.1234 Z" clip-path="url(#clipPath2)" stroke="none"/>
<path fill="none" stroke-dasharray="12,4" d="M-138.3939 334.6443 L154.6652 237.2009" clip-path="url(#clipPath2)"/>
<path stroke-dasharray="12,4" d="M-150.1368 338.5489 L-135.1966 340.6946 L-139.4561 327.8842 Z" clip-path="url(#clipPath2)" stroke="none"/>
<path stroke-dasharray="12,4" d="M166.408 233.2964 L151.4679 231.1507 L155.7274 243.9611 Z" clip-path="url(#clipPath2)" stroke="none"/>
<path fill="none" d="M24.8145 71.0988 L46.8237 -71.2731" clip-path="url(#clipPath2)"/>
<rect x="-5" y="-6" transform="matrix(0.1719,-1.1118,1.1118,0.1719,47.6831,-76.832)" clip-path="url(#clipPath3)" width="1" height="12" stroke="none"/>
</g>
<g fill="rgb(110,110,110)" stroke-width="2" stroke-miterlimit="1.45" transform="matrix(1,0,0,1,459,301)" stroke-linecap="butt" stroke="rgb(110,110,110)">
<path fill="none" d="M40.092 98.6738 L459.7832 399.6069" clip-path="url(#clipPath2)"/>
<rect x="-5" y="-6" transform="matrix(0.9143,0.6556,-0.6556,0.9143,464.3545,402.8846)" clip-path="url(#clipPath4)" width="1" height="12" stroke="none"/>
</g>
<g fill="rgb(110,110,110)" stroke-width="2" stroke-miterlimit="1.45" transform="matrix(1,0,0,1,459,301)" stroke-linecap="butt" stroke="rgb(110,110,110)">
<path fill="none" d="M20.3203 71.0946 L-22.0612 -219.7037" clip-path="url(#clipPath2)"/>
<rect x="-5" y="-6" transform="matrix(-0.1622,-1.1132,1.1132,-0.1622,-22.8725,-225.2699)" clip-path="url(#clipPath5)" width="1" height="12" stroke="none"/>
</g>
<g fill="rgb(110,110,110)" stroke-width="2" stroke-miterlimit="1.45" transform="matrix(1,0,0,1,459,301)" stroke-linecap="butt" stroke="rgb(110,110,110)">
<path fill="none" d="M373.6763 181.3399 L191.7032 226.4791" clip-path="url(#clipPath2)"/>
<rect x="-5" y="-6" transform="matrix(-1.0919,0.2709,-0.2709,-1.0919,186.2436,227.8333)" clip-path="url(#clipPath6)" width="1" height="12" stroke="none"/>
</g>
<g fill="rgb(110,110,110)" stroke-width="2" stroke-miterlimit="1.45" transform="matrix(1,0,0,1,459,301)" stroke-linecap="butt" stroke="rgb(110,110,110)">
<path fill="none" d="M14.7258 71.4964 L-94.7017 -133.4675" clip-path="url(#clipPath2)"/>
<polygon clip-path="url(#clipPath7)" transform="matrix(-0.5298,-0.9924,0.9924,-0.5298,-102.6493,-148.3538)" points=" -12 -6 0 0 -12 6 -12 -6" stroke="none"/>
<rect x="-15" y="-6" transform="matrix(-0.5298,-0.9924,0.9924,-0.5298,-102.6493,-148.3538)" clip-path="url(#clipPath7)" width="1" height="12" stroke="none"/>
</g>
<g fill="rgb(110,110,110)" stroke-width="2" stroke-miterlimit="1.45" transform="matrix(1,0,0,1,459,301)" stroke-linecap="butt" stroke="rgb(110,110,110)">
<path fill="none" d="M32.6056 100.3175 L242.3169 396.2159" clip-path="url(#clipPath2)"/>
<polygon clip-path="url(#clipPath8)" transform="matrix(0.6505,0.9179,-0.9179,0.6505,252.0745,409.9837)" points=" -12 -6 0 0 -12 6 -12 -6" stroke="none"/>
<rect x="-15" y="-6" transform="matrix(0.6505,0.9179,-0.9179,0.6505,252.0745,409.9837)" clip-path="url(#clipPath8)" width="1" height="12" stroke="none"/>
</g>
<g stroke-linecap="butt" transform="matrix(1,0,0,1,459,301)" fill="rgb(110,110,110)" stroke-dasharray="12,4" stroke="rgb(110,110,110)" stroke-width="2" stroke-miterlimit="1.45">
<path fill="none" d="M301.596 249.7806 L77.3572 507.8148" clip-path="url(#clipPath2)"/>
<path d="M69.2399 517.1556 L83.1901 511.3933 L73.0002 502.5381 Z" clip-path="url(#clipPath2)" stroke="none"/>
<path fill="none" stroke-dasharray="none" d="M186.7996 21.7073 L58.8036 71.8417" clip-path="url(#clipPath2)"/>
<path stroke-dasharray="none" d="M47.281 76.355 L62.3129 77.7165 L57.3893 65.1463 Z" clip-path="url(#clipPath2)" stroke="none"/>
<path fill="none" d="M-119.8694 202.0775 L37.1606 -72.8269" clip-path="url(#clipPath2)"/>
<path d="M43.2986 -83.5724 L30.7414 -75.1981 L42.4638 -68.5021 Z" clip-path="url(#clipPath2)" stroke="none"/>
<path fill="none" d="M167.2452 216.1561 L60.2948 -70.9444" clip-path="url(#clipPath2)"/>
<path d="M55.9749 -82.5409 L54.3621 -67.5338 L67.0129 -72.2465 Z" clip-path="url(#clipPath2)" stroke="none"/>
<path fill="none" stroke-dasharray="none" d="M7.503 72.7536 L-173.1122 -87.4936" clip-path="url(#clipPath2)"/>
<path stroke-dasharray="none" d="M-182.369 -95.7065 L-176.7504 -81.6978 L-167.7909 -91.7961 Z" clip-path="url(#clipPath2)" stroke="none"/>
<path fill="none" d="M33.5131 71.948 L253.1702 -209.5708" clip-path="url(#clipPath2)"/>
<path d="M260.7827 -219.3273 L247.1564 -212.8362 L257.7998 -204.5315 Z" clip-path="url(#clipPath2)" stroke="none"/>
<path fill="none" d="M-173.2219 328.5365 L-295.8776 100.9795" clip-path="url(#clipPath2)"/>
<path d="M-301.7492 90.0862 L-301.2856 105.1725 L-289.4019 98.7671 Z" clip-path="url(#clipPath2)" stroke="none"/>
<path fill="none" d="M-159.373 358.5365 L-104.9589 500.1457" clip-path="url(#clipPath2)"/>
<path d="M-100.5201 511.6972 L-99.0615 496.6744 L-111.6632 501.5167 Z" clip-path="url(#clipPath2)" stroke="none"/>
<path fill="none" d="M-180.1368 337.1891 L-301.9201 285.6557" clip-path="url(#clipPath2)"/>
<path d="M-313.3168 280.8331 L-303.5146 292.3105 L-298.2536 279.8777 Z" clip-path="url(#clipPath2)" stroke="none"/>
<path fill="none" d="M-150.1368 346.3942 L220.5592 417.017" clip-path="url(#clipPath2)"/>
<path d="M232.7156 419.3329 L220.7173 410.1757 L218.1908 423.4372 Z" clip-path="url(#clipPath2)" stroke="none"/>
<path fill="none" d="M-160.7837 328.5365 L-136.2398 243.9622" clip-path="url(#clipPath2)"/>
<path d="M-132.7908 232.0775 L-143.0358 243.1613 L-130.0708 246.9238 Z" clip-path="url(#clipPath2)" stroke="none"/>
<path fill="none" d="M-154.2054 328.5365 L4.8521 110.2791" clip-path="url(#clipPath2)"/>
<path d="M12.1405 100.2781 L-1.2656 107.2129 L9.6447 115.1638 Z" clip-path="url(#clipPath2)" stroke="none"/>
<path fill="none" d="M-169.5983 328.5365 L-270.5938 -11.0209" clip-path="url(#clipPath2)"/>
<path d="M-274.1218 -22.8824 L-276.743 -8.0182 L-263.8032 -11.867 Z" clip-path="url(#clipPath2)" stroke="none"/>
<path fill="none" d="M-180.1368 350.6159 L-300.6014 407.471" clip-path="url(#clipPath2)"/>
<path d="M-311.7926 412.7529 L-296.703 413.0952 L-302.4651 400.8866 Z" clip-path="url(#clipPath2)" stroke="none"/>
<path fill="none" d="M-166.0688 328.5365 L-190.468 -64.1349" clip-path="url(#clipPath2)"/>
<path d="M-191.2354 -76.4861 L-197.1352 -62.5935 L-183.6612 -63.4307 Z" clip-path="url(#clipPath2)" stroke="none"/>
<path fill="none" d="M-150.1361 336.638 L-146.7085 331.3214 L-145.5431 327.5672 L-145.1368 323.5365 L-145.5431 319.5058 L-146.7085 315.7516 L-148.5525 312.3543 L-150.9946 309.3943 L-153.9546 306.9521 L-157.3519 305.1082 L-161.1061 303.9428 L-165.1368 303.5365 L-169.1675 303.9428 L-172.9217 305.1082 L-176.319 306.9521 L-179.2789 309.3943 L-181.7211 312.3543 L-183.5651 315.7516 L-184.7305 319.5058 L-185.1368 323.5365 L-184.9647 325.2433 L-184.9196 325.3325" clip-path="url(#clipPath2)"/>
<path d="M-179.3295 336.373 L-179.4057 321.2797 L-191.4498 327.378 Z" clip-path="url(#clipPath2)" stroke="none"/>
<path fill="none" d="M-152.511 358.5365 L40.7302 588.1158" clip-path="url(#clipPath2)"/>
<path d="M48.6992 597.5834 L45.1699 582.9084 L34.8416 591.6019 Z" clip-path="url(#clipPath2)" stroke="none"/>
<path fill="none" d="M31.9899 352.5 L-78.9415 503.6309" clip-path="url(#clipPath2)"/>
<path d="M-86.2641 513.6069 L-72.8344 506.7181 L-83.7173 498.7299 Z" clip-path="url(#clipPath2)" stroke="none"/>
<path fill="none" d="M41.7771 322.5 L24.7291 113.3843" clip-path="url(#clipPath2)"/>
<path d="M23.7235 101.0502 L18.0928 115.054 L31.5481 113.9571 Z" clip-path="url(#clipPath2)" stroke="none"/>
<path fill="none" stroke-dasharray="none" d="M397.6319 188.2781 L277.1455 399.7964" clip-path="url(#clipPath2)"/>
<path stroke-dasharray="none" d="M271.0204 410.5492 L283.5676 402.1598 L271.8372 395.4778 Z" clip-path="url(#clipPath2)" stroke="none"/>
<path fill="none" d="M-113.4377 204.0574 L-2.102 107.4169" clip-path="url(#clipPath2)"/>
<path d="M7.2435 99.3049 L-7.3763 103.0568 L1.4731 113.2518 Z" clip-path="url(#clipPath2)" stroke="none"/>
<path fill="none" d="M-113.437 210.179 L-110.0094 204.8624 L-108.844 201.1082 L-108.4377 197.0775 L-108.844 193.0468 L-110.0094 189.2926 L-111.8534 185.8953 L-114.2955 182.9354 L-117.2555 180.4932 L-120.6528 178.6492 L-124.407 177.4838 L-128.4377 177.0775 L-132.4684 177.4838 L-136.2226 178.6492 L-139.6199 180.4932 L-142.5798 182.9354 L-145.022 185.8953 L-146.866 189.2926 L-148.0314 193.0468 L-148.4377 197.0775 L-148.2656 198.7844 L-148.2204 198.8736" clip-path="url(#clipPath2)"/>
<path d="M-142.6311 209.9144 L-142.7063 194.8212 L-154.7508 200.9186 Z" clip-path="url(#clipPath2)" stroke="none"/>
<path fill="none" d="M-315.2663 419.5959 L-216.7566 453.5486" clip-path="url(#clipPath2)"/>
<path d="M-205.057 457.5811 L-215.6207 446.8005 L-220.0197 459.5637 Z" clip-path="url(#clipPath2)" stroke="none"/>
<path fill="none" d="M176.4457 238.9467 L250.748 399.162" clip-path="url(#clipPath2)"/>
<path d="M255.9544 410.3885 L256.3982 395.3015 L244.1512 400.9813 Z" clip-path="url(#clipPath2)" stroke="none"/>
<path fill="none" d="M158.3553 217.1846 L45.4261 108.1873" clip-path="url(#clipPath2)"/>
<path d="M36.5221 99.5932 L41.5479 113.8253 L50.9233 104.1118 Z" clip-path="url(#clipPath2)" stroke="none"/>
<path fill="none" stroke-dasharray="none" d="M-1.8002 76.101 L-253.068 -26.8786" clip-path="url(#clipPath2)"/>
<path stroke-dasharray="none" d="M-264.5186 -31.5715 L-254.5868 -20.2061 L-249.4672 -32.6977 Z" clip-path="url(#clipPath2)" stroke="none"/>
<path fill="none" stroke-dasharray="none" d="M29.4188 71.4045 L144.4498 -172.3208" clip-path="url(#clipPath2)"/>
<path stroke-dasharray="none" d="M149.7317 -183.5119 L137.8653 -174.1844 L150.0739 -168.4223 Z" clip-path="url(#clipPath2)" stroke="none"/>
<path fill="none" stroke-dasharray="none" d="M28.7585 100.7802 L212.1312 532.1623" clip-path="url(#clipPath2)"/>
<path stroke-dasharray="none" d="M216.9724 543.551 L217.9032 528.4863 L205.479 533.7676 Z" clip-path="url(#clipPath2)" stroke="none"/>
<path fill="none" stroke-dasharray="none" d="M1.4718 97.4973 L-302.9777 263.065" clip-path="url(#clipPath2)"/>
<path stroke-dasharray="none" d="M-313.8491 268.9772 L-298.7646 268.4574 L-305.2142 256.5977 Z" clip-path="url(#clipPath2)" stroke="none"/>
<path fill="none" stroke-dasharray="none" d="M14.7844 100.6318 L-165.5077 441.0493" clip-path="url(#clipPath2)"/>
<path stroke-dasharray="none" d="M-171.2996 451.9853 L-159.0161 443.2144 L-170.9462 436.8959 Z" clip-path="url(#clipPath2)" stroke="none"/>
<path fill="none" stroke-dasharray="none" d="M235.0026 432.8609 L-68.7869 518.2885" clip-path="url(#clipPath2)"/>
<path stroke-dasharray="none" d="M-80.6999 521.6385 L-65.8767 524.4819 L-69.5312 511.486 Z" clip-path="url(#clipPath2)" stroke="none"/>
<path fill="none" stroke-dasharray="none" d="M24.7361 529.933 L-67.7819 526.6653" clip-path="url(#clipPath2)"/>
<path stroke-dasharray="none" d="M-80.1492 526.2285 L-66.8958 533.4508 L-66.4193 519.9592 Z" clip-path="url(#clipPath2)" stroke="none"/>
<path fill="none" stroke-dasharray="none" d="M54.2625 89.2414 L559.9849 139.8857" clip-path="url(#clipPath2)"/>
<path stroke-dasharray="none" d="M572.2983 141.1188 L559.5381 133.0572 L558.1929 146.49 Z" clip-path="url(#clipPath2)" stroke="none"/>
<path fill="none" stroke-dasharray="none" d="M40.9753 73.699 L42.5015 66.0608 L42.0952 62.0301 L40.9298 58.2759 L39.0858 54.8786 L36.6437 51.9187 L33.6837 49.4765 L30.2864 47.6325 L26.5322 46.4671 L22.5015 46.0608 L18.4708 46.4671 L14.7166 47.6325 L11.3193 49.4765 L8.3594 51.9187 L5.9172 54.8786 L4.0732 58.2759 L3.1166 61.3576 L3.1261 61.4572" clip-path="url(#clipPath2)"/>
<path stroke-dasharray="none" d="M4.3083 73.7756 L9.7378 59.6925 L-3.7005 60.9821 Z" clip-path="url(#clipPath2)" stroke="none"/>
<path fill="none" stroke-dasharray="none" d="M-9.9155 84.9898 L-289.8173 75.742" clip-path="url(#clipPath2)"/>
<path stroke-dasharray="none" d="M-302.1856 75.3334 L-288.9158 82.5255 L-288.47 69.0328 Z" clip-path="url(#clipPath2)" stroke="none"/>
<path fill="none" stroke-dasharray="none" d="M463.5094 270.4842 L289.2715 404.6409" clip-path="url(#clipPath2)"/>
<path stroke-dasharray="none" d="M279.4663 412.1906 L294.2809 409.3029 L286.0449 398.6063 Z" clip-path="url(#clipPath2)" stroke="none"/>
<path fill="none" stroke-dasharray="none" d="M422.9158 15.0922 L294.737 -86.083" clip-path="url(#clipPath2)"/>
<path stroke-dasharray="none" d="M285.0234 -93.7502 L291.438 -80.0877 L299.8022 -90.6843 Z" clip-path="url(#clipPath2)" stroke="none"/>
<path fill="none" stroke-dasharray="none" d="M285.4388 435.799 L406.0079 492.9039" clip-path="url(#clipPath2)"/>
<path stroke-dasharray="none" d="M417.1919 498.201 L407.8804 486.322 L402.1018 498.5227 Z" clip-path="url(#clipPath2)" stroke="none"/>
<path fill="none" stroke-dasharray="none" d="M258.2744 439.9129 L230.7477 531.1475" clip-path="url(#clipPath2)"/>
<path stroke-dasharray="none" d="M227.1732 542.995 L237.535 532.0202 L224.6104 528.1207 Z" clip-path="url(#clipPath2)" stroke="none"/>
<path fill="none" stroke-dasharray="none" d="M295.0569 423.3951 L452.7039 415.2873" clip-path="url(#clipPath2)"/>
<path stroke-dasharray="none" d="M465.0625 414.6517 L451.2336 408.604 L451.927 422.0862 Z" clip-path="url(#clipPath2)" stroke="none"/>
<path fill="none" stroke-dasharray="none" d="M247.9294 438.4042 L78.7041 590.7439" clip-path="url(#clipPath2)"/>
<path stroke-dasharray="none" d="M69.5069 599.0234 L84.0564 595.0079 L75.0241 584.9745 Z" clip-path="url(#clipPath2)" stroke="none"/>
<path fill="none" stroke-dasharray="none" d="M230.9098 428.0479 L-134.8489 462.4071" clip-path="url(#clipPath2)"/>
<path stroke-dasharray="none" d="M-147.1697 463.5645 L-133.0975 469.0223 L-134.3602 455.5815 Z" clip-path="url(#clipPath2)" stroke="none"/>
<path fill="none" stroke-dasharray="none" d="M373.6763 165.8902 L63.7242 95.4316" clip-path="url(#clipPath2)"/>
<path stroke-dasharray="none" d="M51.657 92.6884 L63.3249 102.263 L66.3174 89.0988 Z" clip-path="url(#clipPath2)" stroke="none"/>
<path fill="none" stroke-dasharray="none" d="M391.158 -89.4642 L404.6127 145.9233" clip-path="url(#clipPath2)"/>
<path stroke-dasharray="none" d="M405.3189 158.2781 L411.2875 144.4149 L397.8095 145.1853 Z" clip-path="url(#clipPath2)" stroke="none"/>
<path fill="none" stroke-dasharray="none" d="M371.5162 -92.2183 L240.7317 -6.9952" clip-path="url(#clipPath2)"/>
<path stroke-dasharray="none" d="M230.3637 -0.2391 L245.3594 -1.9542 L237.9891 -13.2647 Z" clip-path="url(#clipPath2)" stroke="none"/>
<path fill="none" stroke-dasharray="none" d="M377.7477 -118.2949 L294.3909 -210.1696" clip-path="url(#clipPath2)"/>
<path stroke-dasharray="none" d="M286.0756 -219.3346 L290.1477 -204.8008 L300.1459 -213.872 Z" clip-path="url(#clipPath2)" stroke="none"/>
<path fill="none" stroke-dasharray="none" d="M386.9424 -89.5393 L319.7706 208.8661" clip-path="url(#clipPath2)"/>
<path stroke-dasharray="none" d="M317.053 220.939 L326.6029 209.2509 L313.4325 206.2862 Z" clip-path="url(#clipPath2)" stroke="none"/>
<path fill="none" d="M-113.4377 225.0523 L230.5244 407.9199" clip-path="url(#clipPath2)"/>
<path d="M241.4512 413.7291 L232.6998 401.4317 L226.3624 413.3518 Z" clip-path="url(#clipPath2)" stroke="none"/>
<path fill="none" stroke-dasharray="none" d="M586.2707 131.7457 L457.1093 40.5947" clip-path="url(#clipPath2)"/>
<path fill="none" stroke-dasharray="none" d="M607.1829 292.0034 L604.3765 159.2987" clip-path="url(#clipPath2)"/>
<path fill="none" stroke-dasharray="none" d="M-18.8865 -231.7267 L43.8682 -109.9314" clip-path="url(#clipPath2)"/>
<path fill="none" stroke-dasharray="none" d="M61.7662 -106.7655 L148.2565 -186.5159" clip-path="url(#clipPath2)"/>
<path fill="none" stroke-dasharray="none" d="M494.8551 244.2257 L589.423 157.6922" clip-path="url(#clipPath2)"/>
<path fill="none" stroke-dasharray="none" d="M332.0075 223.4667 L384.0092 188.2781" clip-path="url(#clipPath2)"/>
<path fill="none" stroke-dasharray="none" d="M47.7303 95.5168 L454.9901 248.1625" clip-path="url(#clipPath2)"/>
<path fill="none" stroke-dasharray="none" d="M613.1671 129.9005 L723.0475 -43.8142" clip-path="url(#clipPath2)"/>
<path fill="none" stroke-dasharray="none" d="M466.769 20.0092 L718.4879 -53.6475" clip-path="url(#clipPath2)"/>
<path fill="none" stroke-dasharray="none" d="M260.9014 410.0807 L213.4345 26.9771" clip-path="url(#clipPath2)"/>
<path fill="none" stroke-dasharray="none" d="M433.8504 13.255 L395.7711 -89.673" clip-path="url(#clipPath2)"/>
<path fill="none" stroke-dasharray="none" d="M-11.3912 -240.7446 L144.5687 -193.8855" clip-path="url(#clipPath2)"/>
<path fill="none" stroke-dasharray="none" d="M408.205 32.3722 L53.6172 81.7296" clip-path="url(#clipPath2)"/>
<path fill="none" stroke-dasharray="none" d="M748.4388 122.9924 L635.0153 139.731" clip-path="url(#clipPath2)"/>
<path fill="none" stroke-dasharray="none" d="M477.5557 242.669 L441.9839 42.9906" clip-path="url(#clipPath2)"/>
<path fill="none" stroke-dasharray="none" d="M309.6869 250.7442 L266.7645 410.1707" clip-path="url(#clipPath2)"/>
<path fill="none" stroke-dasharray="none" d="M552.3849 -176.6406 L720.223 -65.1524" clip-path="url(#clipPath2)"/>
<path fill="none" stroke-dasharray="none" d="M311.7244 220.8862 L270.5887 -91.7267" clip-path="url(#clipPath2)"/>
<path fill="none" stroke-dasharray="none" d="M158.8647 -187.2139 L251.3116 -119.3953" clip-path="url(#clipPath2)"/>
<path fill="none" stroke-dasharray="none" d="M753.653 132.3071 L617.1251 295.4953" clip-path="url(#clipPath2)"/>
<path fill="none" stroke-dasharray="none" d="M502.6634 246.77 L749.7729 127.3301" clip-path="url(#clipPath2)"/>
<path fill="none" stroke-dasharray="none" d="M505.0968 267.2705 L593.5156 301.5745" clip-path="url(#clipPath2)"/>
<path fill="none" stroke-dasharray="none" d="M448.0329 42.492 L599.7554 294.154" clip-path="url(#clipPath2)"/>
<path fill="none" stroke-dasharray="none" d="M717.5874 -59.4607 L421.4483 -100.1766" clip-path="url(#clipPath2)"/>
<path fill="none" stroke-dasharray="none" d="M573.0812 148.8359 L438.6763 168.5187" clip-path="url(#clipPath2)"/>
<path fill="none" stroke-dasharray="none" d="M748.8576 116.6733 L466.9376 35.9488" clip-path="url(#clipPath2)"/>
<path fill="none" stroke-dasharray="none" d="M592.0776 130.356 L402.2825 -90.5155" clip-path="url(#clipPath2)"/>
<path fill="none" stroke-dasharray="none" d="M445.7261 13.3353 L527.4349 -174.2532" clip-path="url(#clipPath2)"/>
<path fill="none" stroke-dasharray="none" d="M600.9136 129.3698 L536.9861 -174.0294" clip-path="url(#clipPath2)"/>
<path fill="none" stroke-dasharray="none" d="M410.3532 -116.2635 L513.7881 -177.1544" clip-path="url(#clipPath2)"/>
</g>
<g fill="white" transform="matrix(1,0,0,1,459,301)" stroke="white">
<ellipse rx="32.5" ry="15" clip-path="url(#clipPath2)" cx="268.6185" cy="-106.6991" stroke="none"/>
</g>
<g fill="rgb(110,110,110)" stroke-miterlimit="1.45" transform="matrix(1,0,0,1,459,301)" stroke-linecap="butt" stroke="rgb(110,110,110)">
<ellipse rx="32.5" fill="none" ry="15" clip-path="url(#clipPath2)" cx="268.6185" cy="-106.6991"/>
</g>
<g font-family="'Arial'" font-size="16" transform="matrix(1,0,0,1,459,301)">
<text x="241.6185" xml:space="preserve" y="-100.8905" clip-path="url(#clipPath2)" stroke="none">BRCA2</text>
</g>
<g fill="white" transform="matrix(1,0,0,1,459,301)" stroke="white">
<circle r="15" clip-path="url(#clipPath2)" cx="58.3587" cy="609.0593" stroke="none"/>
</g>
<g fill="rgb(110,110,110)" stroke-miterlimit="1.45" transform="matrix(1,0,0,1,459,301)" stroke-linecap="butt" stroke="rgb(110,110,110)">
<circle fill="none" r="15" clip-path="url(#clipPath2)" cx="58.3587" cy="609.0593"/>
</g>
<g font-family="'Arial'" font-size="16" transform="matrix(1,0,0,1,459,301)">
<text x="32.3587" xml:space="preserve" y="614.8679" clip-path="url(#clipPath2)" stroke="none">DLEU1</text>
</g>
<g fill="white" transform="matrix(1,0,0,1,459,301)" stroke="white">
<ellipse rx="32.5" ry="15" clip-path="url(#clipPath2)" cx="22.5015" cy="86.0608" stroke="none"/>
</g>
<g fill="rgb(110,110,110)" stroke-miterlimit="1.45" transform="matrix(1,0,0,1,459,301)" stroke-linecap="butt" stroke="rgb(110,110,110)">
<ellipse rx="32.5" fill="none" ry="15" clip-path="url(#clipPath2)" cx="22.5015" cy="86.0608"/>
</g>
<g font-family="'Arial'" font-size="16" transform="matrix(1,0,0,1,459,301)">
<text x="3.5015" xml:space="preserve" y="91.8694" clip-path="url(#clipPath2)" stroke="none">TP53</text>
</g>
<g fill="rgb(255,78,78)" transform="matrix(1,0,0,1,459,301)" stroke="rgb(255,78,78)">
<circle r="15" clip-path="url(#clipPath2)" cx="-95.1398" cy="525.6991" stroke="none"/>
</g>
<g fill="rgb(110,110,110)" stroke-miterlimit="1.45" transform="matrix(1,0,0,1,459,301)" stroke-linecap="butt" stroke="rgb(110,110,110)">
<circle fill="none" r="15" clip-path="url(#clipPath2)" cx="-95.1398" cy="525.6991"/>
</g>
<g font-family="'Arial'" font-size="16" transform="matrix(1,0,0,1,459,301)">
<text x="-124.1398" xml:space="preserve" y="531.5077" clip-path="url(#clipPath2)" stroke="none">PMAIP1</text>
</g>
<g fill="white" transform="matrix(1,0,0,1,459,301)" stroke="white">
<circle r="15" clip-path="url(#clipPath2)" cx="-25.7568" cy="-245.0608" stroke="none"/>
</g>
<g fill="rgb(110,110,110)" stroke-miterlimit="1.45" transform="matrix(1,0,0,1,459,301)" stroke-linecap="butt" stroke="rgb(110,110,110)">
<circle fill="none" r="15" clip-path="url(#clipPath2)" cx="-25.7568" cy="-245.0608"/>
</g>
<g font-family="'Arial'" font-size="16" transform="matrix(1,0,0,1,459,301)">
<text x="-46.7568" xml:space="preserve" y="-239.2522" clip-path="url(#clipPath2)" stroke="none">KIF23</text>
</g>
<g fill="white" transform="matrix(1,0,0,1,459,301)" stroke="white">
<path d="M-309.8374 60.0805 L-294.8374 90.0805 L-324.8374 90.0805 Z" clip-path="url(#clipPath2)" fill-rule="evenodd" stroke="none"/>
</g>
<g fill="rgb(110,110,110)" stroke-miterlimit="1.45" transform="matrix(1,0,0,1,459,301)" stroke-linecap="butt" stroke="rgb(110,110,110)">
<path fill="none" d="M-309.8374 60.0805 L-294.8374 90.0805 L-324.8374 90.0805 Z" fill-rule="evenodd" clip-path="url(#clipPath2)"/>
</g>
<g font-family="'Arial'" font-size="16" transform="matrix(1,0,0,1,459,301)">
<text x="-336.8374" xml:space="preserve" y="80.8891" clip-path="url(#clipPath2)" stroke="none">DUSP5</text>
</g>
<g fill="white" transform="matrix(1,0,0,1,459,301)" stroke="white">
<rect x="28" width="30" height="30" y="322.5" clip-path="url(#clipPath2)" stroke="none"/>
</g>
<g fill="rgb(110,110,110)" stroke-miterlimit="1.45" transform="matrix(1,0,0,1,459,301)" stroke-linecap="butt" stroke="rgb(110,110,110)">
<rect fill="none" x="28" width="30" height="30" y="322.5" clip-path="url(#clipPath2)"/>
</g>
<g font-family="'Arial'" font-size="16" transform="matrix(1,0,0,1,459,301)">
<text x="21" xml:space="preserve" y="343.3086" clip-path="url(#clipPath2)" stroke="none">IFNA2</text>
</g>
<g fill="rgb(255,196,196)" transform="matrix(1,0,0,1,459,301)" stroke="rgb(255,196,196)">
<path d="M-336.6383 402.3997 L-306.6383 402.3997 L-321.6383 432.3997 Z" clip-path="url(#clipPath2)" fill-rule="evenodd" stroke="none"/>
</g>
<g fill="rgb(110,110,110)" stroke-miterlimit="1.45" transform="matrix(1,0,0,1,459,301)" stroke-linecap="butt" stroke="rgb(110,110,110)">
<path fill="none" d="M-336.6383 402.3997 L-306.6383 402.3997 L-321.6383 432.3997 Z" fill-rule="evenodd" clip-path="url(#clipPath2)"/>
</g>
<g font-family="'Arial'" font-size="16" transform="matrix(1,0,0,1,459,301)">
<text x="-343.1383" xml:space="preserve" y="423.2083" clip-path="url(#clipPath2)" stroke="none">NCK1</text>
</g>
<g fill="white" transform="matrix(1,0,0,1,459,301)" stroke="white">
<ellipse rx="32.5" ry="15" clip-path="url(#clipPath2)" cx="533.8404" cy="-188.959" stroke="none"/>
</g>
<g fill="rgb(110,110,110)" stroke-miterlimit="1.45" transform="matrix(1,0,0,1,459,301)" stroke-linecap="butt" stroke="rgb(110,110,110)">
<ellipse rx="32.5" fill="none" ry="15" clip-path="url(#clipPath2)" cx="533.8404" cy="-188.959"/>
</g>
<g font-family="'Arial'" font-size="16" transform="matrix(1,0,0,1,459,301)">
<text x="507.3404" xml:space="preserve" y="-183.1504" clip-path="url(#clipPath2)" stroke="none">RBBP7</text>
</g>
<g fill="rgb(255,125,125)" transform="matrix(1,0,0,1,459,301)" stroke="rgb(255,125,125)">
<circle r="15" clip-path="url(#clipPath2)" cx="607.5" cy="307" stroke="none"/>
</g>
<g fill="rgb(110,110,110)" stroke-miterlimit="1.45" transform="matrix(1,0,0,1,459,301)" stroke-linecap="butt" stroke="rgb(110,110,110)">
<circle fill="none" r="15" clip-path="url(#clipPath2)" cx="607.5" cy="307"/>
</g>
<g font-family="'Arial'" font-size="16" transform="matrix(1,0,0,1,459,301)">
<text x="579" xml:space="preserve" y="312.8086" clip-path="url(#clipPath2)" stroke="none">ARID4B</text>
</g>
<g fill="white" transform="matrix(1,0,0,1,459,301)" stroke="white">
<path d="M464.7143 413.8981 L479.7143 381.3981 L494.7143 413.8981 L479.7143 446.3981 Z" clip-path="url(#clipPath2)" fill-rule="evenodd" stroke="none"/>
</g>
<g fill="rgb(110,110,110)" stroke-miterlimit="1.45" transform="matrix(1,0,0,1,459,301)" stroke-linecap="butt" stroke="rgb(110,110,110)">
<path fill="none" d="M464.7143 413.8981 L479.7143 381.3981 L494.7143 413.8981 L479.7143 446.3981 Z" fill-rule="evenodd" clip-path="url(#clipPath2)"/>
</g>
<g font-family="'Arial'" font-size="16" transform="matrix(1,0,0,1,459,301)">
<text x="452.7143" xml:space="preserve" y="419.7068" clip-path="url(#clipPath2)" stroke="none">UBE2C</text>
</g>
<g fill="white" transform="matrix(1,0,0,1,459,301)" stroke="white">
<rect x="-143.4377" width="30" height="30" y="202.0775" clip-path="url(#clipPath2)" stroke="none"/>
</g>
<g fill="rgb(110,110,110)" stroke-dasharray="6,2" stroke-miterlimit="1.45" transform="matrix(1,0,0,1,459,301)" stroke-linecap="butt" stroke="rgb(110,110,110)">
<rect fill="none" x="-143.4377" width="30" height="30" y="202.0775" clip-path="url(#clipPath2)"/>
</g>
<g font-family="'Arial'" font-size="16" transform="matrix(1,0,0,1,459,301)">
<text x="-153.9377" xml:space="preserve" y="222.8861" clip-path="url(#clipPath2)" stroke="none">TGFB1</text>
</g>
<g fill="white" transform="matrix(1,0,0,1,459,301)" stroke="white">
<circle r="15" clip-path="url(#clipPath2)" cx="-278.3982" cy="-37.2599" stroke="none"/>
</g>
<g fill="rgb(110,110,110)" stroke-miterlimit="1.45" transform="matrix(1,0,0,1,459,301)" stroke-linecap="butt" stroke="rgb(110,110,110)">
<circle fill="none" r="15" clip-path="url(#clipPath2)" cx="-278.3982" cy="-37.2599"/>
</g>
<g font-family="'Arial'" font-size="16" transform="matrix(1,0,0,1,459,301)">
<text x="-290.8982" xml:space="preserve" y="-31.4513" clip-path="url(#clipPath2)" stroke="none">BIK</text>
</g>
<g fill="white" transform="matrix(1,0,0,1,459,301)" stroke="white">
<path d="M716.7158 -57.5182 L731.7158 -90.0182 L746.7158 -57.5182 L731.7158 -25.0182 Z" clip-path="url(#clipPath2)" fill-rule="evenodd" stroke="none"/>
</g>
<g fill="rgb(110,110,110)" stroke-miterlimit="1.45" transform="matrix(1,0,0,1,459,301)" stroke-linecap="butt" stroke="rgb(110,110,110)">
<path fill="none" d="M716.7158 -57.5182 L731.7158 -90.0182 L746.7158 -57.5182 L731.7158 -25.0182 Z" fill-rule="evenodd" clip-path="url(#clipPath2)"/>
</g>
<g font-family="'Arial'" font-size="16" transform="matrix(1,0,0,1,459,301)">
<text x="705.2158" xml:space="preserve" y="-51.7096" clip-path="url(#clipPath2)" stroke="none">RBBP4</text>
</g>
<g fill="white" transform="matrix(1,0,0,1,459,301)" stroke="white">
<ellipse rx="32.5" ry="15" clip-path="url(#clipPath2)" cx="313.6945" cy="235.8587" stroke="none"/>
</g>
<g fill="rgb(110,110,110)" stroke-miterlimit="1.45" transform="matrix(1,0,0,1,459,301)" stroke-linecap="butt" stroke="rgb(110,110,110)">
<ellipse rx="32.5" fill="none" ry="15" clip-path="url(#clipPath2)" cx="313.6945" cy="235.8587"/>
</g>
<g font-family="'Arial'" font-size="16" transform="matrix(1,0,0,1,459,301)">
<text x="286.6945" xml:space="preserve" y="241.6673" clip-path="url(#clipPath2)" stroke="none">BRCA1</text>
</g>
<g fill="white" transform="matrix(1,0,0,1,459,301)" stroke="white">
<circle r="15" clip-path="url(#clipPath2)" cx="763.2781" cy="120.8024" stroke="none"/>
</g>
<g fill="rgb(110,110,110)" stroke-miterlimit="1.45" transform="matrix(1,0,0,1,459,301)" stroke-linecap="butt" stroke="rgb(110,110,110)">
<circle fill="none" r="15" clip-path="url(#clipPath2)" cx="763.2781" cy="120.8024"/>
</g>
<g font-family="'Arial'" font-size="16" transform="matrix(1,0,0,1,459,301)">
<text x="736.2781" xml:space="preserve" y="126.611" clip-path="url(#clipPath2)" stroke="none">SUDS3</text>
</g>
<g fill="white" transform="matrix(1,0,0,1,459,301)" stroke="white">
<ellipse rx="32.5" ry="15" clip-path="url(#clipPath2)" cx="262.7568" cy="425.0562" stroke="none"/>
</g>
<g fill="rgb(110,110,110)" stroke-miterlimit="1.45" transform="matrix(1,0,0,1,459,301)" stroke-linecap="butt" stroke="rgb(110,110,110)">
<ellipse rx="32.5" fill="none" ry="15" clip-path="url(#clipPath2)" cx="262.7568" cy="425.0562"/>
</g>
<g font-family="'Arial'" font-size="16" transform="matrix(1,0,0,1,459,301)">
<text x="245.7568" xml:space="preserve" y="430.8648" clip-path="url(#clipPath2)" stroke="none">MYC</text>
</g>
<g fill="white" transform="matrix(1,0,0,1,459,301)" stroke="white">
<circle r="15" clip-path="url(#clipPath2)" cx="50.7386" cy="-96.5973" stroke="none"/>
</g>
<g fill="rgb(110,110,110)" stroke-miterlimit="1.45" transform="matrix(1,0,0,1,459,301)" stroke-linecap="butt" stroke="rgb(110,110,110)">
<circle fill="none" r="15" clip-path="url(#clipPath2)" cx="50.7386" cy="-96.5973"/>
</g>
<g font-family="'Arial'" font-size="16" transform="matrix(1,0,0,1,459,301)">
<text x="29.2386" xml:space="preserve" y="-90.7887" clip-path="url(#clipPath2)" stroke="none">PRC1</text>
</g>
<g fill="white" transform="matrix(1,0,0,1,459,301)" stroke="white">
<path d="M-208.0167 -105.1535 L-193.0167 -137.6535 L-178.0167 -105.1535 L-193.0167 -72.6535 Z" clip-path="url(#clipPath2)" fill-rule="evenodd" stroke="none"/>
</g>
<g fill="rgb(110,110,110)" stroke-miterlimit="1.45" transform="matrix(1,0,0,1,459,301)" stroke-linecap="butt" stroke="rgb(110,110,110)">
<path fill="none" d="M-208.0167 -105.1535 L-193.0167 -137.6535 L-178.0167 -105.1535 L-193.0167 -72.6535 Z" fill-rule="evenodd" clip-path="url(#clipPath2)"/>
</g>
<g font-family="'Arial'" font-size="16" transform="matrix(1,0,0,1,459,301)">
<text x="-218.0167" xml:space="preserve" y="-99.3449" clip-path="url(#clipPath2)" stroke="none">TP53I3</text>
</g>
<g fill="white" transform="matrix(1,0,0,1,459,301)" stroke="white">
<rect x="-180.1368" width="30" height="30" y="328.5365" clip-path="url(#clipPath2)" stroke="none"/>
</g>
<g fill="rgb(110,110,110)" stroke-miterlimit="1.45" transform="matrix(1,0,0,1,459,301)" stroke-linecap="butt" stroke="rgb(110,110,110)">
<rect fill="none" x="-180.1368" width="30" height="30" y="328.5365" clip-path="url(#clipPath2)"/>
</g>
<g font-family="'Arial'" font-size="16" transform="matrix(1,0,0,1,459,301)">
<text x="-180.1368" xml:space="preserve" y="349.3451" clip-path="url(#clipPath2)" stroke="none">TNF</text>
</g>
<g fill="white" transform="matrix(1,0,0,1,459,301)" stroke="white">
<ellipse rx="32.5" ry="15" clip-path="url(#clipPath2)" cx="480.2188" cy="257.6185" stroke="none"/>
</g>
<g fill="rgb(110,110,110)" stroke-miterlimit="1.45" transform="matrix(1,0,0,1,459,301)" stroke-linecap="butt" stroke="rgb(110,110,110)">
<ellipse rx="32.5" fill="none" ry="15" clip-path="url(#clipPath2)" cx="480.2188" cy="257.6185"/>
</g>
<g font-family="'Arial'" font-size="16" transform="matrix(1,0,0,1,459,301)">
<text x="457.7188" xml:space="preserve" y="263.4271" clip-path="url(#clipPath2)" stroke="none">SIN3A</text>
</g>
<g fill="white" transform="matrix(1,0,0,1,459,301)" stroke="white">
<circle r="15" clip-path="url(#clipPath2)" cx="222.8404" cy="557.3556" stroke="none"/>
</g>
<g fill="rgb(110,110,110)" stroke-miterlimit="1.45" transform="matrix(1,0,0,1,459,301)" stroke-linecap="butt" stroke="rgb(110,110,110)">
<circle fill="none" r="15" clip-path="url(#clipPath2)" cx="222.8404" cy="557.3556"/>
</g>
<g font-family="'Arial'" font-size="16" transform="matrix(1,0,0,1,459,301)">
<text x="190.8404" xml:space="preserve" y="563.1642" clip-path="url(#clipPath2)" stroke="none">TMSB4X</text>
</g>
<g fill="rgb(255,222,222)" transform="matrix(1,0,0,1,459,301)" stroke="rgb(255,222,222)">
<ellipse rx="32.5" ry="15" clip-path="url(#clipPath2)" cx="439.8739" cy="508.9438" stroke="none"/>
</g>
<g fill="rgb(110,110,110)" stroke-miterlimit="1.45" transform="matrix(1,0,0,1,459,301)" stroke-linecap="butt" stroke="rgb(110,110,110)">
<ellipse rx="32.5" fill="none" ry="15" clip-path="url(#clipPath2)" cx="439.8739" cy="508.9438"/>
</g>
<g font-family="'Arial'" font-size="16" transform="matrix(1,0,0,1,459,301)">
<text x="421.8739" xml:space="preserve" y="514.7524" clip-path="url(#clipPath2)" stroke="none">BMI1</text>
</g>
<g fill="white" transform="matrix(1,0,0,1,459,301)" stroke="white">
<path d="M-121.9985 -171.5 L-91.9985 -171.5 L-106.9985 -141.5 Z" clip-path="url(#clipPath2)" fill-rule="evenodd" stroke="none"/>
</g>
<g fill="rgb(110,110,110)" stroke-miterlimit="1.45" transform="matrix(1,0,0,1,459,301)" stroke-linecap="butt" stroke="rgb(110,110,110)">
<path fill="none" d="M-121.9985 -171.5 L-91.9985 -171.5 L-106.9985 -141.5 Z" fill-rule="evenodd" clip-path="url(#clipPath2)"/>
</g>
<g font-family="'Arial'" font-size="16" transform="matrix(1,0,0,1,459,301)">
<text x="-133.9985" xml:space="preserve" y="-150.6914" clip-path="url(#clipPath2)" stroke="none">CHEK1</text>
</g>
<g fill="white" transform="matrix(1,0,0,1,459,301)" stroke="white">
<path d="M157.8344 216.1596 L187.8344 216.1596 L172.8344 246.1596 Z" clip-path="url(#clipPath2)" fill-rule="evenodd" stroke="none"/>
</g>
<g fill="rgb(110,110,110)" stroke-miterlimit="1.45" transform="matrix(1,0,0,1,459,301)" stroke-linecap="butt" stroke="rgb(110,110,110)">
<path fill="none" d="M157.8344 216.1596 L187.8344 216.1596 L172.8344 246.1596 Z" fill-rule="evenodd" clip-path="url(#clipPath2)"/>
</g>
<g font-family="'Arial'" font-size="16" transform="matrix(1,0,0,1,459,301)">
<text x="146.3344" xml:space="preserve" y="236.9682" clip-path="url(#clipPath2)" stroke="none">ERBB2</text>
</g>
<g fill="white" transform="matrix(1,0,0,1,459,301)" stroke="white">
<ellipse rx="32.5" ry="15" clip-path="url(#clipPath2)" cx="439.3207" cy="28.041" stroke="none"/>
</g>
<g fill="rgb(110,110,110)" stroke-miterlimit="1.45" transform="matrix(1,0,0,1,459,301)" stroke-linecap="butt" stroke="rgb(110,110,110)">
<ellipse rx="32.5" fill="none" ry="15" clip-path="url(#clipPath2)" cx="439.3207" cy="28.041"/>
</g>
<g font-family="'Arial'" font-size="16" transform="matrix(1,0,0,1,459,301)">
<text x="411.8207" xml:space="preserve" y="33.8496" clip-path="url(#clipPath2)" stroke="none">HDAC1</text>
</g>
<g fill="white" transform="matrix(1,0,0,1,459,301)" stroke="white">
<ellipse rx="32.5" ry="15" clip-path="url(#clipPath2)" cx="604.0593" cy="144.2994" stroke="none"/>
</g>
<g fill="rgb(110,110,110)" stroke-miterlimit="1.45" transform="matrix(1,0,0,1,459,301)" stroke-linecap="butt" stroke="rgb(110,110,110)">
<ellipse rx="32.5" fill="none" ry="15" clip-path="url(#clipPath2)" cx="604.0593" cy="144.2994"/>
</g>
<g font-family="'Arial'" font-size="16" transform="matrix(1,0,0,1,459,301)">
<text x="576.5593" xml:space="preserve" y="150.108" clip-path="url(#clipPath2)" stroke="none">HDAC2</text>
</g>
<g fill="white" transform="matrix(1,0,0,1,459,301)" stroke="white">
<ellipse rx="32.5" ry="15" clip-path="url(#clipPath2)" cx="57.1413" cy="531.0775" stroke="none"/>
</g>
<g fill="rgb(110,110,110)" stroke-miterlimit="1.45" transform="matrix(1,0,0,1,459,301)" stroke-linecap="butt" stroke="rgb(110,110,110)">
<ellipse rx="32.5" fill="none" ry="15" clip-path="url(#clipPath2)" cx="57.1413" cy="531.0775"/>
</g>
<g font-family="'Arial'" font-size="16" transform="matrix(1,0,0,1,459,301)">
<text x="32.6413" xml:space="preserve" y="536.8861" clip-path="url(#clipPath2)" stroke="none">STAT3</text>
</g>
<g fill="rgb(32,255,32)" transform="matrix(1,0,0,1,459,301)" stroke="rgb(32,255,32)">
<path d="M138.3784 -206.2386 L168.3784 -206.2386 L153.3784 -176.2386 Z" clip-path="url(#clipPath2)" fill-rule="evenodd" stroke="none"/>
</g>
<g fill="rgb(110,110,110)" stroke-miterlimit="1.45" transform="matrix(1,0,0,1,459,301)" stroke-linecap="butt" stroke="rgb(110,110,110)">
<path fill="none" d="M138.3784 -206.2386 L168.3784 -206.2386 L153.3784 -176.2386 Z" fill-rule="evenodd" clip-path="url(#clipPath2)"/>
</g>
<g font-family="'Arial'" font-size="16" transform="matrix(1,0,0,1,459,301)">
<text x="133.3784" xml:space="preserve" y="-185.43" clip-path="url(#clipPath2)" stroke="none">PLK1</text>
</g>
<g fill="white" transform="matrix(1,0,0,1,459,301)" stroke="white">
<path d="M257.4802 -219.3192 L264.9802 -249.3192 L279.9802 -249.3192 L287.4802 -219.3192 Z" clip-path="url(#clipPath2)" fill-rule="evenodd" stroke="none"/>
</g>
<g fill="rgb(110,110,110)" stroke-miterlimit="1.45" transform="matrix(1,0,0,1,459,301)" stroke-linecap="butt" stroke="rgb(110,110,110)">
<path fill="none" d="M257.4802 -219.3192 L264.9802 -249.3192 L279.9802 -249.3192 L287.4802 -219.3192 Z" fill-rule="evenodd" clip-path="url(#clipPath2)"/>
</g>
<g font-family="'Arial'" font-size="16" transform="matrix(1,0,0,1,459,301)">
<text x="249.9802" xml:space="preserve" y="-228.5106" clip-path="url(#clipPath2)" stroke="none">APOE</text>
</g>
<g fill="rgb(221,255,221)" transform="matrix(1,0,0,1,459,301)" stroke="rgb(221,255,221)">
<ellipse rx="32.5" ry="15" clip-path="url(#clipPath2)" cx="390.3009" cy="-104.459" stroke="none"/>
</g>
<g fill="rgb(110,110,110)" stroke-miterlimit="1.45" transform="matrix(1,0,0,1,459,301)" stroke-linecap="butt" stroke="rgb(110,110,110)">
<ellipse rx="32.5" fill="none" ry="15" clip-path="url(#clipPath2)" cx="390.3009" cy="-104.459"/>
</g>
<g font-family="'Arial'" font-size="16" transform="matrix(1,0,0,1,459,301)">
<text x="367.8009" xml:space="preserve" y="-98.6504" clip-path="url(#clipPath2)" stroke="none">MBD2</text>
</g>
<g fill="white" transform="matrix(1,0,0,1,459,301)" stroke="white">
<path d="M-340.877 275.5183 L-325.877 243.0182 L-310.877 275.5183 L-325.877 308.0183 Z" clip-path="url(#clipPath2)" fill-rule="evenodd" stroke="none"/>
</g>
<g fill="rgb(110,110,110)" stroke-miterlimit="1.45" transform="matrix(1,0,0,1,459,301)" stroke-linecap="butt" stroke="rgb(110,110,110)">
<path fill="none" d="M-340.877 275.5183 L-325.877 243.0182 L-310.877 275.5183 L-325.877 308.0183 Z" fill-rule="evenodd" clip-path="url(#clipPath2)"/>
</g>
<g font-family="'Arial'" font-size="16" transform="matrix(1,0,0,1,459,301)">
<text x="-416.3769" xml:space="preserve" y="281.3268" clip-path="url(#clipPath2)" stroke="none">GBP1 (includes EG:2633)</text>
</g>
<g fill="white" transform="matrix(1,0,0,1,459,301)" stroke="white">
<ellipse rx="32.5" ry="15" clip-path="url(#clipPath2)" cx="-179.0167" cy="466.5562" stroke="none"/>
</g>
<g fill="rgb(110,110,110)" stroke-miterlimit="1.45" transform="matrix(1,0,0,1,459,301)" stroke-linecap="butt" stroke="rgb(110,110,110)">
<ellipse rx="32.5" fill="none" ry="15" clip-path="url(#clipPath2)" cx="-179.0167" cy="466.5562"/>
</g>
<g font-family="'Arial'" font-size="16" transform="matrix(1,0,0,1,459,301)">
<text x="-201.5167" xml:space="preserve" y="472.3648" clip-path="url(#clipPath2)" stroke="none">DDIT3</text>
</g>
<g fill="white" transform="matrix(1,0,0,1,459,301)" stroke="white">
<ellipse rx="32.5" ry="15" clip-path="url(#clipPath2)" cx="211.579" cy="12.0015" stroke="none"/>
</g>
<g fill="rgb(110,110,110)" stroke-miterlimit="1.45" transform="matrix(1,0,0,1,459,301)" stroke-linecap="butt" stroke="rgb(110,110,110)">
<ellipse rx="32.5" fill="none" ry="15" clip-path="url(#clipPath2)" cx="211.579" cy="12.0015"/>
</g>
<g font-family="'Arial'" font-size="16" transform="matrix(1,0,0,1,459,301)">
<text x="178.579" xml:space="preserve" y="17.8101" clip-path="url(#clipPath2)" stroke="none">CDKN2A</text>
</g>
<g fill="white" transform="matrix(1,0,0,1,459,301)" stroke="white">
<rect x="373.6763" width="65" height="30" y="158.2781" clip-path="url(#clipPath2)" stroke="none"/>
</g>
<g fill="rgb(110,110,110)" stroke-miterlimit="1.45" transform="matrix(1,0,0,1,459,301)" stroke-linecap="butt" stroke="rgb(110,110,110)">
<rect fill="none" x="373.6763" width="65" height="30" y="158.2781" clip-path="url(#clipPath2)"/>
</g>
<g font-family="'Arial'" font-size="16" transform="matrix(1,0,0,1,459,301)">
<text x="385.1763" xml:space="preserve" y="179.0867" clip-path="url(#clipPath2)" stroke="none">ESR1</text>
</g>
<g fill="white" font-family="'新細明體'" transform="matrix(1,0,0,1,459,301) translate(-459,-302)" stroke="white">
<rect x="0" width="1300" height="30" y="0" clip-path="url(#clipPath9)" stroke="none"/>
</g>
<g fill="blue" font-size="16" font-family="'Arial'" transform="matrix(1,0,0,1,459,301) translate(-459,-302)" stroke="blue">
<text x="2" xml:space="preserve" y="17" clip-path="url(#clipPath9)" stroke="none">Network 1 : Observation 1 : out_lvcom_concord.txt : Observation 1</text>
</g>
<g fill="white" font-family="'Arial'" transform="matrix(1,0,0,1,459,301) translate(-459,640)" stroke="white">
<rect x="0" width="1292" height="27" y="0" clip-path="url(#clipPath10)" stroke="none"/>
<text fill="blue" x="3" xml:space="preserve" y="21" clip-path="url(#clipPath10)" stroke="none"> © 2000-2009 Ingenuity Systems, Inc. All rights reserved.</text>
</g>
<g fill="white" font-family="'Arial'" transform="matrix(1,0,0,1,459,301) translate(-459,640)" stroke="white">
<rect fill="none" x="0" width="1291" height="26" y="0" clip-path="url(#clipPath10)"/>
<rect fill="none" x="1" width="1289" height="24" y="1" clip-path="url(#clipPath10)"/>
<rect fill="none" x="2" width="1287" height="22" y="2" clip-path="url(#clipPath10)"/>
</g>
</g>
</svg>
