<?xml version="1.0" encoding="UTF-8"?>
<svg xmlns:xlink="http://www.w3.org/1999/xlink" xmlns="http://www.w3.org/2000/svg" fill-opacity="1" color-rendering="auto" color-interpolation="auto" stroke="black" text-rendering="auto" stroke-linecap="square" width="1167" stroke-miterlimit="10" stroke-opacity="1" shape-rendering="auto" fill="black" stroke-dasharray="none" font-weight="normal" stroke-width="1" height="1149" font-family="'Dialog'" font-style="normal" stroke-linejoin="miter" font-size="12" stroke-dashoffset="0" image-rendering="auto">
<!--Generated by ySVG-->
<defs id="genericDefs"/>
<g>
<defs id="defs1">
<clipPath clipPathUnits="userSpaceOnUse" id="clipPath1">
<path d="M0 0 L1167 0 L1167 1149 L0 1149 L0 0 Z"/>
</clipPath>
<clipPath clipPathUnits="userSpaceOnUse" id="clipPath2">
<path d="M-363 -398 L804 -398 L804 751 L-363 751 L-363 -398 Z"/>
</clipPath>
<clipPath clipPathUnits="userSpaceOnUse" id="clipPath3">
<path d="M459.3222 353.99 L-468.4238 458.3757 L-571.1995 -455.0605 L356.5465 -559.4462 L459.3222 353.99 Z"/>
</clipPath>
<clipPath clipPathUnits="userSpaceOnUse" id="clipPath4">
<path d="M0 1 L1167 1 L1167 1150 L0 1150 L0 1 Z"/>
</clipPath>
<clipPath clipPathUnits="userSpaceOnUse" id="clipPath5">
<path d="M0 -1124 L1167 -1124 L1167 25 L0 25 L0 -1124 Z"/>
</clipPath>
</defs>
<g fill="white" transform="translate(363,398)" stroke="white">
<rect x="-363" width="1167" height="1149" y="-398" clip-path="url(#clipPath2)" stroke="none"/>
</g>
<g stroke-linecap="butt" transform="matrix(1,0,0,1,363,398)" fill="rgb(250,146,23)" stroke-dasharray="18,6" stroke="rgb(250,146,23)" stroke-width="3" stroke-miterlimit="1.45">
<path fill="none" d="M63.5964 -38.235 L-57.1968 1.8509" clip-path="url(#clipPath2)"/>
<path d="M-70.2469 6.1816 L-53.6482 8.5754 L-58.3726 -5.6611 Z" clip-path="url(#clipPath2)" stroke="none"/>
<path fill="none" d="M-16.2642 -175.8355 L121.6128 -227.1259" clip-path="url(#clipPath2)"/>
<path d="M134.5 -231.92 L117.8263 -233.7195 L123.0562 -219.6607 Z" clip-path="url(#clipPath2)" stroke="none"/>
</g>
<g stroke-linecap="butt" transform="matrix(1,0,0,1,363,398)" fill="rgb(110,110,110)" stroke-dasharray="12,4" stroke="rgb(110,110,110)" stroke-width="2" stroke-miterlimit="1.45">
<path fill="none" d="M-187.6182 -107.0873 L-215.942 -36.7274" clip-path="url(#clipPath2)"/>
<path d="M-220.5633 -25.2476 L-209.2602 -35.2503 L-221.7836 -40.2917 Z" clip-path="url(#clipPath2)" stroke="none"/>
<path fill="none" d="M-210.2707 145.9982 L-101.8026 30.2806" clip-path="url(#clipPath2)"/>
<path d="M-93.3396 21.2519 L-107.4967 26.4851 L-97.6473 35.7176 Z" clip-path="url(#clipPath2)" stroke="none"/>
</g>
<g stroke-linecap="butt" transform="matrix(1,0,0,1,363,398)" fill="rgb(250,146,23)" stroke-dasharray="18,6" stroke="rgb(250,146,23)" stroke-width="3" stroke-miterlimit="1.45">
<path fill="none" d="M-173.0092 -109.0078 L-100.831 -12.8943" clip-path="url(#clipPath2)"/>
<path d="M-92.5741 -1.8994 L-95.5844 -18.3976 L-107.5788 -9.3901 Z" clip-path="url(#clipPath2)" stroke="none"/>
<path fill="none" d="M-35.5792 -155.2554 L-73.6982 -22.745" clip-path="url(#clipPath2)"/>
<path d="M-77.4995 -9.5308 L-66.145 -21.8728 L-80.5604 -26.0197 Z" clip-path="url(#clipPath2)" stroke="none"/>
<path fill="none" d="M-46.2642 -181.3824 L-137.929 -249.3788" clip-path="url(#clipPath2)"/>
<path d="M-148.9723 -257.5706 L-141.3933 -242.6104 L-132.4567 -254.6577 Z" clip-path="url(#clipPath2)" stroke="none"/>
<path fill="none" d="M72.9132 -55.0982 L-8.4699 -145.0588" clip-path="url(#clipPath2)"/>
<path d="M-17.6944 -155.2554 L-13.1932 -139.1003 L-2.0695 -149.1633 Z" clip-path="url(#clipPath2)" stroke="none"/>
<path fill="none" d="M140.575 101.1817 L-57.8671 20.7887" clip-path="url(#clipPath2)"/>
<path d="M-70.611 15.6259 L-59.5247 28.2093 L-53.8925 14.3068 Z" clip-path="url(#clipPath2)" stroke="none"/>
<path fill="none" stroke-dasharray="none" d="M313.9407 123.4458 L176.7105 108.0053" clip-path="url(#clipPath2)"/>
<polygon stroke-dasharray="none" clip-path="url(#clipPath3)" transform="matrix(-1.2422,-0.1398,0.1398,-1.2422,158.0781,105.9089)" points=" -12 -6 0 0 -12 6 -12 -6" stroke="none"/>
<rect x="-15" y="-6" transform="matrix(-1.2422,-0.1398,0.1398,-1.2422,158.0781,105.9089)" clip-path="url(#clipPath3)" width="1" stroke-dasharray="none" height="12" stroke="none"/>
</g>
<g fill="rgb(110,110,110)" stroke-width="2" stroke-miterlimit="1.45" transform="matrix(1,0,0,1,363,398)" stroke-linecap="butt" stroke="rgb(110,110,110)">
<path fill="none" d="M304.2054 -23.6815 L309.899 -27.6075 L312.3412 -30.5674 L314.1852 -33.9647 L315.3506 -37.7189 L315.7569 -41.7496 L315.3506 -45.7803 L314.1852 -49.5345 L312.3412 -52.9318 L309.899 -55.8918 L306.9391 -58.334 L303.5418 -60.1779 L299.7876 -61.3433 L295.7569 -61.7496 L291.7262 -61.3433 L287.972 -60.1779 L284.5747 -58.334 L281.6148 -55.8918 L279.1726 -52.9318 L277.3286 -49.5345 L276.1632 -45.7803 L275.7569 -41.7496 L276.1632 -37.7189 L277.3286 -33.9647 L278.3031 -32.1694 L278.3794 -32.1048" clip-path="url(#clipPath2)"/>
<path d="M287.8249 -24.1095 L281.8817 -37.9837 L273.1597 -27.6795 Z" clip-path="url(#clipPath2)" stroke="none"/>
<path fill="none" stroke-dasharray="12,4" d="M75.929 -32.5482 L-34.9008 169.3028" clip-path="url(#clipPath2)"/>
<path stroke-dasharray="12,4" d="M-40.8568 180.1502 L-28.4426 171.5654 L-40.2761 165.0679 Z" clip-path="url(#clipPath2)" stroke="none"/>
<path fill="none" stroke-dasharray="12,4" d="M307.481 -136.7525 L298.5433 -49.082" clip-path="url(#clipPath2)"/>
<path stroke-dasharray="12,4" d="M297.2882 -36.7708 L305.3726 -49.5166 L291.9422 -50.8857 Z" clip-path="url(#clipPath2)" stroke="none"/>
<path fill="none" stroke-width="3" d="M163.2733 93.4576 L280.1737 -8.1986" clip-path="url(#clipPath2)" stroke="rgb(250,146,23)"/>
<path fill="rgb(250,146,23)" stroke-width="3" d="M290.5494 -17.2212 L274.3091 -13.0378 L284.1519 -1.7189 Z" clip-path="url(#clipPath2)" stroke="none"/>
<path fill="none" stroke-dasharray="12,4" d="M151.7762 89.9863 L174.2774 -100.2101" clip-path="url(#clipPath2)"/>
<path stroke-dasharray="12,4" d="M175.7312 -112.4994 L167.4419 -99.8859 L180.8484 -98.2998 Z" clip-path="url(#clipPath2)" stroke="none"/>
<path fill="none" stroke-dasharray="12,4" d="M-16.2642 -167.1834 L158.6175 -131.3676" clip-path="url(#clipPath2)"/>
<path stroke-dasharray="12,4" d="M170.7409 -128.8847 L158.8697 -138.2061 L156.1611 -124.9806 Z" clip-path="url(#clipPath2)" stroke="none"/>
<path fill="none" stroke-dasharray="12,4" d="M158.2441 -252.5 L196.0237 -317.3089" clip-path="url(#clipPath2)"/>
<path stroke-dasharray="12,4" d="M202.2559 -328 L189.6256 -319.7364 L201.2886 -312.9376 Z" clip-path="url(#clipPath2)" stroke="none"/>
<path fill="none" stroke-dasharray="12,4" d="M-146.6946 -270.9565 L-38.4966 -304.5616" clip-path="url(#clipPath2)"/>
<path stroke-dasharray="12,4" d="M-26.6785 -308.2322 L-41.5731 -310.6741 L-37.5689 -297.7817 Z" clip-path="url(#clipPath2)" stroke="none"/>
<path fill="none" stroke-dasharray="12,4" d="M-16.2634 -177.1539 L-12.8359 -182.4706 L-11.6705 -186.2247 L-11.2642 -190.2554 L-11.6705 -194.2861 L-12.8359 -198.0404 L-14.6798 -201.4376 L-17.122 -204.3976 L-20.082 -206.8398 L-23.4793 -208.6837 L-27.2335 -209.8491 L-31.2642 -210.2554 L-35.2949 -209.8491 L-39.0491 -208.6837 L-42.4463 -206.8398 L-45.4063 -204.3976 L-47.8485 -201.4376 L-49.6925 -198.0403 L-50.8578 -194.2861 L-51.2642 -190.2554 L-51.0921 -188.5486 L-51.0469 -188.4594" clip-path="url(#clipPath2)"/>
<path stroke-dasharray="12,4" d="M-45.4568 -177.4189 L-45.533 -192.5122 L-57.5772 -186.4139 Z" clip-path="url(#clipPath2)" stroke="none"/>
</g>
<g stroke-linecap="butt" transform="matrix(1,0,0,1,363,398)" fill="rgb(250,146,23)" stroke-dasharray="18,6" stroke="rgb(250,146,23)" stroke-width="3" stroke-miterlimit="1.45">
<path fill="none" d="M152.7193 114.5606 L179.8915 210.0928" clip-path="url(#clipPath2)"/>
<path d="M183.6532 223.3183 L186.7634 206.8387 L172.3357 210.9424 Z" clip-path="url(#clipPath2)" stroke="none"/>
<path fill="none" d="M134.5 -244.3145 L10.703 -300.5556" clip-path="url(#clipPath2)"/>
<path d="M-1.8157 -306.2428 L8.7389 -293.2102 L14.9432 -306.8669 Z" clip-path="url(#clipPath2)" stroke="none"/>
<path fill="none" d="M-46.2642 -165.3547 L-154.6883 -129.9308" clip-path="url(#clipPath2)"/>
<path d="M-167.7584 -125.6606 L-151.1709 -123.1898 L-155.8293 -137.4482 Z" clip-path="url(#clipPath2)" stroke="none"/>
<path fill="none" d="M-29.4915 -185.2554 L-17.8997 -283.347" clip-path="url(#clipPath2)"/>
<path d="M-16.286 -297.002 L-25.4945 -282.9858 L-10.5982 -281.2255 Z" clip-path="url(#clipPath2)" stroke="none"/>
</g>
<g fill="rgb(110,110,110)" stroke-width="2" stroke-miterlimit="1.45" transform="matrix(1,0,0,1,363,398)" stroke-linecap="butt" stroke="rgb(110,110,110)">
<path fill="none" d="M467.2131 -223.6169 L563.7818 -142.8191" clip-path="url(#clipPath2)"/>
<path d="M573.2729 -134.8781 L567.2505 -148.718 L558.5875 -138.3641 Z" clip-path="url(#clipPath2)" stroke="none"/>
<path fill="none" stroke-width="3" d="M431.626 -224.888 L335.8191 -167.743" clip-path="url(#clipPath2)" stroke="rgb(250,146,23)"/>
<path fill="rgb(250,146,23)" stroke-width="3" d="M324.0102 -160.6994 L340.7346 -161.9421 L333.0507 -174.8246 Z" clip-path="url(#clipPath2)" stroke="none"/>
<path fill="none" d="M506.0015 139.0769 L517.3179 238.0948" clip-path="url(#clipPath2)"/>
<path fill="none" d="M489.8664 6.8839 L499.8448 87.3761" clip-path="url(#clipPath2)"/>
<path fill="none" d="M398.981 230.4053 L353.0597 141.5889" clip-path="url(#clipPath2)"/>
<path fill="none" d="M377.4295 124.1617 L488.6406 114.2761" clip-path="url(#clipPath2)"/>
<path fill="none" d="M606.6912 97.2505 L517.0175 110.8718" clip-path="url(#clipPath2)"/>
<path fill="none" d="M493.8096 125.5982 L416.9149 230.7829" clip-path="url(#clipPath2)"/>
<path fill="none" d="M176.6934 247.8752 L101.0678 317.114" clip-path="url(#clipPath2)"/>
<path fill="none" stroke-width="3" d="M294.0102 -159.8161 L164.5 -229.4365" clip-path="url(#clipPath2)" stroke="rgb(250,146,23)"/>
<path fill="none" stroke-width="3" d="M-53.3224 171.8126 L-78.9567 33.6972" clip-path="url(#clipPath2)" stroke="rgb(250,146,23)"/>
<path fill="none" d="M730.5621 408.7244 L728.2579 490.3616" clip-path="url(#clipPath2)"/>
<path d="M727.9087 502.7317 L735.0369 489.4275 L721.5423 489.0466 Z" clip-path="url(#clipPath2)" stroke="none"/>
<path fill="none" d="M251.3802 553.2268 L253.3047 480.0964" clip-path="url(#clipPath2)"/>
<path d="M253.6302 467.7257 L246.5274 481.0434 L260.0227 481.3986 Z" clip-path="url(#clipPath2)" stroke="none"/>
<path fill="none" d="M489.8454 549.23 L491.7436 470.1375" clip-path="url(#clipPath2)"/>
<path fill="none" d="M-64.391 627.6516 L-177.2323 679.4798" clip-path="url(#clipPath2)"/>
<path d="M-53.1455 622.4865 L-68.2307 621.9872 L-62.596 634.2551 Z" clip-path="url(#clipPath2)" stroke="none"/>
<path d="M-188.4778 684.6449 L-173.3926 685.1442 L-179.0273 672.8763 Z" clip-path="url(#clipPath2)" stroke="none"/>
<path fill="none" d="M-25.6267 610.5778 L-22.9302 607.4079 L-21.0862 604.0106 L-19.9208 600.2564 L-19.5145 596.2257 L-19.9208 592.195 L-21.0862 588.4408 L-22.9302 585.0435 L-25.3724 582.0836 L-28.3323 579.6414 L-31.7296 577.7974 L-35.4838 576.632 L-39.5145 576.2257 L-43.5452 576.632 L-47.2994 577.7974 L-50.6967 579.6414 L-53.6567 582.0836 L-56.0988 585.0435 L-57.9428 588.4408 L-59.1082 592.195 L-59.5145 596.2257 L-59.1714 599.6298 L-59.123 599.7173" clip-path="url(#clipPath2)"/>
<path d="M-53.1361 610.5477 L-53.7597 595.4672 L-65.5747 601.9983 Z" clip-path="url(#clipPath2)" stroke="none"/>
<path fill="none" d="M-64.9907 606.2081 L-264.5383 527.7433" clip-path="url(#clipPath2)"/>
<path d="M-53.4741 610.7366 L-63.5676 599.5146 L-68.5078 612.0782 Z" clip-path="url(#clipPath2)" stroke="none"/>
<path d="M-276.0549 523.2148 L-265.9614 534.4368 L-261.0212 521.8732 Z" clip-path="url(#clipPath2)" stroke="none"/>
<path fill="none" d="M-64.6605 605.4059 L-129.8752 577.3454" clip-path="url(#clipPath2)"/>
<path d="M-53.2932 610.297 L-63.026 598.7608 L-68.3618 611.1616 Z" clip-path="url(#clipPath2)" stroke="none"/>
<path d="M-141.2426 572.4543 L-131.5097 583.9905 L-126.174 571.5897 Z" clip-path="url(#clipPath2)" stroke="none"/>
<path fill="none" d="M-123.7363 456.0244 L-154.7928 535.927" clip-path="url(#clipPath2)"/>
<path d="M-119.2531 444.49 L-130.4353 454.6276 L-117.8524 459.5183 Z" clip-path="url(#clipPath2)" stroke="none"/>
<path d="M-159.2759 547.4614 L-148.0937 537.3238 L-160.6767 532.433 Z" clip-path="url(#clipPath2)" stroke="none"/>
<path fill="none" d="M-107.6601 444.4803 L-49.6107 590.7805" clip-path="url(#clipPath2)"/>
<path d="M-45.0467 602.2831 L-43.7515 587.2454 L-56.2998 592.2243 Z" clip-path="url(#clipPath2)" stroke="none"/>
<path fill="none" d="M-123.2578 456.122 L-201.7712 668.8293" clip-path="url(#clipPath2)"/>
<path d="M-118.9726 444.5127 L-129.9798 454.8401 L-117.315 459.5148 Z" clip-path="url(#clipPath2)" stroke="none"/>
<path d="M-206.0564 680.4387 L-195.0493 670.1113 L-207.7141 665.4366 Z" clip-path="url(#clipPath2)" stroke="none"/>
<path fill="none" d="M-95.0407 417.364 L-93.5145 409.7257 L-93.9208 405.695 L-95.0862 401.9408 L-96.9302 398.5435 L-99.3724 395.5836 L-102.3323 393.1414 L-105.7296 391.2974 L-109.4838 390.132 L-113.5145 389.7257 L-117.5452 390.132 L-121.2994 391.2974 L-124.6967 393.1414 L-127.6566 395.5835 L-130.0988 398.5435 L-131.9428 401.9408 L-132.8994 405.0226 L-132.8899 405.1221" clip-path="url(#clipPath2)"/>
<path d="M-131.7079 417.4405 L-126.2782 403.3575 L-139.7165 404.647 Z" clip-path="url(#clipPath2)" stroke="none"/>
<path fill="none" d="M-146.6672 446.2551 L-265.5157 505.511" clip-path="url(#clipPath2)"/>
<path d="M-135.5924 440.7333 L-150.6858 440.7162 L-144.6621 452.7978 Z" clip-path="url(#clipPath2)" stroke="none"/>
<path d="M-276.5905 511.0327 L-261.4971 511.0498 L-267.5208 498.9682 Z" clip-path="url(#clipPath2)" stroke="none"/>
<path fill="none" d="M-174.2761 588.7158 L-202.2529 668.7357" clip-path="url(#clipPath2)"/>
<path d="M-170.1919 577.0341 L-181.0192 587.55 L-168.2756 592.0054 Z" clip-path="url(#clipPath2)" stroke="none"/>
<path d="M-206.3371 680.4173 L-195.5099 669.9014 L-208.2534 665.446 Z" clip-path="url(#clipPath2)" stroke="none"/>
<path fill="none" d="M-202.4069 548.914 L-264.225 526.9067" clip-path="url(#clipPath2)"/>
<path d="M-190.7486 553.0643 L-201.2029 542.1776 L-205.7306 554.8958 Z" clip-path="url(#clipPath2)" stroke="none"/>
<path d="M-275.8833 522.7564 L-265.429 533.6431 L-260.9013 520.925 Z" clip-path="url(#clipPath2)" stroke="none"/>
<path fill="none" d="M-146.5407 549.864 L-145.0145 542.2257 L-145.4208 538.195 L-146.5862 534.4408 L-148.4302 531.0435 L-150.8724 528.0836 L-153.8323 525.6414 L-157.2296 523.7974 L-160.9838 522.632 L-165.0145 522.2257 L-169.0452 522.632 L-172.7994 523.7974 L-176.1967 525.6414 L-179.1566 528.0836 L-181.5988 531.0435 L-183.4428 534.4408 L-184.3994 537.5225 L-184.3899 537.6221" clip-path="url(#clipPath2)"/>
<path d="M-183.2079 549.9405 L-177.7782 535.8575 L-191.2165 537.1469 Z" clip-path="url(#clipPath2)" stroke="none"/>
<path fill="none" d="M-276.1267 512.0777 L-273.4302 508.9079 L-271.5862 505.5106 L-270.4208 501.7563 L-270.0145 497.7257 L-270.4209 493.695 L-271.5862 489.9408 L-273.4302 486.5435 L-275.8724 483.5835 L-278.8323 481.1414 L-282.2296 479.2974 L-285.9839 478.132 L-290.0145 477.7257 L-294.0452 478.132 L-297.7994 479.2974 L-301.1967 481.1414 L-304.1567 483.5836 L-306.5988 486.5435 L-308.4428 489.9408 L-309.6082 493.695 L-310.0145 497.7257 L-309.6714 501.1297 L-309.623 501.2172" clip-path="url(#clipPath2)"/>
<path d="M-303.6372 512.0483 L-304.2593 496.9677 L-316.075 503.4976 Z" clip-path="url(#clipPath2)" stroke="none"/>
<path fill="none" d="M-278.9423 542.7616 L-223.0195 669.2111" clip-path="url(#clipPath2)"/>
<path d="M-283.9475 531.444 L-284.6605 546.5206 L-272.314 541.0603 Z" clip-path="url(#clipPath2)" stroke="none"/>
<path d="M-218.0143 680.5287 L-217.3013 665.4521 L-229.6478 670.9124 Z" clip-path="url(#clipPath2)" stroke="none"/>
<path fill="none" d="M-193.0407 682.864 L-191.5145 675.2257 L-191.9208 671.195 L-193.0862 667.4408 L-194.9302 664.0435 L-197.3724 661.0836 L-200.3323 658.6414 L-203.7296 656.7974 L-207.4838 655.632 L-211.5145 655.2257 L-215.5452 655.632 L-219.2994 656.7974 L-222.6967 658.6414 L-225.6566 661.0836 L-228.0988 664.0435 L-229.9428 667.4408 L-230.8994 670.5225 L-230.8899 670.6221" clip-path="url(#clipPath2)"/>
<path d="M-229.7079 682.9405 L-224.2782 668.8575 L-237.7165 670.1469 Z" clip-path="url(#clipPath2)" stroke="none"/>
</g>
<g fill="white" transform="matrix(1,0,0,1,363,398)" stroke="white">
<circle r="15" clip-path="url(#clipPath2)" cx="187.7569" cy="237.746" stroke="none"/>
</g>
<g fill="rgb(110,110,110)" stroke-miterlimit="1.45" transform="matrix(1,0,0,1,363,398)" stroke-linecap="butt" stroke="rgb(110,110,110)">
<circle fill="none" r="15" clip-path="url(#clipPath2)" cx="187.7569" cy="237.746"/>
</g>
<g font-family="'Arial'" font-size="16" transform="matrix(1,0,0,1,363,398)">
<text x="160.2569" xml:space="preserve" y="243.5546" clip-path="url(#clipPath2)" stroke="none">MACF1</text>
</g>
<g fill="rgb(255,97,97)" transform="matrix(1,0,0,1,363,398)" stroke="rgb(255,97,97)">
<circle r="15" clip-path="url(#clipPath2)" cx="90.0044" cy="327.2431" stroke="none"/>
</g>
<g fill="rgb(110,110,110)" stroke-miterlimit="1.45" transform="matrix(1,0,0,1,363,398)" stroke-linecap="butt" stroke="rgb(110,110,110)">
<circle fill="none" r="15" clip-path="url(#clipPath2)" cx="90.0044" cy="327.2431"/>
</g>
<g font-family="'Arial'" font-size="16" transform="matrix(1,0,0,1,363,398)">
<text x="57.5044" xml:space="preserve" y="333.0517" clip-path="url(#clipPath2)" stroke="none">GOLGA4</text>
</g>
<g fill="rgb(255,173,173)" transform="matrix(1,0,0,1,363,398)" stroke="rgb(255,173,173)">
<circle r="15" clip-path="url(#clipPath2)" cx="584.7772" cy="-125.2525" stroke="none"/>
</g>
<g fill="rgb(110,110,110)" stroke-miterlimit="1.45" transform="matrix(1,0,0,1,363,398)" stroke-linecap="butt" stroke="rgb(110,110,110)">
<circle fill="none" r="15" clip-path="url(#clipPath2)" cx="584.7772" cy="-125.2525"/>
</g>
<g font-family="'Arial'" font-size="16" transform="matrix(1,0,0,1,363,398)">
<text x="557.7772" xml:space="preserve" y="-119.4439" clip-path="url(#clipPath2)" stroke="none">SPAG9</text>
</g>
<g fill="white" transform="matrix(1,0,0,1,363,398)" stroke="white">
<ellipse rx="32.5" ry="15" clip-path="url(#clipPath2)" cx="451.5152" cy="-236.7511" stroke="none"/>
</g>
<g fill="rgb(110,110,110)" stroke-miterlimit="1.45" transform="matrix(1,0,0,1,363,398)" stroke-linecap="butt" stroke="rgb(110,110,110)">
<ellipse rx="32.5" fill="none" ry="15" clip-path="url(#clipPath2)" cx="451.5152" cy="-236.7511"/>
</g>
<g font-family="'Arial'" font-size="16" transform="matrix(1,0,0,1,363,398)">
<text x="423.0152" xml:space="preserve" y="-230.9425" clip-path="url(#clipPath2)" stroke="none">ZNF217</text>
</g>
<g fill="rgb(221,255,221)" transform="matrix(1,0,0,1,363,398)" stroke="rgb(221,255,221)">
<rect x="196" width="30" height="30" y="-358" clip-path="url(#clipPath2)" stroke="none"/>
</g>
<g fill="rgb(110,110,110)" stroke-dasharray="6,2" stroke-miterlimit="1.45" transform="matrix(1,0,0,1,363,398)" stroke-linecap="butt" stroke="rgb(110,110,110)">
<rect fill="none" x="196" width="30" height="30" y="-358" clip-path="url(#clipPath2)"/>
</g>
<g font-family="'Arial'" font-size="16" transform="matrix(1,0,0,1,363,398)">
<text x="182.5" xml:space="preserve" y="-337.1914" clip-path="url(#clipPath2)" stroke="none">LEFTY2</text>
</g>
<g fill="white" transform="matrix(1,0,0,1,363,398)" stroke="white">
<rect x="134.5" width="30" height="30" y="-252.5" clip-path="url(#clipPath2)" stroke="none"/>
</g>
<g fill="rgb(110,110,110)" stroke-dasharray="6,2" stroke-miterlimit="1.45" transform="matrix(1,0,0,1,363,398)" stroke-linecap="butt" stroke="rgb(110,110,110)">
<rect fill="none" x="134.5" width="30" height="30" y="-252.5" clip-path="url(#clipPath2)"/>
</g>
<g font-family="'Arial'" font-size="16" transform="matrix(1,0,0,1,363,398)">
<text x="126" xml:space="preserve" y="-231.6914" clip-path="url(#clipPath2)" stroke="none">INHBA</text>
</g>
<g fill="white" transform="matrix(1,0,0,1,363,398)" stroke="white">
<circle r="15" clip-path="url(#clipPath2)" cx="-182.0167" cy="-121.0022" stroke="none"/>
</g>
<g fill="rgb(110,110,110)" stroke-miterlimit="1.45" transform="matrix(1,0,0,1,363,398)" stroke-linecap="butt" stroke="rgb(110,110,110)">
<circle fill="none" r="15" clip-path="url(#clipPath2)" cx="-182.0167" cy="-121.0022"/>
</g>
<g font-family="'Arial'" font-size="16" transform="matrix(1,0,0,1,363,398)">
<text x="-204.0167" xml:space="preserve" y="-115.1936" clip-path="url(#clipPath2)" stroke="none">ITGA6</text>
</g>
<g fill="rgb(255,133,133)" transform="matrix(1,0,0,1,363,398)" stroke="rgb(255,133,133)">
<ellipse rx="32.5" ry="15" clip-path="url(#clipPath2)" cx="-226.5" cy="-10.5" stroke="none"/>
</g>
<g fill="rgb(110,110,110)" stroke-miterlimit="1.45" transform="matrix(1,0,0,1,363,398)" stroke-linecap="butt" stroke="rgb(110,110,110)">
<ellipse rx="32.5" fill="none" ry="15" clip-path="url(#clipPath2)" cx="-226.5" cy="-10.5"/>
</g>
<g font-family="'Arial'" font-size="16" transform="matrix(1,0,0,1,363,398)">
<text x="-251.5" xml:space="preserve" y="-4.6914" clip-path="url(#clipPath2)" stroke="none">NFAT5</text>
</g>
<g fill="white" transform="matrix(1,0,0,1,363,398)" stroke="white">
<circle r="15" clip-path="url(#clipPath2)" cx="-161.0196" cy="-266.5073" stroke="none"/>
</g>
<g fill="rgb(110,110,110)" stroke-miterlimit="1.45" transform="matrix(1,0,0,1,363,398)" stroke-linecap="butt" stroke="rgb(110,110,110)">
<circle fill="none" r="15" clip-path="url(#clipPath2)" cx="-161.0196" cy="-266.5073"/>
</g>
<g font-family="'Arial'" font-size="16" transform="matrix(1,0,0,1,363,398)">
<text x="-183.0196" xml:space="preserve" y="-260.6987" clip-path="url(#clipPath2)" stroke="none">NPPB</text>
</g>
<g fill="rgb(209,255,209)" transform="matrix(1,0,0,1,363,398)" stroke="rgb(209,255,209)">
<path d="M-29.5123 -297.0109 L-22.0123 -327.0109 L-7.0123 -327.0109 L0.4877 -297.0109 Z" clip-path="url(#clipPath2)" fill-rule="evenodd" stroke="none"/>
</g>
<g fill="rgb(110,110,110)" stroke-miterlimit="1.45" transform="matrix(1,0,0,1,363,398)" stroke-linecap="butt" stroke="rgb(110,110,110)">
<path fill="none" d="M-29.5123 -297.0109 L-22.0123 -327.0109 L-7.0123 -327.0109 L0.4877 -297.0109 Z" fill-rule="evenodd" clip-path="url(#clipPath2)"/>
</g>
<g font-family="'Arial'" font-size="16" transform="matrix(1,0,0,1,363,398)">
<text x="-35.5123" xml:space="preserve" y="-306.2023" clip-path="url(#clipPath2)" stroke="none">STAR</text>
</g>
<g fill="white" transform="matrix(1,0,0,1,363,398)" stroke="white">
<path d="M49.9949 -44.5065 L82.4949 -59.5065 L114.9949 -44.5065 L82.4949 -29.5065 Z" clip-path="url(#clipPath2)" fill-rule="evenodd" stroke="none"/>
</g>
<g fill="rgb(110,110,110)" stroke-miterlimit="1.45" transform="matrix(1,0,0,1,363,398)" stroke-linecap="butt" stroke="rgb(110,110,110)">
<path fill="none" d="M49.9949 -44.5065 L82.4949 -59.5065 L114.9949 -44.5065 L82.4949 -29.5065 Z" fill-rule="evenodd" clip-path="url(#clipPath2)"/>
</g>
<g font-family="'Arial'" font-size="16" transform="matrix(1,0,0,1,363,398)">
<text x="72.9949" xml:space="preserve" y="-38.6979" clip-path="url(#clipPath2)" stroke="none">F2</text>
</g>
<g fill="rgb(255,151,151)" transform="matrix(1,0,0,1,363,398)" stroke="rgb(255,151,151)">
<path d="M-64.0167 195.0116 L-49.0167 162.5116 L-34.0167 195.0116 L-49.0167 227.5116 Z" clip-path="url(#clipPath2)" fill-rule="evenodd" stroke="none"/>
</g>
<g fill="rgb(110,110,110)" stroke-miterlimit="1.45" transform="matrix(1,0,0,1,363,398)" stroke-linecap="butt" stroke="rgb(110,110,110)">
<path fill="none" d="M-64.0167 195.0116 L-49.0167 162.5116 L-34.0167 195.0116 L-49.0167 227.5116 Z" fill-rule="evenodd" clip-path="url(#clipPath2)"/>
</g>
<g font-family="'Arial'" font-size="16" transform="matrix(1,0,0,1,363,398)">
<text x="-90.0167" xml:space="preserve" y="200.8202" clip-path="url(#clipPath2)" stroke="none">ARHGAP5*</text>
</g>
<g fill="white" transform="matrix(1,0,0,1,363,398)" stroke="white">
<path d="M-98.262 10.5007 L-83.262 -21.9993 L-68.262 10.5007 L-83.262 43.0007 Z" clip-path="url(#clipPath2)" fill-rule="evenodd" stroke="none"/>
</g>
<g fill="rgb(110,110,110)" stroke-miterlimit="1.45" transform="matrix(1,0,0,1,363,398)" stroke-linecap="butt" stroke="rgb(110,110,110)">
<path fill="none" d="M-98.262 10.5007 L-83.262 -21.9993 L-68.262 10.5007 L-83.262 43.0007 Z" fill-rule="evenodd" clip-path="url(#clipPath2)"/>
</g>
<g font-family="'Arial'" font-size="16" transform="matrix(1,0,0,1,363,398)">
<text x="-105.762" xml:space="preserve" y="16.3093" clip-path="url(#clipPath2)" stroke="none">RHOA</text>
</g>
<g fill="rgb(196,255,196)" transform="matrix(1,0,0,1,363,398)" stroke="rgb(196,255,196)">
<rect x="-240.2707" width="30" height="65" y="129.5007" clip-path="url(#clipPath2)" stroke="none"/>
</g>
<g fill="rgb(110,110,110)" stroke-dasharray="6,2" stroke-miterlimit="1.45" transform="matrix(1,0,0,1,363,398)" stroke-linecap="butt" stroke="rgb(110,110,110)">
<rect fill="none" x="-240.2707" width="30" height="65" y="129.5007" clip-path="url(#clipPath2)"/>
</g>
<g font-family="'Arial'" font-size="16" transform="matrix(1,0,0,1,363,398)">
<text x="-251.2707" xml:space="preserve" y="167.8093" clip-path="url(#clipPath2)" stroke="none">TRPC6</text>
</g>
<g fill="rgb(208,255,208)" transform="matrix(1,0,0,1,363,398)" stroke="rgb(208,255,208)">
<rect x="294.0102" width="30" height="30" y="-166.7525" clip-path="url(#clipPath2)" stroke="none"/>
</g>
<g fill="rgb(110,110,110)" stroke-dasharray="6,2" stroke-miterlimit="1.45" transform="matrix(1,0,0,1,363,398)" stroke-linecap="butt" stroke="rgb(110,110,110)">
<rect fill="none" x="294.0102" width="30" height="30" y="-166.7525" clip-path="url(#clipPath2)"/>
</g>
<g font-family="'Arial'" font-size="16" transform="matrix(1,0,0,1,363,398)">
<text x="283.0102" xml:space="preserve" y="-145.9439" clip-path="url(#clipPath2)" stroke="none">TDGF1</text>
</g>
<g fill="white" transform="matrix(1,0,0,1,363,398)" stroke="white">
<path d="M280.7569 -36.7496 L310.7569 -36.7496 L295.7569 -6.7496 Z" clip-path="url(#clipPath2)" fill-rule="evenodd" stroke="none"/>
</g>
<g fill="rgb(110,110,110)" stroke-miterlimit="1.45" transform="matrix(1,0,0,1,363,398)" stroke-linecap="butt" stroke="rgb(110,110,110)">
<path fill="none" d="M280.7569 -36.7496 L310.7569 -36.7496 L295.7569 -6.7496 Z" fill-rule="evenodd" clip-path="url(#clipPath2)"/>
</g>
<g font-family="'Arial'" font-size="16" transform="matrix(1,0,0,1,363,398)">
<text x="269.2569" xml:space="preserve" y="-15.941" clip-path="url(#clipPath2)" stroke="none">ERBB4</text>
</g>
<g fill="white" transform="matrix(1,0,0,1,363,398)" stroke="white">
<path d="M135 90 L165 90 L150 120 Z" clip-path="url(#clipPath2)" fill-rule="evenodd" stroke="none"/>
</g>
<g fill="rgb(110,110,110)" stroke-miterlimit="1.45" transform="matrix(1,0,0,1,363,398)" stroke-linecap="butt" stroke="rgb(110,110,110)">
<path fill="none" d="M135 90 L165 90 L150 120 Z" fill-rule="evenodd" clip-path="url(#clipPath2)"/>
</g>
<g font-family="'Arial'" font-size="16" transform="matrix(1,0,0,1,363,398)">
<text x="123.5" xml:space="preserve" y="110.8086" clip-path="url(#clipPath2)" stroke="none">ERBB2</text>
</g>
<g fill="white" transform="matrix(1,0,0,1,363,398)" stroke="white">
<rect x="-46.2642" width="30" height="30" y="-185.2554" clip-path="url(#clipPath2)" stroke="none"/>
</g>
<g fill="rgb(110,110,110)" stroke-dasharray="6,2" stroke-miterlimit="1.45" transform="matrix(1,0,0,1,363,398)" stroke-linecap="butt" stroke="rgb(110,110,110)">
<rect fill="none" x="-46.2642" width="30" height="30" y="-185.2554" clip-path="url(#clipPath2)"/>
</g>
<g font-family="'Arial'" font-size="16" transform="matrix(1,0,0,1,363,398)">
<text x="-56.7642" xml:space="preserve" y="-164.4469" clip-path="url(#clipPath2)" stroke="none">TGFB1</text>
</g>
<g fill="rgb(182,255,182)" transform="matrix(1,0,0,1,363,398)" stroke="rgb(182,255,182)">
<path d="M177.5058 -142.4993 L192.5058 -112.4993 L162.5058 -112.4993 Z" clip-path="url(#clipPath2)" fill-rule="evenodd" stroke="none"/>
</g>
<g fill="rgb(110,110,110)" stroke-miterlimit="1.45" transform="matrix(1,0,0,1,363,398)" stroke-linecap="butt" stroke="rgb(110,110,110)">
<path fill="none" d="M177.5058 -142.4993 L192.5058 -112.4993 L162.5058 -112.4993 Z" fill-rule="evenodd" clip-path="url(#clipPath2)"/>
</g>
<g font-family="'Arial'" font-size="16" transform="matrix(1,0,0,1,363,398)">
<text x="150.0058" xml:space="preserve" y="-121.6907" clip-path="url(#clipPath2)" stroke="none">CDKN3</text>
</g>
<g fill="white" transform="matrix(1,0,0,1,363,398)" stroke="white">
<circle r="15" clip-path="url(#clipPath2)" cx="519.021" cy="252.9978" stroke="none"/>
</g>
<g fill="rgb(110,110,110)" stroke-miterlimit="1.45" transform="matrix(1,0,0,1,363,398)" stroke-linecap="butt" stroke="rgb(110,110,110)">
<circle fill="none" r="15" clip-path="url(#clipPath2)" cx="519.021" cy="252.9978"/>
</g>
<g font-family="'Arial'" font-size="16" transform="matrix(1,0,0,1,363,398)">
<text x="497.5211" xml:space="preserve" y="258.8064" clip-path="url(#clipPath2)" stroke="none">CBX3</text>
</g>
<g fill="white" transform="matrix(1,0,0,1,363,398)" stroke="white">
<ellipse rx="32.5" ry="15" clip-path="url(#clipPath2)" cx="345.516" cy="126.9985" stroke="none"/>
</g>
<g fill="rgb(110,110,110)" stroke-miterlimit="1.45" transform="matrix(1,0,0,1,363,398)" stroke-linecap="butt" stroke="rgb(110,110,110)">
<ellipse rx="32.5" fill="none" ry="15" clip-path="url(#clipPath2)" cx="345.516" cy="126.9985"/>
</g>
<g font-family="'Arial'" font-size="16" transform="matrix(1,0,0,1,363,398)">
<text x="325.516" xml:space="preserve" y="132.8071" clip-path="url(#clipPath2)" stroke="none">EZH2</text>
</g>
<g fill="white" transform="matrix(1,0,0,1,363,398)" stroke="white">
<circle r="15" clip-path="url(#clipPath2)" cx="488.021" cy="-8.0022" stroke="none"/>
</g>
<g fill="rgb(110,110,110)" stroke-miterlimit="1.45" transform="matrix(1,0,0,1,363,398)" stroke-linecap="butt" stroke="rgb(110,110,110)">
<circle fill="none" r="15" clip-path="url(#clipPath2)" cx="488.021" cy="-8.0022"/>
</g>
<g font-family="'Arial'" font-size="16" transform="matrix(1,0,0,1,363,398)">
<text x="466.5211" xml:space="preserve" y="-2.1936" clip-path="url(#clipPath2)" stroke="none">CBX5</text>
</g>
<g fill="white" transform="matrix(1,0,0,1,363,398)" stroke="white">
<ellipse rx="32.5" ry="15" clip-path="url(#clipPath2)" cx="406.5247" cy="244.9956" stroke="none"/>
</g>
<g fill="rgb(110,110,110)" stroke-miterlimit="1.45" transform="matrix(1,0,0,1,363,398)" stroke-linecap="butt" stroke="rgb(110,110,110)">
<ellipse rx="32.5" fill="none" ry="15" clip-path="url(#clipPath2)" cx="406.5247" cy="244.9956"/>
</g>
<g font-family="'Arial'" font-size="16" transform="matrix(1,0,0,1,363,398)">
<text x="389.5247" xml:space="preserve" y="250.8042" clip-path="url(#clipPath2)" stroke="none">EED</text>
</g>
<g fill="white" transform="matrix(1,0,0,1,363,398)" stroke="white">
<circle r="15" clip-path="url(#clipPath2)" cx="621.521" cy="94.9978" stroke="none"/>
</g>
<g fill="rgb(110,110,110)" stroke-miterlimit="1.45" transform="matrix(1,0,0,1,363,398)" stroke-linecap="butt" stroke="rgb(110,110,110)">
<circle fill="none" r="15" clip-path="url(#clipPath2)" cx="621.521" cy="94.9978"/>
</g>
<g font-family="'Arial'" font-size="16" transform="matrix(1,0,0,1,363,398)">
<text x="600.0211" xml:space="preserve" y="100.8064" clip-path="url(#clipPath2)" stroke="none">CBX1</text>
</g>
<g fill="rgb(171,255,171)" transform="matrix(1,0,0,1,363,398)" stroke="rgb(171,255,171)">
<path d="M488.0211 112.9978 L503.0211 80.4978 L518.0211 112.9978 L503.0211 145.4978 Z" clip-path="url(#clipPath2)" fill-rule="evenodd" stroke="none"/>
</g>
<g fill="rgb(110,110,110)" stroke-miterlimit="1.45" transform="matrix(1,0,0,1,363,398)" stroke-linecap="butt" stroke="rgb(110,110,110)">
<path fill="none" d="M488.0211 112.9978 L503.0211 80.4978 L518.0211 112.9978 L503.0211 145.4978 Z" fill-rule="evenodd" clip-path="url(#clipPath2)"/>
</g>
<g font-family="'Arial'" font-size="16" transform="matrix(1,0,0,1,363,398)">
<text x="470.5211" xml:space="preserve" y="118.8064" clip-path="url(#clipPath2)" stroke="none">DNMT3A</text>
</g>
<g fill="white" transform="matrix(1,0,0,1,363,398)" stroke="white">
<ellipse rx="32.5" ry="15" clip-path="url(#clipPath2)" cx="730.9855" cy="393.7257" stroke="none"/>
</g>
<g fill="rgb(110,110,110)" stroke-miterlimit="1.45" transform="matrix(1,0,0,1,363,398)" stroke-linecap="butt" stroke="rgb(110,110,110)">
<ellipse rx="32.5" fill="none" ry="15" clip-path="url(#clipPath2)" cx="730.9855" cy="393.7257"/>
</g>
<g font-family="'Arial'" font-size="16" transform="matrix(1,0,0,1,363,398)">
<text x="702.4855" xml:space="preserve" y="399.5343" clip-path="url(#clipPath2)" stroke="none">NANOG</text>
</g>
<g fill="rgb(221,255,221)" transform="matrix(1,0,0,1,363,398)" stroke="rgb(221,255,221)">
<circle r="15" clip-path="url(#clipPath2)" cx="727.4855" cy="517.7257" stroke="none"/>
</g>
<g fill="rgb(110,110,110)" stroke-miterlimit="1.45" transform="matrix(1,0,0,1,363,398)" stroke-linecap="butt" stroke="rgb(110,110,110)">
<circle fill="none" r="15" clip-path="url(#clipPath2)" cx="727.4855" cy="517.7257"/>
</g>
<g font-family="'Arial'" font-size="16" transform="matrix(1,0,0,1,363,398)">
<text x="700.4855" xml:space="preserve" y="523.5343" clip-path="url(#clipPath2)" stroke="none">ZFP42*</text>
</g>
<g fill="rgb(221,255,221)" transform="matrix(1,0,0,1,363,398)" stroke="rgb(221,255,221)">
<rect x="239.4855" width="30" height="65" y="402.7257" clip-path="url(#clipPath2)" stroke="none"/>
</g>
<g fill="rgb(110,110,110)" stroke-dasharray="6,2" stroke-miterlimit="1.45" transform="matrix(1,0,0,1,363,398)" stroke-linecap="butt" stroke="rgb(110,110,110)">
<rect fill="none" x="239.4855" width="30" height="65" y="402.7257" clip-path="url(#clipPath2)"/>
</g>
<g font-family="'Arial'" font-size="16" transform="matrix(1,0,0,1,363,398)">
<text x="232.9855" xml:space="preserve" y="441.0343" clip-path="url(#clipPath2)" stroke="none">HCN4</text>
</g>
<g fill="white" transform="matrix(1,0,0,1,363,398)" stroke="white">
<ellipse rx="32.5" ry="15" clip-path="url(#clipPath2)" cx="250.9855" cy="568.2257" stroke="none"/>
</g>
<g fill="rgb(110,110,110)" stroke-miterlimit="1.45" transform="matrix(1,0,0,1,363,398)" stroke-linecap="butt" stroke="rgb(110,110,110)">
<ellipse rx="32.5" fill="none" ry="15" clip-path="url(#clipPath2)" cx="250.9855" cy="568.2257"/>
</g>
<g font-family="'Arial'" font-size="16" transform="matrix(1,0,0,1,363,398)">
<text x="221.9855" xml:space="preserve" y="574.0343" clip-path="url(#clipPath2)" stroke="none">MYOCD</text>
</g>
<g fill="rgb(221,255,221)" transform="matrix(1,0,0,1,363,398)" stroke="rgb(221,255,221)">
<path d="M477.4854 439.2255 L492.4854 406.7255 L507.4854 439.2255 L492.4854 471.7255 Z" clip-path="url(#clipPath2)" fill-rule="evenodd" stroke="none"/>
</g>
<g fill="rgb(110,110,110)" stroke-miterlimit="1.45" transform="matrix(1,0,0,1,363,398)" stroke-linecap="butt" stroke="rgb(110,110,110)">
<path fill="none" d="M477.4854 439.2255 L492.4854 406.7255 L507.4854 439.2255 L492.4854 471.7255 Z" fill-rule="evenodd" clip-path="url(#clipPath2)"/>
</g>
<g font-family="'Arial'" font-size="16" transform="matrix(1,0,0,1,363,398)">
<text x="475.4855" xml:space="preserve" y="445.0343" clip-path="url(#clipPath2)" stroke="none">SILV</text>
</g>
<g fill="white" transform="matrix(1,0,0,1,363,398)" stroke="white">
<circle r="15" clip-path="url(#clipPath2)" cx="489.4855" cy="564.2257" stroke="none"/>
</g>
<g fill="rgb(110,110,110)" stroke-miterlimit="1.45" transform="matrix(1,0,0,1,363,398)" stroke-linecap="butt" stroke="rgb(110,110,110)">
<circle fill="none" r="15" clip-path="url(#clipPath2)" cx="489.4855" cy="564.2257"/>
</g>
<g font-family="'Arial'" font-size="16" transform="matrix(1,0,0,1,363,398)">
<text x="461.9855" xml:space="preserve" y="570.0343" clip-path="url(#clipPath2)" stroke="none">MLANA</text>
</g>
<g fill="rgb(255,191,191)" transform="matrix(1,0,0,1,363,398)" stroke="rgb(255,191,191)">
<circle r="15" clip-path="url(#clipPath2)" cx="-39.5145" cy="616.2257" stroke="none"/>
</g>
<g fill="rgb(110,110,110)" stroke-miterlimit="1.45" transform="matrix(1,0,0,1,363,398)" stroke-linecap="butt" stroke="rgb(110,110,110)">
<circle fill="none" r="15" clip-path="url(#clipPath2)" cx="-39.5145" cy="616.2257"/>
</g>
<g font-family="'Arial'" font-size="16" transform="matrix(1,0,0,1,363,398)">
<text x="-55.5145" xml:space="preserve" y="622.0343" clip-path="url(#clipPath2)" stroke="none">TIA1</text>
</g>
<g fill="white" transform="matrix(1,0,0,1,363,398)" stroke="white">
<ellipse rx="32.5" ry="15" clip-path="url(#clipPath2)" cx="-113.5145" cy="429.7257" stroke="none"/>
</g>
<g fill="rgb(110,110,110)" stroke-miterlimit="1.45" transform="matrix(1,0,0,1,363,398)" stroke-linecap="butt" stroke="rgb(110,110,110)">
<ellipse rx="32.5" fill="none" ry="15" clip-path="url(#clipPath2)" cx="-113.5145" cy="429.7257"/>
</g>
<g font-family="'Arial'" font-size="16" transform="matrix(1,0,0,1,363,398)">
<text x="-147.0145" xml:space="preserve" y="435.5343" clip-path="url(#clipPath2)" stroke="none">HNRNPD</text>
</g>
<g fill="white" transform="matrix(1,0,0,1,363,398)" stroke="white">
<ellipse rx="32.5" ry="15" clip-path="url(#clipPath2)" cx="-165.0145" cy="562.2257" stroke="none"/>
</g>
<g fill="rgb(110,110,110)" stroke-miterlimit="1.45" transform="matrix(1,0,0,1,363,398)" stroke-linecap="butt" stroke="rgb(110,110,110)">
<ellipse rx="32.5" fill="none" ry="15" clip-path="url(#clipPath2)" cx="-165.0145" cy="562.2257"/>
</g>
<g font-family="'Arial'" font-size="16" transform="matrix(1,0,0,1,363,398)">
<text x="-185.5145" xml:space="preserve" y="568.0343" clip-path="url(#clipPath2)" stroke="none">TIAL1</text>
</g>
<g fill="white" transform="matrix(1,0,0,1,363,398)" stroke="white">
<circle r="15" clip-path="url(#clipPath2)" cx="-290.0145" cy="517.7257" stroke="none"/>
</g>
<g fill="rgb(110,110,110)" stroke-miterlimit="1.45" transform="matrix(1,0,0,1,363,398)" stroke-linecap="butt" stroke="rgb(110,110,110)">
<circle fill="none" r="15" clip-path="url(#clipPath2)" cx="-290.0145" cy="517.7257"/>
</g>
<g font-family="'Arial'" font-size="16" transform="matrix(1,0,0,1,363,398)">
<text x="-320.0145" xml:space="preserve" y="523.5343" clip-path="url(#clipPath2)" stroke="none">ELAVL1</text>
</g>
<g fill="white" transform="matrix(1,0,0,1,363,398)" stroke="white">
<ellipse rx="32.5" ry="15" clip-path="url(#clipPath2)" cx="-211.5145" cy="695.2257" stroke="none"/>
</g>
<g fill="rgb(110,110,110)" stroke-miterlimit="1.45" transform="matrix(1,0,0,1,363,398)" stroke-linecap="butt" stroke="rgb(110,110,110)">
<ellipse rx="32.5" fill="none" ry="15" clip-path="url(#clipPath2)" cx="-211.5145" cy="695.2257"/>
</g>
<g font-family="'Arial'" font-size="16" transform="matrix(1,0,0,1,363,398)">
<text x="-227.0145" xml:space="preserve" y="701.0343" clip-path="url(#clipPath2)" stroke="none">ILF3</text>
</g>
<g fill="white" font-family="'新細明體'" transform="matrix(1,0,0,1,363,398) translate(-363,-399)" stroke="white">
<rect x="0" width="1175" height="30" y="0" clip-path="url(#clipPath4)" stroke="none"/>
</g>
<g fill="blue" font-size="16" font-family="'Arial'" transform="matrix(1,0,0,1,363,398) translate(-363,-399)" stroke="blue">
<text x="2" xml:space="preserve" y="17" clip-path="url(#clipPath4)" stroke="none">2-15</text>
</g>
<g fill="white" font-family="'Arial'" transform="matrix(1,0,0,1,363,398) translate(-363,726)" stroke="white">
<rect x="0" width="1167" height="27" y="0" clip-path="url(#clipPath5)" stroke="none"/>
<text fill="blue" x="3" xml:space="preserve" y="21" clip-path="url(#clipPath5)" stroke="none"> © 2000-2009 Ingenuity Systems, Inc. All rights reserved.</text>
</g>
<g fill="white" font-family="'Arial'" transform="matrix(1,0,0,1,363,398) translate(-363,726)" stroke="white">
<rect fill="none" x="0" width="1166" height="26" y="0" clip-path="url(#clipPath5)"/>
<rect fill="none" x="1" width="1164" height="24" y="1" clip-path="url(#clipPath5)"/>
<rect fill="none" x="2" width="1162" height="22" y="2" clip-path="url(#clipPath5)"/>
</g>
</g>
</svg>
